<?xml version="1.0" standalone="no"?>
<!DOCTYPE svg PUBLIC "-//W3C//DTD SVG 1.1//EN" "http://www.w3.org/Graphics/SVG/1.1/DTD/svg11.dtd" >
<svg xmlns="http://www.w3.org/2000/svg" xmlns:xlink="http://www.w3.org/1999/xlink" version="1.1">
<metadata>
Created by FontForge 20141024 at Thu May  7 14:24:35 2015
 By System Administrator
Copyright (c) 1990-1996 ParaGraph. All Rights Reserved. Avant Garde Gothic is a registered trade mark of International Typeface Corporation.
</metadata>
<defs>
<font id="AvantGardeGothicC-Demi" horiz-adv-x="600" >
  <font-face 
    font-family="AvantGardeGothicCTT"
    font-weight="700"
    font-stretch="normal"
    units-per-em="1000"
    panose-1="0 0 0 0 0 0 0 0 0 0"
    ascent="800"
    descent="-200"
    x-height="554"
    cap-height="740"
    bbox="-479 -215 1248 980"
    underline-thickness="40"
    underline-position="-60"
    unicode-range="U+0020-F002"
  />
<missing-glyph horiz-adv-x="450" 
d="M50 0v512h400v-512h-400zM58 8h384v496h-384v-496z" />
    <glyph glyph-name=".notdef" horiz-adv-x="450" 
d="M50 0v512h400v-512h-400zM58 8h384v496h-384v-496z" />
    <glyph glyph-name="glyph1" horiz-adv-x="0" 
 />
    <glyph glyph-name="glyph2" horiz-adv-x="280" 
 />
    <glyph glyph-name="space" unicode=" " horiz-adv-x="233" 
 />
    <glyph glyph-name="space" unicode="&#x45d;" horiz-adv-x="233" 
 />
    <glyph glyph-name="space" unicode="&#x40d;" horiz-adv-x="233" 
 />
    <glyph glyph-name="space" unicode="&#xa0;" horiz-adv-x="233" 
 />
    <glyph glyph-name="exclam" unicode="!" horiz-adv-x="280" 
d="M73 0v127h133v-127h-133zM73 188v552h133v-552h-133z" />
    <glyph glyph-name="quotedbl" unicode="&#x22;" horiz-adv-x="360" 
d="M75 514v226h75v-226h-75zM210 514v226h75v-226h-75z" />
    <glyph glyph-name="numbersign" unicode="#" horiz-adv-x="560" 
d="M336 0h-90l48 233h-86l-48 -233h-90l48 233h-114l20 98h114l19 92h-114l19 98h114l45 219h90l-45 -219h86l45 219h90l-45 -219h114l-19 -98h-114l-19 -92h114l-20 -98h-114zM314 331l19 92h-86l-19 -92h86z" />
    <glyph glyph-name="dollar" unicode="$" horiz-adv-x="560" 
d="M221 -85v133q-67 15 -114.5 68t-47.5 121v12h133q-1 -37 24 -61.5t62 -24.5q38 0 62 25t24 62q0 35 -25 58.5t-94 45.5q-83 25 -120 69t-37 119q0 67 35 116t98 66v131h125v-131q56 -16 90 -63t35 -107h-125q-1 25 -19 42.5t-47 17.5q-30 0 -49 -20t-18 -46
q0 -30 20 -50.5t84 -38.5q86 -25 131.5 -77t45.5 -133q0 -75 -41 -128.5t-107 -72.5v-133h-125z" />
    <glyph glyph-name="percent" unicode="%" horiz-adv-x="860" 
d="M223 0l306 740h102l-306 -740h-102zM21 573q0 74 52.5 126.5t127.5 53.5q73 0 126 -53t53 -127q0 -75 -53 -127.5t-126 -52.5q-75 0 -127.5 52.5t-52.5 127.5zM132 573q0 -28 20 -48.5t48 -20.5q27 0 48 20t21 49q0 28 -20.5 48.5t-47.5 20.5q-29 -1 -49 -21t-20 -48z
M475 162q-1 74 52 127t128 53q74 0 126.5 -53t53.5 -127q0 -75 -53 -127t-127 -53q-75 0 -128 52.5t-52 127.5zM586 162q-1 -29 19.5 -49t49.5 -20q28 -1 48.5 19.5t20.5 49.5q0 28 -20.5 48.5t-48.5 20.5q-29 -1 -49 -21t-20 -48z" />
    <glyph glyph-name="ampersand" unicode="&#x26;" horiz-adv-x="680" 
d="M513 436h147l-127 -223l131 -142l-97 -85l-101 106l-11 -16q-34 -50 -76.5 -72t-97.5 -22q-105 0 -175.5 65t-70.5 168q0 72 37 126.5t102 86.5q-30 28 -46 61.5t-16 72.5q0 81 53.5 136t134.5 55q78 0 133.5 -52.5t55.5 -129.5q-1 -59 -31.5 -105.5t-84.5 -76.5l68 -76z
M258 322l-20 -9q-32 -14 -51 -41.5t-19 -62.5q0 -43 28 -72t73 -29q26 0 49.5 15t46.5 56l8 14zM285 485l4 -4q34 12 53.5 33t20.5 50q0 29 -18 46t-46 17q-29 0 -44.5 -18.5t-15.5 -43.5q-1 -17 9.5 -36t36.5 -44z" />
    <glyph glyph-name="quotesingle" unicode="'" horiz-adv-x="220" 
d="M74 514v226h76v-226h-76z" />
    <glyph glyph-name="parenleft" unicode="(" horiz-adv-x="380" 
d="M349 740v-139q-68 -53 -103 -130t-35 -165q0 -89 35 -166t103 -129v-139q-123 50 -199.5 169t-75.5 265q0 145 76 264.5t199 169.5z" />
    <glyph glyph-name="parenright" unicode=")" horiz-adv-x="380" 
d="M31 -128v139q67 52 102 129t36 166q0 88 -35.5 165t-102.5 130v139q122 -50 198.5 -169.5t76.5 -264.5q0 -146 -76.5 -265t-198.5 -169z" />
    <glyph glyph-name="asterisk" unicode="*" horiz-adv-x="440" 
d="M371 640v-70l-102 6l56 -84l-56 -36l-47 92l-44 -92l-62 30l54 91l-100 -7v69l100 -6l-54 89l61 30l45 -90l46 91l57 -35l-54 -85z" />
    <glyph glyph-name="plus" unicode="+" 
d="M242 379v194h116v-194h194v-116h-194v-194h-116v194h-194v116h194z" />
    <glyph glyph-name="comma" unicode="," horiz-adv-x="280" 
d="M73 0v133h133v-128q0 -46 -9 -69t-27 -40q-18 -16 -43.5 -25.5t-51.5 -10.5v67q24 0 40.5 15.5t16.5 40.5v17h-59z" />
    <glyph glyph-name="hyphen" unicode="&#xad;" horiz-adv-x="420" 
d="M71 377h278v-118h-278v118z" />
    <glyph glyph-name="period" unicode="." horiz-adv-x="280" 
d="M73 0v133h133v-133h-133z" />
    <glyph glyph-name="slash" unicode="/" horiz-adv-x="460" 
d="M26 -128l323 868h94l-323 -868h-94z" />
    <glyph glyph-name="zero" unicode="0" horiz-adv-x="560" 
d="M32 248v239q0 123 66.5 194.5t181.5 71.5q114 0 181 -71.5t67 -194.5v-239q0 -124 -67 -194.5t-181 -71.5q-115 0 -182 71t-66 195zM395 248v239q0 69 -30 104t-85 36q-56 0 -85.5 -35.5t-29.5 -104.5v-239q-1 -70 29 -105t86 -35q55 -1 85 34.5t30 105.5z" />
    <glyph glyph-name="one" unicode="1" horiz-adv-x="560" 
d="M307 0v554l-152 -199l-105 80l237 305h153v-740h-133z" />
    <glyph glyph-name="two" unicode="2" horiz-adv-x="560" 
d="M42 0v126l255 237q58 54 74 85t16 67q-1 51 -30.5 81.5t-75.5 30.5q-54 0 -86.5 -40.5t-27.5 -102.5h-133q-5 121 63.5 195t179.5 74q105 -1 174 -66.5t69 -173.5q-1 -67 -35.5 -128t-115.5 -133l-141 -126h292v-126h-478z" />
    <glyph glyph-name="three" unicode="3" horiz-adv-x="560" 
d="M202 560h-133q-1 84 54 138.5t145 54.5q83 0 140 -54t57 -143q0 -38 -16 -72.5t-48 -59.5q57 -24 87 -76t30 -121q0 -109 -73 -176.5t-179 -68.5q-105 1 -175 67.5t-76 169.5h133q5 -52 38 -82t81 -29q51 0 84.5 34.5t33.5 85.5q0 59 -36 92t-109 34h-23v126h19
q50 0 73 20.5t23 56.5q0 30 -17 50t-45 20q-31 0 -50 -19.5t-18 -47.5z" />
    <glyph glyph-name="four" unicode="4" horiz-adv-x="560" 
d="M319 0v110h-319v109l340 521h112v-504h78v-126h-78v-110h-133zM319 236v278l-177 -278h177z" />
    <glyph glyph-name="five" unicode="5" horiz-adv-x="560" 
d="M45 352l70 388h341l-7 -126h-235l-23 -137q21 10 43.5 15.5t48.5 5.5q105 0 171 -75.5t66 -181.5q0 -111 -72.5 -185t-182.5 -74q-107 0 -175 67.5t-78 169.5h133q7 -49 39 -80t80 -31q54 0 88.5 36.5t34.5 98.5q0 55 -34.5 92t-89.5 37q-31 0 -57.5 -15t-41.5 -38z" />
    <glyph glyph-name="six" unicode="6" horiz-adv-x="560" 
d="M287 740h157l-165 -252q8 1 16.5 2t20.5 1q91 0 154.5 -67.5t63.5 -178.5q0 -113 -70.5 -188t-184.5 -75q-113 0 -185 74.5t-72 189.5q0 43 13.5 86.5t40.5 84.5zM278 371q-57 0 -90 -37.5t-33 -92.5q0 -59 33.5 -96t89.5 -37q55 0 89 37t34 96q0 55 -33.5 92.5
t-89.5 37.5z" />
    <glyph glyph-name="seven" unicode="7" horiz-adv-x="560" 
d="M85 0l276 614h-296v126h435v-126l-267 -614h-148z" />
    <glyph glyph-name="eight" unicode="8" horiz-adv-x="560" 
d="M155 411q-34 22 -54 59t-20 80q0 88 56 145.5t143 57.5t143 -57.5t56 -145.5q0 -43 -19.5 -78.5t-54.5 -60.5q56 -26 88.5 -75t32.5 -115q-1 -107 -71.5 -173t-174.5 -66q-105 0 -175.5 66t-70.5 173q0 67 32.5 116t88.5 74zM280 341q-49 -1 -81 -35t-32 -83
q0 -50 32 -82.5t81 -32.5q48 0 80.5 32.5t32.5 82.5q0 49 -32.5 83.5t-80.5 34.5zM281 627q-34 0 -56.5 -23t-22.5 -57q0 -35 22.5 -57.5t56.5 -22.5q32 0 54 22.5t23 57.5q0 34 -22.5 57t-54.5 23z" />
    <glyph glyph-name="nine" unicode="9" horiz-adv-x="560" 
d="M269 0h-157l169 251q-9 -2 -20 -3t-21 0q-91 -1 -154.5 67t-63.5 177q0 112 70.5 186t184.5 75q113 0 185 -74t72 -188q0 -45 -13.5 -88t-55.5 -107zM278 368q55 0 89 36.5t34 91.5q0 57 -34 93.5t-89 37.5q-57 0 -90 -37t-33 -94q0 -61 36 -94.5t87 -33.5z" />
    <glyph glyph-name="colon" unicode=":" horiz-adv-x="280" 
d="M73 0v133h133v-133h-133zM73 369v133h133v-133h-133z" />
    <glyph glyph-name="semicolon" unicode=";" horiz-adv-x="280" 
d="M73 0v133h133v-128q0 -46 -9 -69t-27 -40q-18 -16 -43.5 -25.5t-51.5 -10.5v67q24 0 40.5 15.5t16.5 40.5v17h-59zM73 369v133h133v-133h-133z" />
    <glyph glyph-name="less" unicode="&#x3c;" 
d="M190 316l362 -163v-111l-509 225v98l509 225v-111z" />
    <glyph glyph-name="equal" unicode="=" 
d="M552 473v-115h-504v115h504zM552 278v-115h-504v115h504z" />
    <glyph glyph-name="greater" unicode="&#x3e;" 
d="M410 316l-362 163v111l509 -225v-98l-509 -225v111z" />
    <glyph glyph-name="question" unicode="?" horiz-adv-x="560" 
d="M194 0v127h133v-127h-133zM171 522h-133q-2 104 62 167.5t164 63.5q103 0 165 -61t62 -170q0 -40 -12.5 -71.5t-88.5 -106.5q-38 -38 -52 -75.5t-11 -80.5h-133q-4 66 15 118t59 92q80 82 85 95t5 31q0 45 -24 74t-70 29q-43 0 -68.5 -31t-24.5 -74z" />
    <glyph glyph-name="at" unicode="@" horiz-adv-x="740" 
d="M564 96l36 -56q-46 -30 -101 -44t-112 -14q-169 0 -276.5 108.5t-107.5 276.5q0 169 108 277.5t281 108.5q147 0 250 -86.5t103 -244.5q0 -122 -69.5 -197.5t-150.5 -75.5q-29 -1 -49.5 12t-30.5 36q-25 -25 -56.5 -36.5t-61.5 -11.5q-70 0 -118 48.5t-48 131.5
q0 96 58 165t150 69q42 0 73.5 -16t50.5 -44l11 51h96l-54 -277q-1 -5 -2 -13.5t-1 -11.5q0 -2 0.5 -4t1.5 -3q2 -5 6.5 -7t11.5 -1q40 0 72.5 53t33.5 133q0 114 -76.5 187t-203.5 73q-136 0 -223.5 -90t-86.5 -226q0 -142 92 -228.5t227 -86.5q41 0 82.5 10.5t83.5 33.5z
M361 256q21 0 42.5 10t35.5 26q12 14 19 34t7 43q0 41 -21 63.5t-55 23.5q-42 -1 -74.5 -32t-31.5 -83q0 -39 20.5 -62t57.5 -23z" />
    <glyph glyph-name="A" unicode="A" horiz-adv-x="740" 
d="M7 0l308 740h110l308 -740h-151l-76 191h-272l-76 -191h-151zM286 324h168l-84 216z" />
    <glyph glyph-name="B" unicode="B" horiz-adv-x="580" 
d="M68 0v740h178q129 -1 193 -52.5t64 -142.5q0 -50 -22 -85.5t-59 -55.5q59 -20 92.5 -68t33.5 -111q0 -108 -74 -166.5t-221 -58.5h-185zM205 133h89q56 -1 86.5 24t30.5 69t-30 69.5t-87 26.5h-89v-189zM205 455h64q47 0 71.5 20.5t25.5 55.5q0 38 -25 57t-72 19h-64
v-152z" />
    <glyph glyph-name="C" unicode="C" horiz-adv-x="780" 
d="M760 528h-156q-35 44 -83 68t-103 24q-109 0 -180 -75t-71 -175q0 -105 73 -180.5t179 -74.5q51 0 97.5 21t80.5 65h159q-48 -101 -136.5 -160t-204.5 -59q-163 0 -274 112t-111 276q0 159 111.5 271t275.5 112q115 0 205.5 -59.5t137.5 -165.5z" />
    <glyph glyph-name="D" unicode="D" horiz-adv-x="700" 
d="M68 0v740h205q185 0 291 -94.5t106 -279.5q0 -163 -98 -264.5t-296 -101.5h-208zM205 133h67q126 -1 193 56t68 177q0 124 -69.5 182.5t-198.5 58.5h-60v-474z" />
    <glyph glyph-name="E" unicode="E" horiz-adv-x="520" 
d="M68 0v740h397v-133h-260v-171h249v-133h-249v-170h260v-133h-397z" />
    <glyph glyph-name="F" unicode="F" horiz-adv-x="480" 
d="M68 0v740h376v-133h-239v-171h228v-133h-228v-303h-137z" />
    <glyph glyph-name="G" unicode="G" horiz-adv-x="840" 
d="M336 377h482q-3 -174 -110 -284.5t-283 -110.5q-170 0 -283 107.5t-112 275.5q0 166 114 277t279 111q127 0 222 -61.5t136 -169.5h-164q-31 49 -81.5 73.5t-112.5 24.5q-110 0 -183 -71t-73 -179q-1 -102 70 -178.5t192 -76.5q71 -1 129 32.5t87 100.5h-309v129z" />
    <glyph glyph-name="H" unicode="H" horiz-adv-x="680" 
d="M68 0v740h137v-297h270v297h137v-740h-137v310h-270v-310h-137z" />
    <glyph glyph-name="I" unicode="I" horiz-adv-x="280" 
d="M71 0v740h137v-740h-137z" />
    <glyph glyph-name="J" unicode="J" horiz-adv-x="480" 
d="M412 740v-522q0 -120 -53 -178t-146 -58q-84 0 -144 53.5t-62 134.5h137q3 -27 18 -41t45 -14q36 0 51.5 21t16.5 73v531h137z" />
    <glyph glyph-name="K" unicode="K" horiz-adv-x="620" 
d="M68 0v740h137v-321l230 321h164l-279 -364l279 -376h-164l-230 324v-324h-137z" />
    <glyph glyph-name="L" unicode="L" horiz-adv-x="440" 
d="M68 0v740h137v-607h226v-133h-363z" />
    <glyph glyph-name="M" unicode="M" horiz-adv-x="900" 
d="M68 0v740h186l196 -566l196 566h186v-740h-137v554l-187 -554h-116l-187 554v-554h-137z" />
    <glyph glyph-name="N" unicode="N" horiz-adv-x="740" 
d="M68 0v740h137l330 -500v500h137v-740h-137l-330 500v-500h-137z" />
    <glyph glyph-name="O" unicode="O" horiz-adv-x="840" 
d="M420 753q165 0 277.5 -113t112.5 -274t-113 -272.5t-277 -111.5q-165 0 -278 111.5t-112 272.5q0 161 112 274t278 113zM419 115q108 0 181 74.5t73 179.5q0 104 -73 177.5t-180 73.5q-108 0 -180.5 -73.5t-72.5 -177.5q0 -106 72.5 -180t179.5 -74z" />
    <glyph glyph-name="P" unicode="P" horiz-adv-x="560" 
d="M68 0v740h207q127 -1 196 -62.5t69 -168.5q0 -101 -67 -165t-198 -64h-70v-280h-137zM205 607v-194h81q56 0 86 24t31 73q0 48 -30.5 72.5t-86.5 24.5h-81z" />
    <glyph glyph-name="Q" unicode="Q" horiz-adv-x="840" 
d="M826 105v-123q-57 -1 -106 13.5t-86 42.5q-46 -27 -100 -41.5t-112 -14.5q-162 0 -277 111t-115 272q0 169 111 278.5t276 109.5q169 0 281 -107t112 -281q0 -68 -20.5 -128.5t-64.5 -111.5q20 -12 45.5 -17t55.5 -3zM211 224q35 -52 95 -80.5t129 -28.5q21 -1 42.5 5.5
t41.5 18.5q-56 44 -120.5 70.5t-119.5 26.5q-19 -1 -35.5 -3.5t-32.5 -8.5zM169 334q25 6 49 9.5t53 3.5q97 0 184.5 -38t160.5 -105q27 29 41.5 69t15.5 90q0 112 -72.5 184.5t-178.5 72.5q-111 0 -183 -71t-72 -175v-22.5t2 -17.5z" />
    <glyph glyph-name="R" unicode="R" horiz-adv-x="580" 
d="M68 0v740h214q134 0 206 -63t72 -172q0 -91 -55.5 -157.5t-144.5 -74.5l208 -273h-169l-192 273h-2v-273h-137zM205 607v-220h81q63 0 100 26.5t37 83.5q-1 56 -37.5 83t-99.5 27h-81z" />
    <glyph glyph-name="S" unicode="S" horiz-adv-x="520" 
d="M14 208h143q1 -43 29.5 -68t69.5 -25q44 0 72 26t28 67q0 40 -26 69.5t-82 48.5q-57 18 -62 20t-10 5q-69 28 -102 79t-33 113q0 90 63.5 150t156.5 60q89 0 149 -58t65 -152h-141q-1 34 -22 55.5t-55 21.5q-35 -1 -57.5 -21.5t-21.5 -56.5q0 -32 20.5 -53t74.5 -37
q32 -11 45 -15.5t25 -8.5q68 -28 109 -81t41 -131q0 -100 -68 -167t-172 -67q-103 0 -171 65t-68 161z" />
    <glyph glyph-name="T" unicode="T" horiz-adv-x="420" 
d="M142 0v607h-137v133h411v-133h-137v-607h-137z" />
    <glyph glyph-name="U" unicode="U" horiz-adv-x="640" 
d="M68 740h137v-467q-1 -83 27.5 -120.5t88.5 -37.5q59 0 86.5 37t27.5 121v467h137v-462q0 -135 -64.5 -215.5t-187.5 -80.5q-113 0 -182.5 73.5t-69.5 222.5v462z" />
    <glyph glyph-name="V" unicode="V" horiz-adv-x="700" 
d="M293 0l-286 740h144l199 -563l199 563h144l-286 -740h-114z" />
    <glyph glyph-name="W" unicode="W" horiz-adv-x="900" 
d="M220 0l-215 740h140l129 -518l126 518h100l126 -518l129 518h140l-215 -740h-109l-121 489l-121 -489h-109z" />
    <glyph glyph-name="X" unicode="X" horiz-adv-x="680" 
d="M5 0l255 370l-255 370h160l175 -257l176 257h160l-256 -370l256 -370h-160l-176 256l-175 -256h-160z" />
    <glyph glyph-name="Y" unicode="Y" horiz-adv-x="620" 
d="M242 0v273l-243 467h150l162 -341l161 341h150l-243 -467v-273h-137z" />
    <glyph glyph-name="Z" unicode="Z" horiz-adv-x="500" 
d="M18 0v133l282 474h-266v133h430v-133l-282 -474h298v-133h-462z" />
    <glyph glyph-name="bracketleft" unicode="[" horiz-adv-x="320" 
d="M292 15v-143q-51 10 -94 36t-70 63q-29 38 -41.5 85t-12.5 118v264q0 70 12.5 117t41.5 86q27 37 70 63t94 36v-143q-45 -15 -63.5 -51t-17.5 -108v-264q-1 -73 17.5 -109t63.5 -50z" />
    <glyph glyph-name="backslash" unicode="\" horiz-adv-x="640" 
d="M399 0l-315 740h104l315 -740h-104z" />
    <glyph glyph-name="bracketright" unicode="]" horiz-adv-x="320" 
d="M28 597v143q50 -10 93 -36t71 -63q28 -39 40.5 -86t13.5 -117v-264q-1 -71 -13.5 -118t-40.5 -85q-28 -37 -71 -63t-93 -36v143q44 14 62 50t19 109v264q-1 72 -19 108t-62 51z" />
    <glyph glyph-name="asciicircum" unicode="^" 
d="M300 594l-156 -414h-134l230 560h120l230 -560h-134z" />
    <glyph glyph-name="underscore" unicode="_" horiz-adv-x="500" 
d="M500 -138h-500v90h500v-90z" />
    <glyph glyph-name="grave" unicode="`" horiz-adv-x="420" 
d="M124 840l222 -135l-53 -92l-226 125z" />
    <glyph glyph-name="a" unicode="a" horiz-adv-x="660" 
d="M606 554v-554h-122v75h-2q-35 -47 -83.5 -69.5t-101.5 -23.5q-111 0 -191 80t-80 210q0 129 79.5 214.5t195.5 85.5q58 0 104.5 -24.5t76.5 -71.5h2v78h122zM322 446q-72 0 -117.5 -49.5t-45.5 -124.5q-1 -72 44.5 -118t118.5 -46q71 0 115 47t44 123q0 72 -44 120
t-115 48z" />
    <glyph glyph-name="b" unicode="b" horiz-adv-x="660" 
d="M54 740h133v-244h2q31 36 74.5 56t94.5 20q121 0 198.5 -81.5t77.5 -213.5q0 -129 -77.5 -212t-194.5 -83q-62 0 -109 25t-75 68h-2v-75h-122v740zM344 446q-70 0 -117.5 -46.5t-47.5 -115.5q0 -75 46.5 -125.5t118.5 -50.5q69 0 113 47.5t44 120.5q0 74 -43.5 122
t-113.5 48z" />
    <glyph glyph-name="c" unicode="c" horiz-adv-x="640" 
d="M460 180h150q-33 -91 -103.5 -144.5t-170.5 -53.5q-132 0 -219 84t-87 215q0 124 85.5 207.5t215.5 83.5q103 0 177 -55t102 -147h-150q-20 37 -53.5 56t-77.5 20q-77 0 -121.5 -48.5t-44.5 -118.5q0 -74 45.5 -123t120.5 -48q42 0 76.5 17.5t54.5 54.5z" />
    <glyph glyph-name="d" unicode="d" horiz-adv-x="660" 
d="M606 740v-740h-122v75h-2q-33 -46 -79.5 -69t-102.5 -24q-113 0 -193.5 84t-80.5 209q-1 128 80 212.5t198 84.5q54 -1 96 -20.5t71 -54.5h2v243h133zM319 446q-69 0 -114.5 -47.5t-45.5 -121.5q0 -73 44.5 -121t115.5 -48q70 -1 116 47t46 122q0 73 -46.5 121t-115.5 48
z" />
    <glyph glyph-name="e" unicode="e" horiz-adv-x="640" 
d="M607 218h-434q12 -51 51.5 -80.5t93.5 -29.5q40 -1 71.5 12.5t52.5 39.5h150q-35 -83 -106 -130.5t-163 -47.5q-125 0 -209 84t-84 207t84.5 211t210.5 88q125 0 204.5 -85t80.5 -210q0 -20 -1 -33.5t-2 -25.5zM171 336h300q-14 51 -54 80.5t-92 29.5q-55 -1 -96.5 -30.5
t-57.5 -79.5z" />
    <glyph glyph-name="f" unicode="f" horiz-adv-x="280" 
d="M57 0v436h-47v118h47v6q-1 90 51.5 140.5t140.5 51.5h25v-133h-17q-30 -1 -48.5 -17t-18.5 -42v-6h84v-118h-84v-436h-133z" />
    <glyph glyph-name="g" unicode="g" horiz-adv-x="660" 
d="M606 554v-470q0 -141 -87.5 -220t-210.5 -79q-101 0 -177 54t-100 149h153q12 -38 47 -57t77 -20q68 0 116 44.5t49 105.5v20h-2q-28 -41 -69.5 -64t-95.5 -23q-116 0 -198 85t-82 206q0 125 83 206t200 81q58 0 102 -24t71 -70h2v76h122zM320 446q-76 0 -118.5 -47.5
t-42.5 -112.5q0 -70 42.5 -118t118.5 -48q72 0 116.5 46t44.5 115q0 74 -44.5 119.5t-116.5 45.5z" />
    <glyph glyph-name="h" unicode="h" 
d="M54 0v740h133v-228q25 30 62.5 45t80.5 15q97 0 156 -66.5t60 -181.5v-324h-133v294q-1 76 -30 114t-81 38q-58 0 -87 -39t-28 -113v-294h-133z" />
    <glyph glyph-name="i" unicode="i" horiz-adv-x="240" 
d="M54 0v554h133v-554h-133zM54 618v122h133v-122h-133z" />
    <glyph glyph-name="j" unicode="j" horiz-adv-x="260" 
d="M206 554v-526q0 -107 -53 -159.5t-135 -53.5v129q26 -3 40.5 14.5t14.5 69.5v526h133zM73 618v122h133v-122h-133z" />
    <glyph glyph-name="k" unicode="k" horiz-adv-x="580" 
d="M54 0v740h133v-447l178 261h157l-200 -271l233 -283h-178l-190 259v-259h-133z" />
    <glyph glyph-name="l" unicode="l" horiz-adv-x="240" 
d="M54 0v740h133v-740h-133z" />
    <glyph glyph-name="m" unicode="m" horiz-adv-x="940" 
d="M54 0v554h122v-51h2q23 33 61.5 51t82.5 18q51 0 94 -23.5t68 -62.5q31 42 75.5 64t101.5 22q102 0 164 -66.5t62 -181.5v-324h-133v294q0 75 -27 113.5t-82 38.5q-55 -1 -81.5 -39t-26.5 -113v-294h-133v294q0 75 -27 113.5t-82 38.5t-82 -38.5t-26 -113.5v-294h-133z
" />
    <glyph glyph-name="n" unicode="n" 
d="M54 0v554h122v-51h2q26 33 64.5 51t87.5 18q97 0 156.5 -66.5t59.5 -181.5v-324h-133v294q-1 76 -30 114t-81 38q-58 0 -87 -39t-28 -113v-294h-133z" />
    <glyph glyph-name="o" unicode="o" horiz-adv-x="640" 
d="M320 572q125 0 209.5 -87t84.5 -209q0 -123 -84.5 -208.5t-209.5 -85.5q-126 0 -210 85.5t-84 208.5q0 122 84 209t210 87zM320 446q-72 0 -116.5 -50t-44.5 -120q-1 -70 44 -119t117 -49q71 -1 116 48.5t45 119.5t-45 120t-116 50z" />
    <glyph glyph-name="p" unicode="p" horiz-adv-x="660" 
d="M54 -185v739h122v-72h2q25 41 72 65.5t106 24.5q116 0 197 -82t81 -213q0 -121 -76 -208t-202 -87q-49 0 -92.5 18.5t-74.5 59.5h-2v-245h-133zM342 446q-73 -1 -118 -48.5t-45 -120.5q0 -78 44 -123.5t114 -45.5q71 0 117 48t47 122q-1 72 -45.5 120t-113.5 48z" />
    <glyph glyph-name="q" unicode="q" horiz-adv-x="660" 
d="M606 554v-739h-133v245h-2q-28 -38 -70 -58t-97 -20q-123 0 -200.5 82.5t-77.5 212.5q0 129 81.5 212t195.5 83q61 0 106.5 -24t72.5 -66h2v72h122zM319 446q-72 0 -116 -47.5t-44 -121.5q-1 -72 41.5 -120.5t118.5 -48.5q71 0 116.5 47.5t45.5 119.5q-1 75 -46 122.5
t-116 48.5z" />
    <glyph glyph-name="r" unicode="r" horiz-adv-x="320" 
d="M54 0v554h122v-50h2q19 35 53.5 53t74.5 15v-129q-58 0 -89 -34.5t-30 -109.5v-299h-133z" />
    <glyph glyph-name="s" unicode="s" horiz-adv-x="440" 
d="M19 174h133q1 -31 21.5 -48.5t51.5 -17.5q27 -1 44.5 14t17.5 43q-1 18 -11 31.5t-39 25.5q-6 2 -12.5 4t-44.5 15q-74 23 -107.5 62t-33.5 98q0 72 53 121.5t134 49.5q75 0 125 -47.5t54 -122.5h-133q-3 21 -16 32.5t-34 11.5q-23 0 -36.5 -13t-13.5 -34q0 -22 16 -36
t69 -26q88 -22 125.5 -61t37.5 -103q0 -82 -56 -136.5t-144 -54.5q-93 0 -147 56.5t-54 135.5z" />
    <glyph glyph-name="t" unicode="t" horiz-adv-x="300" 
d="M74 0v436h-65v118h65v186h133v-186h80v-118h-80v-436h-133z" />
    <glyph glyph-name="u" unicode="u" 
d="M546 554v-554h-122v51h-2q-27 -33 -63.5 -51t-80.5 -18q-113 0 -169 69.5t-55 202.5v300h133v-282q-1 -86 27 -125.5t86 -38.5q57 -1 85 38.5t28 125.5v282h133z" />
    <glyph glyph-name="v" unicode="v" horiz-adv-x="560" 
d="M225 0l-224 554h148l128 -364l128 364h148l-224 -554h-104z" />
    <glyph glyph-name="w" unicode="w" horiz-adv-x="799" 
d="M210 0l-200 554h141l102 -338l92 338h104l92 -338l102 338h141l-200 -554h-82l-105 359l-105 -359h-82z" />
    <glyph glyph-name="x" unicode="x" horiz-adv-x="560" 
d="M4 0l187 284l-172 270h155l105 -166l105 166h155l-176 -270l193 -284h-164l-112 179l-112 -179h-164z" />
    <glyph glyph-name="y" unicode="y" horiz-adv-x="580" 
d="M417 554h151l-318 -739h-143l102 237l-203 502h151l127 -355z" />
    <glyph glyph-name="z" unicode="z" horiz-adv-x="460" 
d="M20 0v118l246 318h-218v118h377v-118l-246 -318h263v-118h-422z" />
    <glyph glyph-name="braceleft" unicode="{" horiz-adv-x="340" 
d="M36 261v90q18 0 35.5 9t29.5 26q9 13 13 28.5t5 45.5v146q-1 45 8 68t30 40q15 12 37 18.5t54 7.5h56v-90h-10q-36 0 -54 -19t-18 -70v-127q0 -61 -23 -91.5t-67 -35.5v-2q44 -6 66.5 -36.5t23.5 -90.5v-127q-1 -51 17.5 -70t54.5 -19h10v-90h-56q-32 0 -54 7t-37 19
q-21 17 -29.5 40t-8.5 68v146q0 29 -4.5 44.5t-13.5 29.5q-12 16 -29.5 25t-35.5 10z" />
    <glyph glyph-name="bar" unicode="|" 
d="M241 0v740h119v-740h-119z" />
    <glyph glyph-name="braceright" unicode="}" horiz-adv-x="340" 
d="M304 351v-90q-19 -1 -36.5 -10t-28.5 -25q-10 -14 -14.5 -29.5t-3.5 -44.5v-146q0 -45 -9 -68t-29 -40q-16 -12 -38 -19t-53 -7h-56v90h10q35 1 53 19.5t19 69.5v127q-1 60 22 90.5t68 36.5v2q-45 5 -68 35.5t-22 91.5v127q-1 51 -19 70t-53 19h-10v90h56q31 0 53 -7
t38 -19q20 -17 28.5 -40t9.5 -68v-146q-1 -30 3.5 -45.5t14.5 -28.5q11 -17 28.5 -26t36.5 -9z" />
    <glyph glyph-name="asciitilde" unicode="~" 
d="M488 421l64 -73q-35 -64 -69 -91t-75 -26q-26 0 -58.5 9.5t-75.5 32.5q-27 13 -44 18.5t-31 5.5q-24 0 -47 -20.5t-40 -61.5l-64 74q29 62 68 92.5t81 31.5q24 0 56.5 -10.5t83.5 -34.5q24 -12 40 -17t30 -4q21 0 40.5 17t40.5 57z" />
    <glyph glyph-name="afii10017" unicode="&#xc0;" horiz-adv-x="740" 
d="M7 0l308 740h110l308 -740h-151l-76 191h-272l-76 -191h-151zM286 324h168l-84 216z" />
    <glyph glyph-name="afii10017" unicode="&#x410;" horiz-adv-x="740" 
d="M7 0l308 740h110l308 -740h-151l-76 191h-272l-76 -191h-151zM286 324h168l-84 216z" />
    <glyph glyph-name="afii10018" unicode="&#xc1;" 
d="M68 740h432v-133h-295v-152h118q124 0 184.5 -66t60.5 -162q0 -101 -68.5 -164t-176.5 -63h-255v740zM205 322v-189h119q47 -1 76.5 24.5t30.5 69.5q0 39 -27.5 66.5t-79.5 28.5h-119z" />
    <glyph glyph-name="afii10018" unicode="&#x411;" 
d="M68 740h432v-133h-295v-152h118q124 0 184.5 -66t60.5 -162q0 -101 -68.5 -164t-176.5 -63h-255v740zM205 322v-189h119q47 -1 76.5 24.5t30.5 69.5q0 39 -27.5 66.5t-79.5 28.5h-119z" />
    <glyph glyph-name="afii10019" unicode="&#xc2;" horiz-adv-x="580" 
d="M68 0v740h178q129 -1 193 -52.5t64 -142.5q0 -50 -22 -85.5t-59 -55.5q59 -20 92.5 -68t33.5 -111q0 -108 -74 -166.5t-221 -58.5h-185zM205 133h89q56 -1 86.5 24t30.5 69t-30 69.5t-87 26.5h-89v-189zM205 455h64q47 0 71.5 20.5t25.5 55.5q0 38 -25 57t-72 19h-64
v-152z" />
    <glyph glyph-name="afii10019" unicode="&#x412;" horiz-adv-x="580" 
d="M68 0v740h178q129 -1 193 -52.5t64 -142.5q0 -50 -22 -85.5t-59 -55.5q59 -20 92.5 -68t33.5 -111q0 -108 -74 -166.5t-221 -58.5h-185zM205 133h89q56 -1 86.5 24t30.5 69t-30 69.5t-87 26.5h-89v-189zM205 455h64q47 0 71.5 20.5t25.5 55.5q0 38 -25 57t-72 19h-64
v-152z" />
    <glyph glyph-name="afii10020" unicode="&#xc3;" horiz-adv-x="440" 
d="M68 0v740h370v-133h-233v-607h-137z" />
    <glyph glyph-name="afii10020" unicode="&#x413;" horiz-adv-x="440" 
d="M68 0v740h370v-133h-233v-607h-137z" />
    <glyph glyph-name="afii10021" unicode="&#xc4;" horiz-adv-x="820" 
d="M471 740l274 -607h69v-273h-137v140h-534v-140h-137v273h71l274 607h120zM228 133h366l-183 417z" />
    <glyph glyph-name="afii10021" unicode="&#x414;" horiz-adv-x="820" 
d="M471 740l274 -607h69v-273h-137v140h-534v-140h-137v273h71l274 607h120zM228 133h366l-183 417z" />
    <glyph glyph-name="afii10022" unicode="&#xc5;" horiz-adv-x="520" 
d="M68 0v740h397v-133h-260v-171h249v-133h-249v-170h260v-133h-397z" />
    <glyph glyph-name="afii10022" unicode="&#x415;" horiz-adv-x="520" 
d="M68 0v740h397v-133h-260v-171h249v-133h-249v-170h260v-133h-397z" />
    <glyph glyph-name="afii10024" unicode="&#xc6;" horiz-adv-x="940" 
d="M401 0v324l-216 -324h-164l265 380l-259 360h158l216 -321v321h137v-321l216 321h158l-259 -356l265 -384h-164l-216 324v-324h-137z" />
    <glyph glyph-name="afii10024" unicode="&#x416;" horiz-adv-x="940" 
d="M401 0v324l-216 -324h-164l265 380l-259 360h158l216 -321v321h137v-321l216 321h158l-259 -356l265 -384h-164l-216 324v-324h-137z" />
    <glyph glyph-name="afii10025" unicode="&#xc7;" horiz-adv-x="560" 
d="M54 548q0 88 59.5 146.5t169.5 58.5q98 0 160.5 -55.5t62.5 -147.5q0 -55 -29.5 -97t-76.5 -64q62 -16 96 -65.5t34 -116.5q-1 -101 -71.5 -159.5t-183.5 -58.5q-110 0 -181.5 64.5t-63.5 174.5h137q0 -46 28 -76t85 -30q52 0 82.5 24.5t30.5 70.5q0 45 -28.5 72
t-74.5 27h-70v133h60q41 -1 65 21.5t24 61.5q0 41 -23.5 64.5t-63.5 23.5q-39 0 -64 -19.5t-27 -52.5h-137z" />
    <glyph glyph-name="afii10025" unicode="&#x417;" horiz-adv-x="560" 
d="M54 548q0 88 59.5 146.5t169.5 58.5q98 0 160.5 -55.5t62.5 -147.5q0 -55 -29.5 -97t-76.5 -64q62 -16 96 -65.5t34 -116.5q-1 -101 -71.5 -159.5t-183.5 -58.5q-110 0 -181.5 64.5t-63.5 174.5h137q0 -46 28 -76t85 -30q52 0 82.5 24.5t30.5 70.5q0 45 -28.5 72
t-74.5 27h-70v133h60q41 -1 65 21.5t24 61.5q0 41 -23.5 64.5t-63.5 23.5q-39 0 -64 -19.5t-27 -52.5h-137z" />
    <glyph glyph-name="afii10026" unicode="&#xc8;" horiz-adv-x="740" 
d="M68 740h137v-520l330 520h137v-740h-137v520l-330 -520h-137v740z" />
    <glyph glyph-name="afii10026" unicode="&#x418;" horiz-adv-x="740" 
d="M68 740h137v-520l330 520h137v-740h-137v520l-330 -520h-137v740z" />
    <glyph glyph-name="afii10027" unicode="&#xc9;" horiz-adv-x="740" 
d="M68 740h137v-520l330 520h137v-740h-137v520l-330 -520h-137v740zM190 920h115q3 -23 20 -36.5t45 -13.5q27 -1 44 13t21 37h115q-10 -62 -58.5 -101t-121.5 -39q-74 0 -122.5 39t-57.5 101z" />
    <glyph glyph-name="afii10027" unicode="&#x419;" horiz-adv-x="740" 
d="M68 740h137v-520l330 520h137v-740h-137v520l-330 -520h-137v740zM190 920h115q3 -23 20 -36.5t45 -13.5q27 -1 44 13t21 37h115q-10 -62 -58.5 -101t-121.5 -39q-74 0 -122.5 39t-57.5 101z" />
    <glyph glyph-name="afii10028" unicode="&#xca;" horiz-adv-x="620" 
d="M68 0v740h137v-321l230 321h164l-279 -364l279 -376h-164l-230 324v-324h-137z" />
    <glyph glyph-name="afii10028" unicode="&#x41a;" horiz-adv-x="620" 
d="M68 0v740h137v-321l230 321h164l-279 -364l279 -376h-164l-230 324v-324h-137z" />
    <glyph glyph-name="afii10029" unicode="&#xcb;" horiz-adv-x="720" 
d="M420 740l293 -740h-151l-202 550l-202 -550h-151l293 740h120z" />
    <glyph glyph-name="afii10029" unicode="&#x41b;" horiz-adv-x="720" 
d="M420 740l293 -740h-151l-202 550l-202 -550h-151l293 740h120z" />
    <glyph glyph-name="afii10030" unicode="&#xcc;" horiz-adv-x="920" 
d="M68 0v740h186l206 -566l206 566h186v-740h-137v554l-197 -554h-116l-197 554v-554h-137z" />
    <glyph glyph-name="afii10030" unicode="&#x41c;" horiz-adv-x="920" 
d="M68 0v740h186l206 -566l206 566h186v-740h-137v554l-197 -554h-116l-197 554v-554h-137z" />
    <glyph glyph-name="afii10031" unicode="&#xcd;" horiz-adv-x="680" 
d="M68 0v740h137v-297h270v297h137v-740h-137v310h-270v-310h-137z" />
    <glyph glyph-name="afii10031" unicode="&#x41d;" horiz-adv-x="680" 
d="M68 0v740h137v-297h270v297h137v-740h-137v310h-270v-310h-137z" />
    <glyph glyph-name="afii10032" unicode="&#xce;" horiz-adv-x="840" 
d="M420 753q165 0 277.5 -113t112.5 -274t-113 -272.5t-277 -111.5q-165 0 -278 111.5t-112 272.5q0 161 112 274t278 113zM419 115q108 0 181 74.5t73 179.5q0 104 -73 177.5t-180 73.5q-108 0 -180.5 -73.5t-72.5 -177.5q0 -106 72.5 -180t179.5 -74z" />
    <glyph glyph-name="afii10032" unicode="&#x41e;" horiz-adv-x="840" 
d="M420 753q165 0 277.5 -113t112.5 -274t-113 -272.5t-277 -111.5q-165 0 -278 111.5t-112 272.5q0 161 112 274t278 113zM419 115q108 0 181 74.5t73 179.5q0 104 -73 177.5t-180 73.5q-108 0 -180.5 -73.5t-72.5 -177.5q0 -106 72.5 -180t179.5 -74z" />
    <glyph glyph-name="afii10033" unicode="&#xcf;" horiz-adv-x="680" 
d="M68 0v740h544v-740h-137v607h-270v-607h-137z" />
    <glyph glyph-name="afii10033" unicode="&#x41f;" horiz-adv-x="680" 
d="M68 0v740h544v-740h-137v607h-270v-607h-137z" />
    <glyph glyph-name="afii10034" unicode="&#xd0;" horiz-adv-x="560" 
d="M68 0v740h207q127 -1 196 -62.5t69 -168.5q0 -101 -67 -165t-198 -64h-70v-280h-137zM205 607v-194h81q56 0 86 24t31 73q0 48 -30.5 72.5t-86.5 24.5h-81z" />
    <glyph glyph-name="afii10034" unicode="&#x420;" horiz-adv-x="560" 
d="M68 0v740h207q127 -1 196 -62.5t69 -168.5q0 -101 -67 -165t-198 -64h-70v-280h-137zM205 607v-194h81q56 0 86 24t31 73q0 48 -30.5 72.5t-86.5 24.5h-81z" />
    <glyph glyph-name="afii10035" unicode="&#xd1;" horiz-adv-x="780" 
d="M760 528h-156q-35 44 -83 68t-103 24q-109 0 -180 -75t-71 -175q0 -105 73 -180.5t179 -74.5q51 0 97.5 21t80.5 65h159q-48 -101 -136.5 -160t-204.5 -59q-163 0 -274 112t-111 276q0 159 111.5 271t275.5 112q115 0 205.5 -59.5t137.5 -165.5z" />
    <glyph glyph-name="afii10035" unicode="&#x421;" horiz-adv-x="780" 
d="M760 528h-156q-35 44 -83 68t-103 24q-109 0 -180 -75t-71 -175q0 -105 73 -180.5t179 -74.5q51 0 97.5 21t80.5 65h159q-48 -101 -136.5 -160t-204.5 -59q-163 0 -274 112t-111 276q0 159 111.5 271t275.5 112q115 0 205.5 -59.5t137.5 -165.5z" />
    <glyph glyph-name="afii10036" unicode="&#xd2;" horiz-adv-x="420" 
d="M142 0v607h-137v133h411v-133h-137v-607h-137z" />
    <glyph glyph-name="afii10036" unicode="&#x422;" horiz-adv-x="420" 
d="M142 0v607h-137v133h411v-133h-137v-607h-137z" />
    <glyph glyph-name="afii10037" unicode="&#xd3;" horiz-adv-x="700" 
d="M691 740l-335 -740h-150l87 188l-284 552h166l195 -394l171 394h150z" />
    <glyph glyph-name="afii10037" unicode="&#x423;" horiz-adv-x="700" 
d="M691 740l-335 -740h-150l87 188l-284 552h166l195 -394l171 394h150z" />
    <glyph glyph-name="afii10038" unicode="&#xd4;" horiz-adv-x="860" 
d="M362 -37v104q-145 1 -238.5 91t-93.5 229q0 138 93.5 228t238.5 92v93h137v-93q144 -2 238 -92t94 -228q0 -139 -94 -229t-238 -91v-104h-137zM362 200v374q-89 1 -142.5 -54t-52.5 -133q0 -79 53 -134t142 -53zM499 574v-374q88 -2 141.5 53t53.5 134q0 78 -53.5 133
t-141.5 54z" />
    <glyph glyph-name="afii10038" unicode="&#x424;" horiz-adv-x="860" 
d="M362 -37v104q-145 1 -238.5 91t-93.5 229q0 138 93.5 228t238.5 92v93h137v-93q144 -2 238 -92t94 -228q0 -139 -94 -229t-238 -91v-104h-137zM362 200v374q-89 1 -142.5 -54t-52.5 -133q0 -79 53 -134t142 -53zM499 574v-374q88 -2 141.5 53t53.5 134q0 78 -53.5 133
t-141.5 54z" />
    <glyph glyph-name="afii10039" unicode="&#xd5;" horiz-adv-x="680" 
d="M5 0l255 370l-255 370h160l175 -257l176 257h160l-256 -370l256 -370h-160l-176 256l-175 -256h-160z" />
    <glyph glyph-name="afii10039" unicode="&#x425;" horiz-adv-x="680" 
d="M5 0l255 370l-255 370h160l175 -257l176 257h160l-256 -370l256 -370h-160l-176 256l-175 -256h-160z" />
    <glyph glyph-name="afii10040" unicode="&#xd6;" horiz-adv-x="700" 
d="M612 740v-607h84v-273h-137v140h-491v740h137v-607h270v607h137z" />
    <glyph glyph-name="afii10040" unicode="&#x426;" horiz-adv-x="700" 
d="M612 740v-607h84v-273h-137v140h-491v740h137v-607h270v607h137z" />
    <glyph glyph-name="afii10041" unicode="&#xd7;" horiz-adv-x="620" 
d="M552 740v-740h-137v280h-126q-68 -1 -110 11t-70 36q-34 27 -50.5 68.5t-16.5 107.5v237h137v-219q0 -37 6 -55t20 -30q12 -12 31.5 -17.5t51.5 -5.5h127v327h137z" />
    <glyph glyph-name="afii10041" unicode="&#x427;" horiz-adv-x="620" 
d="M552 740v-740h-137v280h-126q-68 -1 -110 11t-70 36q-34 27 -50.5 68.5t-16.5 107.5v237h137v-219q0 -37 6 -55t20 -30q12 -12 31.5 -17.5t51.5 -5.5h127v327h137z" />
    <glyph glyph-name="afii10042" unicode="&#xd8;" horiz-adv-x="1000" 
d="M68 740h137v-607h226v607h137v-607h226v607h137v-740h-863v740z" />
    <glyph glyph-name="afii10042" unicode="&#x428;" horiz-adv-x="1000" 
d="M68 740h137v-607h226v607h137v-607h226v607h137v-740h-863v740z" />
    <glyph glyph-name="afii10043" unicode="&#xd9;" horiz-adv-x="1020" 
d="M68 740h137v-607h226v607h137v-607h226v607h137v-607h84v-273h-137v140h-810v740z" />
    <glyph glyph-name="afii10043" unicode="&#x429;" horiz-adv-x="1020" 
d="M68 740h137v-607h226v607h137v-607h226v607h137v-607h84v-273h-137v140h-810v740z" />
    <glyph glyph-name="afii10044" unicode="&#xda;" horiz-adv-x="680" 
d="M8 740h297v-285h110q115 0 180 -61t65 -167q0 -101 -68.5 -164t-176.5 -63h-247v607h-160v133zM305 322v-189h111q47 0 77 25t30 69t-30 69.5t-77 25.5h-111z" />
    <glyph glyph-name="afii10044" unicode="&#x42a;" horiz-adv-x="680" 
d="M8 740h297v-285h110q115 0 180 -61t65 -167q0 -101 -68.5 -164t-176.5 -63h-247v607h-160v133zM305 322v-189h111q47 0 77 25t30 69t-30 69.5t-77 25.5h-111z" />
    <glyph glyph-name="afii10045" unicode="&#xdb;" horiz-adv-x="840" 
d="M68 740h137v-285h110q115 0 180 -61t65 -167q0 -101 -68.5 -164t-176.5 -63h-247v740zM205 322v-189h111q47 0 77 25t30 69q-1 44 -30.5 69.5t-76.5 25.5h-111zM635 0v740h137v-740h-137z" />
    <glyph glyph-name="afii10045" unicode="&#x42b;" horiz-adv-x="840" 
d="M68 740h137v-285h110q115 0 180 -61t65 -167q0 -101 -68.5 -164t-176.5 -63h-247v740zM205 322v-189h111q47 0 77 25t30 69q-1 44 -30.5 69.5t-76.5 25.5h-111zM635 0v740h137v-740h-137z" />
    <glyph glyph-name="afii10046" unicode="&#xdc;" horiz-adv-x="580" 
d="M68 740h137v-285h110q115 0 180 -61t65 -167q0 -101 -68.5 -164t-176.5 -63h-247v740zM205 322v-189h111q47 0 77 25t30 69q-1 44 -30.5 69.5t-76.5 25.5h-111z" />
    <glyph glyph-name="afii10046" unicode="&#x42c;" horiz-adv-x="580" 
d="M68 740h137v-285h110q115 0 180 -61t65 -167q0 -101 -68.5 -164t-176.5 -63h-247v740zM205 322v-189h111q47 0 77 25t30 69q-1 44 -30.5 69.5t-76.5 25.5h-111z" />
    <glyph glyph-name="afii10047" unicode="&#xdd;" horiz-adv-x="775" 
d="M176 528h-156q44 105 135 164.5t211 60.5q160 0 269.5 -109.5t109.5 -273.5q0 -167 -109 -277.5t-274 -110.5q-118 0 -205 59t-133 160h159q32 -43 82 -64.5t109 -21.5q83 0 149.5 51t84.5 139h-334v130h334q-24 89 -87 136.5t-146 48.5q-63 0 -113.5 -23t-85.5 -69z" />
    <glyph glyph-name="afii10047" unicode="&#x42d;" horiz-adv-x="775" 
d="M176 528h-156q44 105 135 164.5t211 60.5q160 0 269.5 -109.5t109.5 -273.5q0 -167 -109 -277.5t-274 -110.5q-118 0 -205 59t-133 160h159q32 -43 82 -64.5t109 -21.5q83 0 149.5 51t84.5 139h-334v130h334q-24 89 -87 136.5t-146 48.5q-63 0 -113.5 -23t-85.5 -69z" />
    <glyph glyph-name="afii10048" unicode="&#xde;" horiz-adv-x="1120" 
d="M205 445h123q26 140 134 223.5t243 84.5q162 0 273.5 -113t111.5 -274t-111.5 -272.5t-273.5 -111.5q-150 0 -256 94t-125 232h-119v-308h-137v740h137v-295zM704 115q105 -1 177 74t72 180q-1 104 -72.5 177.5t-175.5 73.5q-105 0 -177 -73.5t-71 -177.5
q-1 -105 71 -179.5t176 -74.5z" />
    <glyph glyph-name="afii10048" unicode="&#x42e;" horiz-adv-x="1120" 
d="M205 445h123q26 140 134 223.5t243 84.5q162 0 273.5 -113t111.5 -274t-111.5 -272.5t-273.5 -111.5q-150 0 -256 94t-125 232h-119v-308h-137v740h137v-295zM704 115q105 -1 177 74t72 180q-1 104 -72.5 177.5t-175.5 73.5q-105 0 -177 -73.5t-71 -177.5
q-1 -105 71 -179.5t176 -74.5z" />
    <glyph glyph-name="afii10049" unicode="&#xdf;" 
d="M532 740v-740h-137v287h-2l-198 -287h-160l204 273q-89 10 -144 70t-55 155q0 112 71.5 177t206.5 65h214zM395 607h-81q-69 0 -103 -28.5t-34 -81.5q-1 -54 33.5 -82t103.5 -28h81v220z" />
    <glyph glyph-name="afii10049" unicode="&#x42f;" 
d="M532 740v-740h-137v287h-2l-198 -287h-160l204 273q-89 10 -144 70t-55 155q0 112 71.5 177t206.5 65h214zM395 607h-81q-69 0 -103 -28.5t-34 -81.5q-1 -54 33.5 -82t103.5 -28h81v220z" />
    <glyph glyph-name="dagger" unicode="&#x2020;" horiz-adv-x="560" 
d="M348 740v-186h161v-118h-161v-564h-133v564h-163v118h163v186h133z" />
    <glyph glyph-name="degree" unicode="&#xb0;" horiz-adv-x="400" 
d="M350 590q0 -62 -44.5 -106t-105.5 -44q-63 0 -106.5 44t-43.5 106q-1 62 43 106t107 44q61 0 105.5 -44.5t44.5 -105.5zM290 590q0 37 -27 63t-64 27q-37 0 -63 -26.5t-26 -63.5t26.5 -63.5t63.5 -26.5q36 -1 63 26t27 64z" />
    <glyph glyph-name="afii10050" unicode="&#xa5;" horiz-adv-x="460" 
d="M68 0v740h253v130h137v-263h-253v-607h-137z" />
    <glyph glyph-name="afii10050" unicode="&#x490;" horiz-adv-x="460" 
d="M68 0v740h253v130h137v-263h-253v-607h-137z" />
    <glyph glyph-name="sterling" horiz-adv-x="560" 
d="M40 0v126h139q9 16 13 33.5t5 36.5q0 29 -14 58t-42 56h-141v125h58q-11 27 -14.5 44.5t-3.5 37.5q-3 105 67 171t180 65q95 -2 157 -62t70 -150h-134q-4 37 -30.5 61.5t-67.5 24.5q-53 0 -82.5 -35t-26.5 -84q1 -22 7.5 -40t19.5 -33h208v-125h-116q18 -27 28 -58.5
t10 -63.5q-1 -17 -3 -31.5t-7 -30.5h10q18 0 37.5 7t33.5 19t21.5 30t7.5 43q0 14 -2.5 25t-6.5 23h133q4 -12 6 -24.5t3 -26.5q0 -47 -20 -92t-59 -77q-35 -28 -73.5 -40.5t-99.5 -12.5h-271z" />
    <glyph glyph-name="section" unicode="&#xa7;" horiz-adv-x="560" 
d="M499 565h-125q-2 31 -23 50.5t-58 21.5q-34 0 -52.5 -15.5t-18.5 -39.5q0 -22 16 -40t52 -35l143 -72q45 -23 70.5 -59.5t25.5 -85.5q0 -38 -19 -73t-58 -67q24 -21 36.5 -52.5t12.5 -70.5q-1 -76 -59.5 -129.5t-154.5 -53.5q-95 0 -160 56.5t-69 154.5h132
q-1 -43 25 -68.5t68 -26.5q39 0 63.5 19t24.5 48q0 20 -12.5 36.5t-50.5 37.5l-158 83q-60 31 -85 70t-25 93q0 44 20 83t61 63q-15 18 -22 41.5t-7 52.5q0 72 54 119t148 47q92 -1 147.5 -54t57.5 -134zM221 289l152 -78q15 16 23.5 32.5t8.5 31.5q0 19 -12.5 34t-53.5 37
l-147 76q-15 -13 -21.5 -29.5t-6.5 -34.5q-1 -19 14 -37.5t43 -31.5z" />
    <glyph glyph-name="bullet" unicode="&#x2022;" 
d="M100 318q-1 82 58 141t142 59q82 0 140.5 -59t59.5 -141q0 -83 -59 -141.5t-141 -58.5q-83 0 -142 58.5t-58 141.5z" />
    <glyph glyph-name="paragraph" unicode="&#xb6;" 
d="M242 -128v458q-87 0 -146 57t-59 147q0 92 61 149t161 57h268v-868h-103v760h-82v-760h-100z" />
    <glyph glyph-name="afii10055" unicode="&#xb2;" horiz-adv-x="280" 
d="M71 0v740h137v-740h-137z" />
    <glyph glyph-name="afii10055" unicode="&#x406;" horiz-adv-x="280" 
d="M71 0v740h137v-740h-137z" />
    <glyph glyph-name="registered" unicode="&#xae;" horiz-adv-x="740" 
d="M371 -18q-160 0 -272.5 113t-113.5 273q0 159 112.5 272t273.5 113q159 0 271.5 -113t113.5 -272q0 -161 -113 -273.5t-272 -112.5zM371 54q128 0 220.5 91.5t92.5 222.5q0 129 -92 221t-221 92q-131 0 -222.5 -92t-91.5 -221q-1 -131 91 -222.5t223 -91.5zM242 152v427
h125q77 0 119 -36t42 -99q0 -52 -33 -91.5t-83 -42.5l116 -158h-98l-107 158h-1v-158h-80zM322 503v-127h47q36 0 57 15t22 48q0 32 -21.5 48t-57.5 16h-47z" />
    <glyph glyph-name="copyright" unicode="&#xa9;" horiz-adv-x="740" 
d="M371 -18q-160 0 -272.5 113t-113.5 273q0 159 112.5 272t273.5 113q159 0 271.5 -113t113.5 -272q0 -161 -113 -273.5t-272 -112.5zM371 54q128 0 220.5 91.5t92.5 222.5q0 129 -92 221t-221 92q-131 0 -222.5 -92t-91.5 -221q-1 -131 91 -222.5t223 -91.5zM577 463h-90
q-18 25 -46.5 39.5t-64.5 14.5q-60 0 -99.5 -43t-39.5 -102q0 -62 40 -104.5t99 -42.5q32 0 60.5 12.5t46.5 37.5h92q-28 -58 -79 -92t-119 -34q-95 0 -157.5 63.5t-62.5 159.5q0 93 63 156.5t155 64.5q69 0 122 -35t80 -95z" />
    <glyph glyph-name="trademark" unicode="&#x2122;" horiz-adv-x="1000" 
d="M929 740v-404h-88v326l-119 -326h-52l-119 326v-326h-88v404h142l91 -239l91 239h142zM414 740v-78h-123v-326h-97v326h-123v78h343z" />
    <glyph glyph-name="afii10051" horiz-adv-x="700" 
d="M145 0v607h-137v133h491v-133h-217v-152h143q115 -1 180 -61.5t65 -166.5q0 -101 -68.5 -164t-176.5 -63h-50v133h51q47 0 77 25t30 69t-30 69t-77 26h-144v-322h-137z" />
    <glyph glyph-name="afii10051" unicode="&#x402;" horiz-adv-x="700" 
d="M145 0v607h-137v133h491v-133h-217v-152h143q115 -1 180 -61.5t65 -166.5q0 -101 -68.5 -164t-176.5 -63h-50v133h51q47 0 77 25t30 69t-30 69t-77 26h-144v-322h-137z" />
    <glyph glyph-name="afii10099" 
d="M54 0v595h-100v114h100v31h133v-31h267v-114h-267v-155q25 30 62.5 45t80.5 15q97 0 156.5 -66.5t59.5 -181.5v-204q-1 -63 -17 -102.5t-48 -68.5q-36 -30 -84.5 -46t-98.5 -16v126q51 -3 83 25t32 82v170q0 78 -28.5 117t-82.5 39q-59 0 -87.5 -39t-27.5 -121v-214h-133
z" />
    <glyph glyph-name="afii10099" unicode="&#x452;" 
d="M54 0v595h-100v114h100v31h133v-31h267v-114h-267v-155q25 30 62.5 45t80.5 15q97 0 156.5 -66.5t59.5 -181.5v-204q-1 -63 -17 -102.5t-48 -68.5q-36 -30 -84.5 -46t-98.5 -16v126q51 -3 83 25t32 82v170q0 78 -28.5 117t-82.5 39q-59 0 -87.5 -39t-27.5 -121v-214h-133
z" />
    <glyph glyph-name="notequal" 
d="M48 473h269l41 110h94l-41 -110h141v-115h-184l-30 -80h214v-115h-257l-44 -120h-94l44 120h-153v115h196l30 80h-226v115z" />
    <glyph glyph-name="glyph260" horiz-adv-x="420" 
d="M73 879l242 101l37 -110l-242 -90z" />
    <glyph glyph-name="afii10052" horiz-adv-x="440" 
d="M68 0v740h370v-133h-233v-607h-137zM133 879l242 101l37 -110l-242 -90z" />
    <glyph glyph-name="afii10052" unicode="&#x403;" horiz-adv-x="440" 
d="M68 0v740h370v-133h-233v-607h-137zM133 879l242 101l37 -110l-242 -90z" />
    <glyph glyph-name="afii10068" unicode="&#xe3;" horiz-adv-x="380" 
d="M54 554h314v-118h-181v-436h-133v554z" />
    <glyph glyph-name="afii10068" unicode="&#x433;" horiz-adv-x="380" 
d="M54 554h314v-118h-181v-436h-133v554z" />
    <glyph glyph-name="glyph239" horiz-adv-x="420" 
d="M74 705l225 135l54 -102l-229 -125z" />
    <glyph glyph-name="afii10100" unicode="&#x192;" horiz-adv-x="380" 
d="M54 554h314v-118h-181v-436h-133v554zM94 705l225 135l54 -102l-229 -125z" />
    <glyph glyph-name="afii10100" unicode="&#x453;" horiz-adv-x="380" 
d="M54 554h314v-118h-181v-436h-133v554zM94 705l225 135l54 -102l-229 -125z" />
    <glyph glyph-name="infinity" horiz-adv-x="840" 
d="M389 275q-35 -45 -84.5 -74t-100.5 -29q-75 -1 -122.5 50t-47.5 128q0 79 51 128.5t139 50.5q67 0 124 -25t97 -74q47 50 93 74t103 24q75 0 120 -46t45 -122q0 -86 -53.5 -137t-141.5 -51q-72 0 -127 25t-95 78zM343 338q-46 72 -74 91.5t-59 19.5q-42 0 -69.5 -27
t-26.5 -72q0 -43 24 -71t69 -27q27 0 53.5 14.5t82.5 71.5zM493 366q40 -58 73.5 -83.5t68.5 -25.5q37 0 63.5 28t27.5 74q0 43 -26 66t-67 23q-39 0 -69 -18.5t-71 -63.5z" />
    <glyph glyph-name="plusminus" unicode="&#xb1;" 
d="M242 433v137h116v-137h194v-116h-194v-143h-116v143h-194v116h194zM48 0v116h504v-116h-504z" />
    <glyph glyph-name="lessequal" 
d="M190 455l362 -163v-111l-509 225v98l509 225v-111zM43 340l509 -225v-111l-509 225v111z" />
    <glyph glyph-name="greaterequal" 
d="M410 455l-362 163v111l509 -225v-98l-509 -225v111zM557 340v-111l-509 -225v111z" />
    <glyph glyph-name="afii10103" unicode="&#xb3;" horiz-adv-x="240" 
d="M54 0v554h133v-554h-133zM54 618v122h133v-122h-133z" />
    <glyph glyph-name="afii10103" unicode="&#x456;" horiz-adv-x="240" 
d="M54 0v554h133v-554h-133zM54 618v122h133v-122h-133z" />
    <glyph glyph-name="mu" unicode="&#xb5;" horiz-adv-x="576" 
d="M48 554h133v-276q0 -90 24.5 -130.5t81.5 -39.5q55 0 81 40.5t27 129.5v276h133v-554h-122v59h-2q-21 -36 -55 -56t-75 -21q-27 0 -50 8.5t-43 22.5v-198h-133v739z" />
    <glyph glyph-name="afii10098" unicode="&#xb4;" horiz-adv-x="400" 
d="M54 554h204v116h130v-234h-201v-436h-133v554z" />
    <glyph glyph-name="afii10098" unicode="&#x491;" horiz-adv-x="400" 
d="M54 554h204v116h130v-234h-201v-436h-133v554z" />
    <glyph glyph-name="afii10057" unicode="&#xa3;" horiz-adv-x="480" 
d="M412 740v-522q0 -120 -53 -178t-146 -58q-84 0 -144 53.5t-62 134.5h137q3 -27 18 -41t45 -14q36 0 51.5 21t16.5 73v531h137z" />
    <glyph glyph-name="afii10057" unicode="&#x408;" horiz-adv-x="480" 
d="M412 740v-522q0 -120 -53 -178t-146 -58q-84 0 -144 53.5t-62 134.5h137q3 -27 18 -41t45 -14q36 0 51.5 21t16.5 73v531h137z" />
    <glyph glyph-name="afii10053" unicode="&#xaa;" horiz-adv-x="775" 
d="M755 528h-156q-36 46 -86.5 69t-112.5 23q-83 0 -146 -48.5t-87 -136.5h374v-130h-374q20 -89 86 -139.5t148 -50.5q58 -1 108 21t83 65h159q-47 -101 -134.5 -160t-203.5 -59q-163 0 -273 111.5t-110 276.5q-1 162 109 272.5t270 110.5q119 0 210 -60t136 -165z" />
    <glyph glyph-name="afii10053" unicode="&#x404;" horiz-adv-x="775" 
d="M755 528h-156q-36 46 -86.5 69t-112.5 23q-83 0 -146 -48.5t-87 -136.5h374v-130h-374q20 -89 86 -139.5t148 -50.5q58 -1 108 21t83 65h159q-47 -101 -134.5 -160t-203.5 -59q-163 0 -273 111.5t-110 276.5q-1 162 109 272.5t270 110.5q119 0 210 -60t136 -165z" />
    <glyph glyph-name="afii10101" unicode="&#xba;" horiz-adv-x="640" 
d="M460 180h150q-32 -91 -104 -144.5t-171 -53.5q-130 0 -217.5 84t-87.5 215q0 124 86 207.5t214 83.5q103 0 177.5 -55.5t102.5 -146.5h-150q-18 38 -53 56.5t-79 19.5q-59 0 -101 -31t-54 -79h249v-118h-249q15 -51 57.5 -80.5t99.5 -29.5q43 0 76 18.5t54 53.5z" />
    <glyph glyph-name="afii10101" unicode="&#x454;" horiz-adv-x="640" 
d="M460 180h150q-32 -91 -104 -144.5t-171 -53.5q-130 0 -217.5 84t-87.5 215q0 124 86 207.5t214 83.5q103 0 177.5 -55.5t102.5 -146.5h-150q-18 38 -53 56.5t-79 19.5q-59 0 -101 -31t-54 -79h249v-118h-249q15 -51 57.5 -80.5t99.5 -29.5q43 0 76 18.5t54 53.5z" />
    <glyph glyph-name="afii10056" unicode="&#xaf;" horiz-adv-x="340" 
d="M102 0v740h137v-740h-137zM9 920h137v-126h-137v126zM195 920h137v-126h-137v126z" />
    <glyph glyph-name="afii10056" unicode="&#x407;" horiz-adv-x="340" 
d="M102 0v740h137v-740h-137zM9 920h137v-126h-137v126zM195 920h137v-126h-137v126z" />
    <glyph glyph-name="afii10104" unicode="&#xbf;" horiz-adv-x="340" 
d="M104 0v554h133v-554h-133zM19 740h133v-120h-133v120zM189 740h133v-120h-133v120z" />
    <glyph glyph-name="afii10104" unicode="&#x457;" horiz-adv-x="340" 
d="M104 0v554h133v-554h-133zM19 740h133v-120h-133v120zM189 740h133v-120h-133v120z" />
    <glyph glyph-name="afii10058" unicode="&#x160;" horiz-adv-x="1000" 
d="M488 0v514h-2l-308 -514h-161l471 740h137v-285h110q115 -1 180 -61.5t65 -166.5q-1 -101 -69 -164t-176 -63h-247zM625 322v-189h111q47 0 77 25t30 69t-30 69.5t-77 25.5h-111z" />
    <glyph glyph-name="afii10058" unicode="&#x409;" horiz-adv-x="1000" 
d="M488 0v514h-2l-308 -514h-161l471 740h137v-285h110q115 -1 180 -61.5t65 -166.5q-1 -101 -69 -164t-176 -63h-247zM625 322v-189h111q47 0 77 25t30 69t-30 69.5t-77 25.5h-111z" />
    <glyph glyph-name="afii10106" unicode="&#x161;" horiz-adv-x="840" 
d="M374 0v386h-2l-206 -386h-154l315 554h180v-194h119q82 0 134 -47.5t52 -132.5q0 -84 -52 -132t-134 -48h-252zM507 242v-124h105q32 -1 49.5 16t17.5 46q0 28 -17 44.5t-50 17.5h-105z" />
    <glyph glyph-name="afii10106" unicode="&#x459;" horiz-adv-x="840" 
d="M374 0v386h-2l-206 -386h-154l315 554h180v-194h119q82 0 134 -47.5t52 -132.5q0 -84 -52 -132t-134 -48h-252zM507 242v-124h105q32 -1 49.5 16t17.5 46q0 28 -17 44.5t-50 17.5h-105z" />
    <glyph glyph-name="afii10059" unicode="&#x152;" horiz-adv-x="980" 
d="M468 740h137v-285h110q115 0 180 -61t65 -167q0 -101 -68.5 -164t-176.5 -63h-247v322h-263v-322h-137v740h137v-285h263v285zM605 322v-189h111q47 0 76.5 25t30.5 69q0 44 -30 69t-77 26h-111z" />
    <glyph glyph-name="afii10059" unicode="&#x40a;" horiz-adv-x="980" 
d="M468 740h137v-285h110q115 0 180 -61t65 -167q0 -101 -68.5 -164t-176.5 -63h-247v322h-263v-322h-137v740h137v-285h263v285zM605 322v-189h111q47 0 76.5 25t30.5 69q0 44 -30 69t-77 26h-111z" />
    <glyph glyph-name="afii10107" unicode="&#x153;" horiz-adv-x="860" 
d="M394 554h133v-194h119q82 0 133.5 -47.5t52.5 -132.5q0 -84 -52 -132t-134 -48h-252v242h-207v-242h-133v554h133v-194h207v194zM527 242v-124h105q32 -1 49.5 16t17.5 46q0 28 -17 44.5t-50 17.5h-105z" />
    <glyph glyph-name="afii10107" unicode="&#x45a;" horiz-adv-x="860" 
d="M394 554h133v-194h119q82 0 133.5 -47.5t52.5 -132.5q0 -84 -52 -132t-134 -48h-252v242h-207v-242h-133v554h133v-194h207v194zM527 242v-124h105q32 -1 49.5 16t17.5 46q0 28 -17 44.5t-50 17.5h-105z" />
    <glyph glyph-name="afii10105" unicode="&#xbc;" horiz-adv-x="260" 
d="M206 554v-526q0 -107 -53 -159.5t-135 -53.5v129q26 -3 40.5 14.5t14.5 69.5v526h133zM73 618v122h133v-122h-133z" />
    <glyph glyph-name="afii10105" unicode="&#x458;" horiz-adv-x="260" 
d="M206 554v-526q0 -107 -53 -159.5t-135 -53.5v129q26 -3 40.5 14.5t14.5 69.5v526h133zM73 618v122h133v-122h-133z" />
    <glyph glyph-name="afii10054" unicode="&#xbd;" horiz-adv-x="520" 
d="M14 208h143q1 -43 29.5 -68t69.5 -25q44 0 72 26t28 67q0 29 -12.5 53t-167.5 90q-69 28 -102 79t-33 113q0 90 63.5 150t156.5 60q89 0 149 -58t65 -152h-141q-1 34 -22 55.5t-55 21.5q-35 -1 -57.5 -21.5t-21.5 -56.5q0 -23 9 -39.5t156 -74.5q68 -28 109 -81t41 -131
q0 -100 -68 -167t-172 -67q-103 0 -171 65t-68 161z" />
    <glyph glyph-name="afii10054" unicode="&#x405;" horiz-adv-x="520" 
d="M14 208h143q1 -43 29.5 -68t69.5 -25q44 0 72 26t28 67q0 29 -12.5 53t-167.5 90q-69 28 -102 79t-33 113q0 90 63.5 150t156.5 60q89 0 149 -58t65 -152h-141q-1 34 -22 55.5t-55 21.5q-35 -1 -57.5 -21.5t-21.5 -56.5q0 -23 9 -39.5t156 -74.5q68 -28 109 -81t41 -131
q0 -100 -68 -167t-172 -67q-103 0 -171 65t-68 161z" />
    <glyph glyph-name="logicalnot" unicode="&#xac;" 
d="M434 182v173h-386v118h504v-291h-118z" />
    <glyph glyph-name="radical" horiz-adv-x="700" 
d="M262 500l100 -343l110 673h208v-100h-124l-142 -830h-104l-154 500h-136v100h242z" />
    <glyph glyph-name="florin" horiz-adv-x="560" 
d="M365 554h92l-19 -115h-93l-62 -360q-15 -82 -28.5 -119.5t-32.5 -63.5q-30 -38 -75 -57t-101 -19q-20 0 -35.5 2t-27.5 5l20 114q7 -1 15 -2t18 -1q51 0 76.5 25.5t43.5 123.5l62 352h-94l19 115h96l3 16q12 68 25 96t31 50q36 44 89.5 63t106.5 10l-20 -117h-7
q-15 0 -30 -5.5t-26 -13.5q-16 -12 -26.5 -30t-16.5 -53z" />
    <glyph glyph-name="approxequal" 
d="M488 521l64 -73q-35 -64 -69 -90.5t-75 -26.5q-26 0 -58.5 9.5t-75.5 32.5q-27 13 -44 18.5t-31 5.5q-24 0 -47 -20.5t-40 -61.5l-64 74q29 62 68 93t81 31q24 0 56.5 -10.5t83.5 -34.5q24 -12 40 -16.5t30 -4.5q21 0 40.5 17t40.5 57zM488 281l64 -73q-35 -64 -69 -90.5
t-75 -26.5q-26 -1 -58.5 9t-75.5 33q-27 13 -44 18.5t-31 5.5q-24 -1 -47 -21t-40 -61l-64 74q29 62 68 92.5t81 31.5q24 0 56.5 -10.5t83.5 -34.5q24 -12 40 -17t30 -4q21 0 40.5 17t40.5 57z" />
    <glyph glyph-name="Delta" horiz-adv-x="740" 
d="M7 0l308 740h110l308 -740h-726zM212 133h316l-158 407z" />
    <glyph glyph-name="guillemotleft" unicode="&#xab;" horiz-adv-x="460" 
d="M108 318l67 -59v-123l-139 131v101l139 130v-123zM321 318l67 -59v-123l-139 131v101l139 130v-123z" />
    <glyph glyph-name="guillemotright" unicode="&#xbb;" horiz-adv-x="460" 
d="M353 318l-68 57v123l139 -130v-101l-139 -131v123zM140 318l-68 57v123l139 -130v-101l-139 -131v123z" />
    <glyph glyph-name="ellipsis" unicode="&#x2026;" horiz-adv-x="1000" 
d="M100 0v133h133v-133h-133zM433 0v133h133v-133h-133zM766 0v133h133v-133h-133z" />
    <glyph glyph-name="afii10060" horiz-adv-x="720" 
d="M145 0v607h-137v133h491v-133h-217v-148h135q67 -1 109 -12.5t71 -34.5q33 -28 50 -69.5t17 -106.5v-236h-137v218q0 36 -6.5 54t-19.5 31q-13 11 -32.5 17t-50.5 6h-136v-326h-137z" />
    <glyph glyph-name="afii10060" unicode="&#x40b;" horiz-adv-x="720" 
d="M145 0v607h-137v133h491v-133h-217v-148h135q67 -1 109 -12.5t71 -34.5q33 -28 50 -69.5t17 -106.5v-236h-137v218q0 36 -6.5 54t-19.5 31q-13 11 -32.5 17t-50.5 6h-136v-326h-137z" />
    <glyph glyph-name="afii10108" 
d="M54 0v595h-100v114h100v31h133v-31h267v-114h-267v-155q25 30 62.5 45t80.5 15q97 0 156.5 -66.5t59.5 -181.5v-252h-133v222q0 76 -29.5 114t-81.5 38q-58 0 -87 -39t-28 -113v-222h-133z" />
    <glyph glyph-name="afii10108" unicode="&#x45b;" 
d="M54 0v595h-100v114h100v31h133v-31h267v-114h-267v-155q25 30 62.5 45t80.5 15q97 0 156.5 -66.5t59.5 -181.5v-252h-133v222q0 76 -29.5 114t-81.5 38q-58 0 -87 -39t-28 -113v-222h-133z" />
    <glyph glyph-name="afii10061" horiz-adv-x="620" 
d="M68 0v740h137v-321l230 321h164l-279 -364l279 -376h-164l-230 324v-324h-137zM213 879l242 101l37 -110l-242 -90z" />
    <glyph glyph-name="afii10061" unicode="&#x40c;" horiz-adv-x="620" 
d="M68 0v740h137v-321l230 321h164l-279 -364l279 -376h-164l-230 324v-324h-137zM213 879l242 101l37 -110l-242 -90z" />
    <glyph glyph-name="afii10076" unicode="&#xea;" horiz-adv-x="580" 
d="M54 0v554h133v-254l198 254h158l-221 -260l233 -294h-168l-200 266v-266h-133z" />
    <glyph glyph-name="afii10076" unicode="&#x43a;" horiz-adv-x="580" 
d="M54 0v554h133v-254l198 254h158l-221 -260l233 -294h-168l-200 266v-266h-133z" />
    <glyph glyph-name="afii10109" horiz-adv-x="580" 
d="M54 0v554h133v-254l198 254h158l-221 -260l233 -294h-168l-200 266v-266h-133zM194 705l225 135l54 -102l-229 -125z" />
    <glyph glyph-name="afii10109" unicode="&#x45c;" horiz-adv-x="580" 
d="M54 0v554h133v-254l198 254h158l-221 -260l233 -294h-168l-200 266v-266h-133zM194 705l225 135l54 -102l-229 -125z" />
    <glyph glyph-name="afii10102" unicode="&#xbe;" horiz-adv-x="440" 
d="M19 174h133q1 -31 21.5 -48.5t51.5 -17.5q27 -1 44.5 14t17.5 43q-1 18 -11 31.5t-39 25.5q-6 2 -12.5 4t-44.5 15q-74 23 -107.5 62t-33.5 98q0 72 53 121.5t134 49.5q75 0 125 -47.5t54 -122.5h-133q-3 21 -16 32.5t-34 11.5q-23 0 -36.5 -13t-13.5 -34q0 -17 9 -28.5
t29 -19.5q6 -3 13.5 -5.5t33.5 -8.5q88 -22 125.5 -61t37.5 -103q0 -82 -56 -136.5t-144 -54.5q-93 0 -147 56.5t-54 135.5z" />
    <glyph glyph-name="afii10102" unicode="&#x455;" horiz-adv-x="440" 
d="M19 174h133q1 -31 21.5 -48.5t51.5 -17.5q27 -1 44.5 14t17.5 43q-1 18 -11 31.5t-39 25.5q-6 2 -12.5 4t-44.5 15q-74 23 -107.5 62t-33.5 98q0 72 53 121.5t134 49.5q75 0 125 -47.5t54 -122.5h-133q-3 21 -16 32.5t-34 11.5q-23 0 -36.5 -13t-13.5 -34q0 -17 9 -28.5
t29 -19.5q6 -3 13.5 -5.5t33.5 -8.5q88 -22 125.5 -61t37.5 -103q0 -82 -56 -136.5t-144 -54.5q-93 0 -147 56.5t-54 135.5z" />
    <glyph glyph-name="endash" unicode="&#x2013;" horiz-adv-x="500" 
d="M0 259v118h500v-118h-500z" />
    <glyph glyph-name="emdash" unicode="&#x2014;" horiz-adv-x="1000" 
d="M0 377h1000v-118h-1000v118z" />
    <glyph glyph-name="quotedblleft" unicode="&#x201c;" horiz-adv-x="480" 
d="M410 613v-133h-133v128q0 46 8.5 69t27.5 40q17 16 42.5 25.5t52.5 10.5v-67q-25 0 -41 -15.5t-16 -40.5v-17h59zM203 613v-133h-133v128q0 46 8.5 69t27.5 40q17 16 42.5 25.5t52.5 10.5v-67q-25 0 -41 -15.5t-16 -40.5v-17h59z" />
    <glyph glyph-name="quotedblright" unicode="&#x201d;" horiz-adv-x="480" 
d="M70 607v133h133v-128q0 -47 -9 -70t-27 -39q-18 -17 -43.5 -26.5t-51.5 -9.5v67q24 -1 40.5 14.5t16.5 41.5v17h-59zM277 607v133h133v-128q0 -47 -9 -70t-27 -39q-18 -17 -43.5 -26.5t-51.5 -9.5v67q24 -1 40 14.5t17 41.5v17h-59z" />
    <glyph glyph-name="quoteleft" unicode="&#x2018;" horiz-adv-x="280" 
d="M206 613v-133h-133v128q0 46 8.5 69t27.5 40q17 16 42.5 25.5t52.5 10.5v-67q-25 0 -41 -15.5t-16 -40.5v-17h59z" />
    <glyph glyph-name="quoteright" unicode="&#x2019;" horiz-adv-x="280" 
d="M73 606v133h133v-128q0 -47 -9 -70t-27 -39q-18 -17 -43.5 -26.5t-51.5 -9.5v67q24 -1 40.5 14.5t16.5 41.5v17h-59z" />
    <glyph glyph-name="divide" 
d="M48 263v116h504v-116h-504zM242 454v116h116v-116h-116zM242 65v116h116v-116h-116z" />
    <glyph glyph-name="quotedblbase" unicode="&#x201e;" horiz-adv-x="480" 
d="M70 0v133h133v-128q0 -46 -9 -69t-27 -40q-18 -16 -43.5 -25.5t-51.5 -10.5v67q24 0 40.5 15.5t16.5 40.5v17h-59zM277 0v133h133v-128q0 -46 -9 -69t-27 -40q-18 -16 -43.5 -25.5t-51.5 -10.5v67q24 0 40 15.5t17 40.5v17h-59z" />
    <glyph glyph-name="glyph274" horiz-adv-x="500" 
d="M70 920h115q3 -23 20 -36.5t45 -13.5q27 0 44 13.5t21 36.5h115q-10 -62 -58.5 -101t-121.5 -39q-74 0 -122.5 39t-57.5 101z" />
    <glyph glyph-name="afii10062" unicode="&#xa1;" horiz-adv-x="700" 
d="M691 740l-335 -740h-150l87 188l-284 552h166l195 -394l171 394h150zM190 920h115q3 -23 20 -36.5t45 -13.5q27 0 44 13.5t21 36.5h115q-10 -62 -58.5 -101t-121.5 -39q-74 0 -122.5 39t-57.5 101z" />
    <glyph glyph-name="afii10062" unicode="&#x40e;" horiz-adv-x="700" 
d="M691 740l-335 -740h-150l87 188l-284 552h166l195 -394l171 394h150zM190 920h115q3 -23 20 -36.5t45 -13.5q27 0 44 13.5t21 36.5h115q-10 -62 -58.5 -101t-121.5 -39q-74 0 -122.5 39t-57.5 101z" />
    <glyph glyph-name="afii10085" unicode="&#xf3;" horiz-adv-x="580" 
d="M417 554h151l-318 -739h-143l102 237l-203 502h151l127 -355z" />
    <glyph glyph-name="afii10085" unicode="&#x443;" horiz-adv-x="580" 
d="M417 554h151l-318 -739h-143l102 237l-203 502h151l127 -355z" />
    <glyph glyph-name="glyph245" horiz-adv-x="480" 
d="M75 756h100q5 -23 22.5 -34.5t42.5 -11.5q24 0 41.5 11.5t23.5 34.5h100q-9 -59 -54 -97.5t-111 -38.5q-67 0 -112 38.5t-53 97.5z" />
    <glyph glyph-name="afii10110" unicode="&#xa2;" horiz-adv-x="580" 
d="M417 554h151l-318 -739h-143l102 237l-203 502h151l127 -355zM130 756h100q5 -23 22.5 -34.5t42.5 -11.5q24 0 41.5 11.5t23.5 34.5h100q-9 -59 -54 -97.5t-111 -38.5q-67 0 -112 38.5t-53 97.5z" />
    <glyph glyph-name="afii10110" unicode="&#x45e;" horiz-adv-x="580" 
d="M417 554h151l-318 -739h-143l102 237l-203 502h151l127 -355zM130 756h100q5 -23 22.5 -34.5t42.5 -11.5q24 0 41.5 11.5t23.5 34.5h100q-9 -59 -54 -97.5t-111 -38.5q-67 0 -112 38.5t-53 97.5z" />
    <glyph glyph-name="afii10145" horiz-adv-x="679" 
d="M611 740v-740h-203v-185h-137v185h-203v740h137v-607h269v607h137z" />
    <glyph glyph-name="afii10145" unicode="&#x40f;" horiz-adv-x="679" 
d="M611 740v-740h-203v-185h-137v185h-203v740h137v-607h269v607h137z" />
    <glyph glyph-name="afii10193" unicode="&#x178;" horiz-adv-x="580" 
d="M54 554h133v-436h206v436h133v-554h-171v-160h-130v160h-171v554z" />
    <glyph glyph-name="afii10193" unicode="&#x45f;" horiz-adv-x="580" 
d="M54 554h133v-436h206v436h133v-554h-171v-160h-130v160h-171v554z" />
    <glyph glyph-name="afii61352" unicode="&#xb9;" horiz-adv-x="1100" 
d="M70 0v740h137l325 -500v500h137v-740h-137l-325 500v-500h-137zM719 560q0 74 52.5 127t127.5 53q73 0 126 -53t53 -127q-1 -75 -53.5 -127.5t-125.5 -52.5q-75 -1 -128 52t-52 128zM819 560q0 -33 23 -56.5t56 -23.5q32 0 56 23t24 57q0 33 -23.5 56.5t-55.5 23.5
q-33 0 -56.5 -24t-23.5 -56zM733 326h330v-120h-330v120z" />
    <glyph glyph-name="afii61352" unicode="&#x2116;" horiz-adv-x="1100" 
d="M70 0v740h137l325 -500v500h137v-740h-137l-325 500v-500h-137zM719 560q0 74 52.5 127t127.5 53q73 0 126 -53t53 -127q-1 -75 -53.5 -127.5t-125.5 -52.5q-75 -1 -128 52t-52 128zM819 560q0 -33 23 -56.5t56 -23.5q32 0 56 23t24 57q0 33 -23.5 56.5t-55.5 23.5
q-33 0 -56.5 -24t-23.5 -56zM733 326h330v-120h-330v120z" />
    <glyph glyph-name="afii10023" unicode="&#xa8;" horiz-adv-x="520" 
d="M68 0v740h397v-133h-260v-171h249v-133h-249v-170h260v-133h-397zM95 920h137v-126h-137v126zM301 920h137v-126h-137v126z" />
    <glyph glyph-name="afii10023" unicode="&#x401;" horiz-adv-x="520" 
d="M68 0v740h397v-133h-260v-171h249v-133h-249v-170h260v-133h-397zM95 920h137v-126h-137v126zM301 920h137v-126h-137v126z" />
    <glyph glyph-name="afii10071" unicode="&#xb8;" horiz-adv-x="640" 
d="M607 218h-434q12 -51 51.5 -80.5t93.5 -29.5q40 -1 71.5 12.5t52.5 39.5h150q-35 -83 -106 -130.5t-163 -47.5q-125 0 -209 84t-84 207t84.5 211t210.5 88q125 0 204.5 -85t80.5 -210q0 -20 -1 -33.5t-2 -25.5zM171 336h300q-14 51 -54 80.5t-92 29.5q-55 -1 -96.5 -30.5
t-57.5 -79.5zM154 740h133v-120h-133v120zM364 740h133v-120h-133v120z" />
    <glyph glyph-name="afii10071" unicode="&#x451;" horiz-adv-x="640" 
d="M607 218h-434q12 -51 51.5 -80.5t93.5 -29.5q40 -1 71.5 12.5t52.5 39.5h150q-35 -83 -106 -130.5t-163 -47.5q-125 0 -209 84t-84 207t84.5 211t210.5 88q125 0 204.5 -85t80.5 -210q0 -20 -1 -33.5t-2 -25.5zM171 336h300q-14 51 -54 80.5t-92 29.5q-55 -1 -96.5 -30.5
t-57.5 -79.5zM154 740h133v-120h-133v120zM364 740h133v-120h-133v120z" />
    <glyph glyph-name="afii10097" unicode="&#xff;" horiz-adv-x="540" 
d="M486 554v-554h-133v213l-164 -213h-166l167 196q-68 7 -107.5 56t-39.5 118q0 75 54 129t148 55h241zM353 297v139h-103q-35 0 -54.5 -20t-19.5 -53q0 -29 19.5 -47.5t54.5 -18.5h103z" />
    <glyph glyph-name="afii10097" unicode="&#x44f;" horiz-adv-x="540" 
d="M486 554v-554h-133v213l-164 -213h-166l167 196q-68 7 -107.5 56t-39.5 118q0 75 54 129t148 55h241zM353 297v139h-103q-35 0 -54.5 -20t-19.5 -53q0 -29 19.5 -47.5t54.5 -18.5h103z" />
    <glyph glyph-name="afii10065" unicode="&#xe0;" horiz-adv-x="660" 
d="M606 554v-554h-122v75h-2q-35 -47 -83.5 -69.5t-101.5 -23.5q-111 0 -191 80t-80 210q0 129 79.5 214.5t195.5 85.5q58 0 104.5 -24.5t76.5 -71.5h2v78h122zM322 446q-72 0 -117.5 -49.5t-45.5 -124.5q-1 -72 44.5 -118t118.5 -46q71 0 115 47t44 123q0 72 -44 120
t-115 48z" />
    <glyph glyph-name="afii10065" unicode="&#x430;" horiz-adv-x="660" 
d="M606 554v-554h-122v75h-2q-35 -47 -83.5 -69.5t-101.5 -23.5q-111 0 -191 80t-80 210q0 129 79.5 214.5t195.5 85.5q58 0 104.5 -24.5t76.5 -71.5h2v78h122zM322 446q-72 0 -117.5 -49.5t-45.5 -124.5q-1 -72 44.5 -118t118.5 -46q71 0 115 47t44 123q0 72 -44 120
t-115 48z" />
    <glyph glyph-name="afii10066" unicode="&#xe1;" horiz-adv-x="640" 
d="M591 740v-118l-215 -4q-105 -2 -164.5 -46.5t-71.5 -127.5h2q34 48 87 75t122 27q115 0 189 -74t74 -195q0 -130 -83 -212.5t-216 -82.5q-143 0 -216 88t-73 258q-1 188 85.5 296t267.5 112zM323 428q-69 0 -113.5 -44t-44.5 -116q0 -74 43 -117t115 -43q71 0 114 44
t44 116q-1 74 -44.5 117t-113.5 43z" />
    <glyph glyph-name="afii10066" unicode="&#x431;" horiz-adv-x="640" 
d="M591 740v-118l-215 -4q-105 -2 -164.5 -46.5t-71.5 -127.5h2q34 48 87 75t122 27q115 0 189 -74t74 -195q0 -130 -83 -212.5t-216 -82.5q-143 0 -216 88t-73 258q-1 188 85.5 296t267.5 112zM323 428q-69 0 -113.5 -44t-44.5 -116q0 -74 43 -117t115 -43q71 0 114 44
t44 116q-1 74 -44.5 117t-113.5 43z" />
    <glyph glyph-name="afii10067" unicode="&#xe2;" horiz-adv-x="500" 
d="M54 554h244q71 0 115.5 -40.5t44.5 -104.5q-1 -39 -24 -69.5t-60 -45.5q47 -14 75.5 -49t28.5 -80q0 -69 -49 -117t-138 -48h-237v554zM187 440v-100h87q24 -1 38.5 13.5t15.5 36.5q0 22 -14.5 36t-39.5 14h-87zM187 226v-112h95q32 -1 49 15t17 41t-17.5 40t-48.5 16
h-95z" />
    <glyph glyph-name="afii10067" unicode="&#x432;" horiz-adv-x="500" 
d="M54 554h244q71 0 115.5 -40.5t44.5 -104.5q-1 -39 -24 -69.5t-60 -45.5q47 -14 75.5 -49t28.5 -80q0 -69 -49 -117t-138 -48h-237v554zM187 440v-100h87q24 -1 38.5 13.5t15.5 36.5q0 22 -14.5 36t-39.5 14h-87zM187 226v-112h95q32 -1 49 15t17 41t-17.5 40t-48.5 16
h-95z" />
    <glyph glyph-name="afii10069" unicode="&#xe4;" horiz-adv-x="680" 
d="M400 554l203 -436h66v-258h-130v140h-398v-140h-130v258h66l203 436h120zM227 118h226l-113 256z" />
    <glyph glyph-name="afii10069" unicode="&#x434;" horiz-adv-x="680" 
d="M400 554l203 -436h66v-258h-130v140h-398v-140h-130v258h66l203 436h120zM227 118h226l-113 256z" />
    <glyph glyph-name="afii10070" unicode="&#xe5;" horiz-adv-x="640" 
d="M607 218h-434q12 -51 51.5 -80.5t93.5 -29.5q40 -1 71.5 12.5t52.5 39.5h150q-35 -83 -106 -130.5t-163 -47.5q-125 0 -209 84t-84 207t84.5 211t210.5 88q125 0 204.5 -85t80.5 -210q0 -20 -1 -33.5t-2 -25.5zM171 336h300q-14 51 -54 80.5t-92 29.5q-55 -1 -96.5 -30.5
t-57.5 -79.5z" />
    <glyph glyph-name="afii10070" unicode="&#x435;" horiz-adv-x="640" 
d="M607 218h-434q12 -51 51.5 -80.5t93.5 -29.5q40 -1 71.5 12.5t52.5 39.5h150q-35 -83 -106 -130.5t-163 -47.5q-125 0 -209 84t-84 207t84.5 211t210.5 88q125 0 204.5 -85t80.5 -210q0 -20 -1 -33.5t-2 -25.5zM171 336h300q-14 51 -54 80.5t-92 29.5q-55 -1 -96.5 -30.5
t-57.5 -79.5z" />
    <glyph glyph-name="afii10072" unicode="&#xe6;" horiz-adv-x="840" 
d="M354 0v266l-180 -266h-157l202 290l-190 264h157l168 -254v254h133v-254l168 254h157l-190 -264l202 -290h-157l-180 266v-266h-133z" />
    <glyph glyph-name="afii10072" unicode="&#x436;" horiz-adv-x="840" 
d="M354 0v266l-180 -266h-157l202 290l-190 264h157l168 -254v254h133v-254l168 254h157l-190 -264l202 -290h-157l-180 266v-266h-133z" />
    <glyph glyph-name="afii10073" unicode="&#xe7;" horiz-adv-x="460" 
d="M172 390h-133q5 76 55.5 129t137.5 53q84 0 136.5 -42t52.5 -113q0 -41 -25 -73t-65 -45q48 -13 73.5 -50t26.5 -86q0 -81 -55 -131t-147 -50q-102 0 -154.5 57t-49.5 148h133q0 -37 20.5 -58t55.5 -21q29 0 46 15.5t18 42.5q0 29 -16.5 43.5t-42.5 14.5h-31v114h25
q28 -1 43 13.5t15 40.5t-14.5 40t-41.5 14t-44 -16t-19 -40z" />
    <glyph glyph-name="afii10073" unicode="&#x437;" horiz-adv-x="460" 
d="M172 390h-133q5 76 55.5 129t137.5 53q84 0 136.5 -42t52.5 -113q0 -41 -25 -73t-65 -45q48 -13 73.5 -50t26.5 -86q0 -81 -55 -131t-147 -50q-102 0 -154.5 57t-49.5 148h133q0 -37 20.5 -58t55.5 -21q29 0 46 15.5t18 42.5q0 29 -16.5 43.5t-42.5 14.5h-31v114h25
q28 -1 43 13.5t15 40.5t-14.5 40t-41.5 14t-44 -16t-19 -40z" />
    <glyph glyph-name="afii10074" unicode="&#xe8;" horiz-adv-x="620" 
d="M54 554h133v-359l246 359h133v-554h-133v359l-246 -359h-133v554z" />
    <glyph glyph-name="afii10074" unicode="&#x438;" horiz-adv-x="620" 
d="M54 554h133v-359l246 359h133v-554h-133v359l-246 -359h-133v554z" />
    <glyph glyph-name="afii10075" unicode="&#xe9;" horiz-adv-x="620" 
d="M54 554h133v-359l246 359h133v-554h-133v359l-246 -359h-133v554zM145 756h100q5 -23 22.5 -34.5t42.5 -11.5q24 0 41.5 11.5t23.5 34.5h100q-9 -59 -54 -97.5t-111 -38.5q-67 0 -112 38.5t-53 97.5z" />
    <glyph glyph-name="afii10075" unicode="&#x439;" horiz-adv-x="620" 
d="M54 554h133v-359l246 359h133v-554h-133v359l-246 -359h-133v554zM145 756h100q5 -23 22.5 -34.5t42.5 -11.5q24 0 41.5 11.5t23.5 34.5h100q-9 -59 -54 -97.5t-111 -38.5q-67 0 -112 38.5t-53 97.5z" />
    <glyph glyph-name="afii10077" unicode="&#xeb;" horiz-adv-x="580" 
d="M350 554l226 -554h-148l-138 374l-138 -374h-148l226 554h120z" />
    <glyph glyph-name="afii10077" unicode="&#x43b;" horiz-adv-x="580" 
d="M350 554l226 -554h-148l-138 374l-138 -374h-148l226 554h120z" />
    <glyph glyph-name="afii10078" unicode="&#xec;" horiz-adv-x="780" 
d="M54 0v554h193l143 -394l143 394h193v-554h-133v407l-148 -407h-110l-148 407v-407h-133z" />
    <glyph glyph-name="afii10078" unicode="&#x43c;" horiz-adv-x="780" 
d="M54 0v554h193l143 -394l143 394h193v-554h-133v407l-148 -407h-110l-148 407v-407h-133z" />
    <glyph glyph-name="afii10079" unicode="&#xed;" horiz-adv-x="580" 
d="M54 554h133v-204h206v204h133v-554h-133v232h-206v-232h-133v554z" />
    <glyph glyph-name="afii10079" unicode="&#x43d;" horiz-adv-x="580" 
d="M54 554h133v-204h206v204h133v-554h-133v232h-206v-232h-133v554z" />
    <glyph glyph-name="afii10080" unicode="&#xee;" horiz-adv-x="640" 
d="M320 572q125 0 209.5 -87t84.5 -209q0 -123 -84.5 -208.5t-209.5 -85.5q-126 0 -210 85.5t-84 208.5q0 122 84 209t210 87zM320 446q-72 0 -116.5 -50t-44.5 -120q-1 -70 44 -119t117 -49q71 -1 116 48.5t45 119.5t-45 120t-116 50z" />
    <glyph glyph-name="afii10080" unicode="&#x43e;" horiz-adv-x="640" 
d="M320 572q125 0 209.5 -87t84.5 -209q0 -123 -84.5 -208.5t-209.5 -85.5q-126 0 -210 85.5t-84 208.5q0 122 84 209t210 87zM320 446q-72 0 -116.5 -50t-44.5 -120q-1 -70 44 -119t117 -49q71 -1 116 48.5t45 119.5t-45 120t-116 50z" />
    <glyph glyph-name="afii10081" unicode="&#xef;" horiz-adv-x="580" 
d="M54 554h472v-554h-133v436h-206v-436h-133v554z" />
    <glyph glyph-name="afii10081" unicode="&#x43f;" horiz-adv-x="580" 
d="M54 554h472v-554h-133v436h-206v-436h-133v554z" />
    <glyph glyph-name="afii10082" unicode="&#xf0;" horiz-adv-x="660" 
d="M54 -185v739h122v-72h2q25 41 72 65.5t106 24.5q116 0 197 -82t81 -213q0 -121 -76 -208t-202 -87q-49 0 -92.5 18.5t-74.5 59.5h-2v-245h-133zM342 446q-73 -1 -118 -48.5t-45 -120.5q0 -78 44 -123.5t114 -45.5q71 0 117 48t47 122q-1 72 -45.5 120t-113.5 48z" />
    <glyph glyph-name="afii10082" unicode="&#x440;" horiz-adv-x="660" 
d="M54 -185v739h122v-72h2q25 41 72 65.5t106 24.5q116 0 197 -82t81 -213q0 -121 -76 -208t-202 -87q-49 0 -92.5 18.5t-74.5 59.5h-2v-245h-133zM342 446q-73 -1 -118 -48.5t-45 -120.5q0 -78 44 -123.5t114 -45.5q71 0 117 48t47 122q-1 72 -45.5 120t-113.5 48z" />
    <glyph glyph-name="afii10083" unicode="&#xf1;" horiz-adv-x="640" 
d="M460 180h150q-33 -91 -103.5 -144.5t-170.5 -53.5q-132 0 -219 84t-87 215q0 124 85.5 207.5t215.5 83.5q103 0 177 -55t102 -147h-150q-20 37 -53.5 56t-77.5 20q-77 0 -121.5 -48.5t-44.5 -118.5q0 -74 45.5 -123t120.5 -48q42 0 76.5 17.5t54.5 54.5z" />
    <glyph glyph-name="afii10083" unicode="&#x441;" horiz-adv-x="640" 
d="M460 180h150q-33 -91 -103.5 -144.5t-170.5 -53.5q-132 0 -219 84t-87 215q0 124 85.5 207.5t215.5 83.5q103 0 177 -55t102 -147h-150q-20 37 -53.5 56t-77.5 20q-77 0 -121.5 -48.5t-44.5 -118.5q0 -74 45.5 -123t120.5 -48q42 0 76.5 17.5t54.5 54.5z" />
    <glyph glyph-name="afii10084" unicode="&#xf2;" horiz-adv-x="420" 
d="M10 554h399v-118h-133v-436h-133v436h-133v118z" />
    <glyph glyph-name="afii10084" unicode="&#x442;" horiz-adv-x="420" 
d="M10 554h399v-118h-133v-436h-133v436h-133v118z" />
    <glyph glyph-name="afii10086" unicode="&#xf4;" horiz-adv-x="820" 
d="M344 740h133v-168q139 -4 226.5 -91t87.5 -204q-1 -119 -91 -204t-223 -91v-167h-133v167q-134 6 -224 91t-90 204q0 117 87 204t227 91v168zM344 100v354q-81 -3 -131 -51.5t-50 -125.5q0 -76 52.5 -125.5t128.5 -51.5zM477 454v-354q75 2 128 51.5t53 125.5
q0 77 -50.5 125.5t-130.5 51.5z" />
    <glyph glyph-name="afii10086" unicode="&#x444;" horiz-adv-x="820" 
d="M344 740h133v-168q139 -4 226.5 -91t87.5 -204q-1 -119 -91 -204t-223 -91v-167h-133v167q-134 6 -224 91t-90 204q0 117 87 204t227 91v168zM344 100v354q-81 -3 -131 -51.5t-50 -125.5q0 -76 52.5 -125.5t128.5 -51.5zM477 454v-354q75 2 128 51.5t53 125.5
q0 77 -50.5 125.5t-130.5 51.5z" />
    <glyph glyph-name="afii10087" unicode="&#xf5;" horiz-adv-x="560" 
d="M4 0l187 284l-172 270h155l105 -166l105 166h155l-176 -270l193 -284h-164l-112 179l-112 -179h-164z" />
    <glyph glyph-name="afii10087" unicode="&#x445;" horiz-adv-x="560" 
d="M4 0l187 284l-172 270h155l105 -166l105 166h155l-176 -270l193 -284h-164l-112 179l-112 -179h-164z" />
    <glyph glyph-name="afii10088" unicode="&#xf6;" horiz-adv-x="620" 
d="M54 554h133v-436h208v436h133v-436h84v-258h-130v140h-428v554z" />
    <glyph glyph-name="afii10088" unicode="&#x446;" horiz-adv-x="620" 
d="M54 554h133v-436h208v436h133v-436h84v-258h-130v140h-428v554z" />
    <glyph glyph-name="afii10089" unicode="&#xf7;" horiz-adv-x="520" 
d="M466 554v-554h-133v190h-78q-112 0 -165.5 40t-53.5 167v157h133v-157q0 -56 21 -72.5t65 -16.5h78v246h133z" />
    <glyph glyph-name="afii10089" unicode="&#x447;" horiz-adv-x="520" 
d="M466 554v-554h-133v190h-78q-112 0 -165.5 40t-53.5 167v157h133v-157q0 -56 21 -72.5t65 -16.5h78v246h133z" />
    <glyph glyph-name="afii10090" unicode="&#xf8;" horiz-adv-x="840" 
d="M54 554h133v-436h168v436h133v-436h168v436h133v-554h-735v554z" />
    <glyph glyph-name="afii10090" unicode="&#x448;" horiz-adv-x="840" 
d="M54 554h133v-436h168v436h133v-436h168v436h133v-554h-735v554z" />
    <glyph glyph-name="afii10091" unicode="&#xf9;" horiz-adv-x="880" 
d="M54 554h133v-436h168v436h133v-436h168v436h133v-436h84v-258h-130v140h-689v554z" />
    <glyph glyph-name="afii10091" unicode="&#x449;" horiz-adv-x="880" 
d="M54 554h133v-436h168v436h133v-436h168v436h133v-436h84v-258h-130v140h-689v554z" />
    <glyph glyph-name="afii10092" unicode="&#xfa;" 
d="M5 554h262v-194h119q82 0 134 -47.5t52 -132.5q0 -84 -52 -132t-134 -48h-252v436h-129v118zM267 242v-124h105q32 -1 49 16t18 46q0 28 -17 44.5t-50 17.5h-105z" />
    <glyph glyph-name="afii10092" unicode="&#x44a;" 
d="M5 554h262v-194h119q82 0 134 -47.5t52 -132.5q0 -84 -52 -132t-134 -48h-252v436h-129v118zM267 242v-124h105q32 -1 49 16t18 46q0 28 -17 44.5t-50 17.5h-105z" />
    <glyph glyph-name="afii10093" unicode="&#xfb;" horiz-adv-x="740" 
d="M54 554h133v-194h119q82 0 134 -47.5t52 -132.5q-1 -84 -52.5 -132t-133.5 -48h-252v554zM187 242v-124h105q32 -1 49.5 16t17.5 46q0 28 -17 44.5t-50 17.5h-105zM553 0v554h133v-554h-133z" />
    <glyph glyph-name="afii10093" unicode="&#x44b;" horiz-adv-x="740" 
d="M54 554h133v-194h119q82 0 134 -47.5t52 -132.5q-1 -84 -52.5 -132t-133.5 -48h-252v554zM187 242v-124h105q32 -1 49.5 16t17.5 46q0 28 -17 44.5t-50 17.5h-105zM553 0v554h133v-554h-133z" />
    <glyph glyph-name="afii10094" unicode="&#xfc;" horiz-adv-x="520" 
d="M54 554h133v-194h119q82 0 134 -47.5t52 -132.5q-1 -84 -52.5 -132t-133.5 -48h-252v554zM187 242v-124h105q32 -1 49.5 16t17.5 46q0 28 -17 44.5t-50 17.5h-105z" />
    <glyph glyph-name="afii10094" unicode="&#x44c;" horiz-adv-x="520" 
d="M54 554h133v-194h119q82 0 134 -47.5t52 -132.5q-1 -84 -52.5 -132t-133.5 -48h-252v554zM187 242v-124h105q32 -1 49.5 16t17.5 46q0 28 -17 44.5t-50 17.5h-105z" />
    <glyph glyph-name="afii10095" unicode="&#xfd;" horiz-adv-x="640" 
d="M30 180h150q18 -37 51.5 -54.5t78.5 -17.5q61 -1 102 29.5t57 80.5h-229v118h229q-15 49 -56 79.5t-101 30.5q-43 0 -78.5 -19t-53.5 -57h-150q27 91 101 146.5t179 55.5q128 0 214 -83t86 -208q0 -131 -88 -215t-217 -84q-100 0 -172 53.5t-103 144.5z" />
    <glyph glyph-name="afii10095" unicode="&#x44d;" horiz-adv-x="640" 
d="M30 180h150q18 -37 51.5 -54.5t78.5 -17.5q61 -1 102 29.5t57 80.5h-229v118h229q-15 49 -56 79.5t-101 30.5q-43 0 -78.5 -19t-53.5 -57h-150q27 91 101 146.5t179 55.5q128 0 214 -83t86 -208q0 -131 -88 -215t-217 -84q-100 0 -172 53.5t-103 144.5z" />
    <glyph glyph-name="afii10096" unicode="&#xfe;" horiz-adv-x="880" 
d="M187 354h78q25 96 105 157t190 61q127 0 210.5 -86.5t83.5 -209.5q0 -125 -83.5 -209.5t-210.5 -84.5q-119 0 -199.5 69.5t-95.5 176.5h-78v-228h-133v554h133v-200zM560 446q-72 0 -117 -50t-45 -120q-1 -70 44.5 -119t117.5 -49q71 0 116 49t45 119t-45 120t-116 50z
" />
    <glyph glyph-name="afii10096" unicode="&#x44e;" horiz-adv-x="880" 
d="M187 354h78q25 96 105 157t190 61q127 0 210.5 -86.5t83.5 -209.5q0 -125 -83.5 -209.5t-210.5 -84.5q-119 0 -199.5 69.5t-95.5 176.5h-78v-228h-133v554h133v-200zM560 446q-72 0 -117 -50t-45 -120q-1 -70 44.5 -119t117.5 -49q71 0 116 49t45 119t-45 120t-116 50z
" />
    <glyph glyph-name="currency" unicode="&#xa4;" horiz-adv-x="560" 
d="M27 227l44 44q-19 31 -28 63t-9 65q0 37 9 69.5t28 61.5l-44 43l79 80l44 -44q29 18 60.5 28t68.5 10q39 0 72 -9.5t62 -28.5l44 44l77 -80l-44 -43q18 -30 28 -62t10 -68q0 -38 -10 -69.5t-28 -59.5l44 -44l-77 -79l-44 44q-29 -21 -60.5 -30.5t-68.5 -8.5
q-41 0 -73.5 9t-60.5 30l-44 -44zM404 400q0 49 -36 86t-87 37q-52 0 -87.5 -37t-35.5 -86q-1 -50 35 -86.5t88 -36.5q51 -1 87 36t36 87z" />
    <glyph glyph-name="hyphenminus" unicode="-" horiz-adv-x="420" 
d="M71 377h278v-118h-278v118z" />
    <glyph glyph-name="brokenbar" unicode="&#xa6;" 
d="M243 0v296h119v-296h-119zM243 444v296h119v-296h-119z" />
    <glyph glyph-name="quotesinglbase" unicode="&#x201a;" horiz-adv-x="280" 
d="M73 0v133h133v-128q0 -46 -9 -69t-27 -40q-18 -16 -43.5 -25.5t-51.5 -10.5v67q24 0 40.5 15.5t16.5 40.5v17h-59z" />
    <glyph glyph-name="daggerdbl" unicode="&#x2021;" horiz-adv-x="560" 
d="M346 740v-148h163v-118h-163v-97h163v-118h-163v-387h-133v387h-161v118h161v97h-161v118h161v148h133z" />
    <glyph glyph-name="accent" unicode="&#x2c6;" horiz-adv-x="1" 
d="M-429 705l225 135l54 -102l-229 -125z" />
    <glyph glyph-name="perthousand" unicode="&#x2030;" horiz-adv-x="1280" 
d="M223 0l306 740h102l-306 -740h-102zM21 573q0 74 52.5 126.5t127.5 53.5q73 0 126 -53t53 -127q0 -75 -53 -127.5t-126 -52.5q-75 0 -127.5 52.5t-52.5 127.5zM132 573q0 -28 20 -48.5t48 -20.5q27 0 48 20t21 49q0 28 -20.5 48.5t-47.5 20.5q-29 -1 -49 -21t-20 -48z
M475 162q-1 74 52 127t128 53q74 0 126.5 -53t53.5 -127q0 -75 -53 -127t-127 -53q-75 0 -128 52.5t-52 127.5zM586 162q-1 -29 19.5 -49t49.5 -20q28 -1 48.5 19.5t20.5 49.5q0 28 -20.5 48.5t-48.5 20.5q-29 -1 -49 -21t-20 -48zM888 162q-1 74 52 127t128 53
q74 0 126.5 -53t53.5 -127q0 -75 -53 -127.5t-127 -52.5q-75 0 -127.5 52.5t-52.5 127.5zM999 162q0 -29 20 -49t49 -20q28 -1 48 19.5t21 49.5q0 28 -20.5 48.5t-48.5 20.5q-29 -1 -49 -21t-20 -48z" />
    <glyph glyph-name="guilsinglleft" unicode="&#x2039;" horiz-adv-x="240" 
d="M108 318l67 -58v-122l-139 130v100l139 130v-122z" />
    <glyph glyph-name="Accent" unicode="&#x2dc;" horiz-adv-x="1" 
d="M-479 879l242 101l37 -110l-242 -90z" />
    <glyph glyph-name="guilsinglright" unicode="&#x203a;" horiz-adv-x="240" 
d="M132 318l-67 58v122l139 -130v-100l-139 -130v122z" />
    <glyph glyph-name="periodcentered" unicode="&#x2219;" horiz-adv-x="250" 
d="M59 251v133h133v-133h-133z" />
    <glyph glyph-name="apple" unicode="&#xf000;" horiz-adv-x="601" 
d="M100 318q-1 82 58 141t142 59q82 0 140.5 -59t59.5 -141q0 -83 -59 -141.5t-141 -58.5q-83 0 -142 58.5t-58 141.5z" />
    <glyph glyph-name="fi" unicode="&#xf001;" horiz-adv-x="520" 
d="M57 0v436h-47v118h47v6q-1 90 51.5 140.5t140.5 51.5h25v-133h-17q-30 -1 -48.5 -17t-18.5 -42v-6h277v-554h-133v436h-144v-436h-133zM334 618v122h133v-122h-133z" />
    <glyph glyph-name="uniF002" unicode="&#xf002;" horiz-adv-x="520" 
d="M57 0v436h-47v118h47v6q-1 90 51.5 140.5t140.5 51.5h25v-133h-17q-30 -1 -48.5 -17t-18.5 -42v-6h144v186h133v-740h-133v436h-144v-436h-133z" />
    </font>
</defs>
</svg>
