<?xml version="1.0" standalone="no"?>
<!DOCTYPE svg PUBLIC "-//W3C//DTD SVG 1.1//EN" "http://www.w3.org/Graphics/SVG/1.1/DTD/svg11.dtd" >
<svg xmlns="http://www.w3.org/2000/svg" xmlns:xlink="http://www.w3.org/1999/xlink" version="1.1">
<metadata>
Created by FontForge 20141024 at Thu May  7 14:15:31 2015
 By System Administrator
Copyright 1985-1994 Adobe Systems Inc.
</metadata>
<defs>
<font id="AvantGarde-Demi" horiz-adv-x="1147" >
  <font-face 
    font-family="AvantGarde"
    font-weight="700"
    font-stretch="normal"
    units-per-em="2048"
    panose-1="2 11 8 0 0 0 0 0 0 0"
    ascent="1638"
    descent="-410"
    x-height="1137"
    cap-height="1515"
    bbox="-252 -514 2502 2091"
    underline-thickness="102"
    underline-position="-154"
    unicode-range="U+0020-F002"
  />
    <missing-glyph />
    <glyph glyph-name="two" horiz-adv-x="0" 
 />
    <glyph glyph-name="glyph1" horiz-adv-x="0" 
 />
    <glyph glyph-name="equal" unicode=" " horiz-adv-x="573" 
 />
    <glyph glyph-name="uni00A0" unicode="&#xa0;" horiz-adv-x="573" 
 />
    <glyph glyph-name="greater" unicode="!" horiz-adv-x="573" 
d="M149 385h273v1130h-273v-1130zM149 0h273v260h-273v-260z" />
    <glyph glyph-name="question" unicode="&#x22;" horiz-adv-x="737" 
d="M256 909l55 606h-272l53 -606h164zM645 909l53 606h-272l51 -606h168z" />
    <glyph glyph-name="at" unicode="#" 
d="M1014 598h-156l33 238h176l8 194h-158l56 403h-205l-55 -403h-187l56 403h-205l-55 -403h-193l-8 -194h174l-33 -238h-194l-9 -195h174l-55 -403h205l55 403h187l-56 -403h205l55 403h176zM686 836l-33 -238h-186l33 238h186z" />
    <glyph glyph-name="A" unicode="$" 
d="M119 510v-29q0 -16 8 -63t41 -111q33 -61 102 -119q70 -59 187 -96v-268h258v270q125 33 217 137q92 105 94 281q0 119 -39 199q-39 77 -92 122q-53 46 -105 70q-53 21 -86 27q-131 39 -192 75q-64 37 -64 117q0 68 46 105q43 37 90 37q75 -3 104 -46q16 -18 25 -40
q6 -23 10 -39h256q-37 274 -264 350v266h-258v-262q-133 -39 -205 -139q-76 -101 -76 -240q-2 -127 78 -238q76 -110 272 -167q49 -13 92 -25q41 -14 72 -37q62 -39 64 -137q-2 -88 -60 -131q-59 -45 -123 -45q-51 -2 -110 37q-60 37 -72 139h-270z" />
    <glyph glyph-name="B" unicode="%" horiz-adv-x="1761" 
d="M74 1175q2 -157 110 -260q103 -106 258 -108q158 2 262 108q105 103 107 260q-2 158 -107 265q-104 104 -262 106q-155 -2 -258 -106q-108 -107 -110 -265v0zM301 1175q0 64 43 105q39 39 98 39q62 0 103 -39q39 -41 39 -102q-2 -62 -41 -101q-43 -43 -101 -43
q-59 0 -98 43q-43 41 -43 98v0zM944 340q2 -160 111 -262q106 -107 260 -109q155 2 260 109q106 104 108 262q-2 158 -106 264q-105 105 -262 107q-158 -2 -260 -107q-109 -106 -111 -264v0zM1171 340q0 61 43 102q39 39 101 41q59 0 100 -39q39 -41 41 -104
q-2 -59 -41 -100q-41 -43 -100 -43q-60 0 -101 43q-43 41 -43 100v0zM459 0h207l628 1515h-209z" />
    <glyph glyph-name="C" unicode="&#x26;" horiz-adv-x="1393" 
d="M1051 895l-148 -252v0l-139 156q61 28 147 114q41 43 66 109q26 63 26 149q-2 168 -116 273q-113 100 -275 102q-149 0 -264 -100q-119 -103 -121 -283q0 -92 39 -158q35 -65 88 -126q-35 -19 -80 -52q-47 -32 -94 -84q-47 -49 -78 -120q-32 -74 -32 -172
q4 -230 163 -355q154 -125 336 -127q80 2 144 27q61 24 108 59q49 39 82 76t51 66v0l209 -228v0l199 176l-268 291l260 459h-303zM594 987q-43 45 -76 88q-33 39 -33 88q0 55 41 90q35 35 86 35q76 -2 105 -41q28 -39 28 -88q-2 -65 -45 -104q-45 -39 -106 -68v0zM764 403
q-23 -49 -74 -106q-24 -25 -59 -41q-33 -20 -80 -20q-80 0 -141 53q-66 51 -68 149q0 53 23 92q20 37 49 64q30 29 61 43q29 16 51 24z" />
    <glyph glyph-name="Ucircumflex" unicode="&#x2019;" horiz-adv-x="573" 
d="M147 1243h121v-35q-2 -65 -39 -88q-39 -22 -80 -28v-138q84 -4 175 54q45 30 69 86q27 51 27 133v288h-273v-272z" />
    <glyph glyph-name="E" unicode="(" horiz-adv-x="778" 
d="M717 -27q-86 58 -180 222q-101 159 -105 415q-2 176 68 344q67 170 217 295v295v0q-56 -22 -121 -57q-66 -39 -139 -111q-299 -297 -305 -768q4 -289 108 -475q47 -92 94 -160q45 -67 78 -104q90 -96 160 -133q37 -21 67 -33q31 -12 58 -24v294z" />
    <glyph glyph-name="F" unicode=")" horiz-adv-x="778" 
d="M76 1249q41 -26 92 -82q47 -55 90 -135q98 -164 102 -420q0 -172 -65 -342q-66 -168 -219 -297v-294v0q59 22 123 61q63 39 137 106q299 299 305 768q0 146 -29 267q-30 120 -78 213q-45 92 -92 159q-47 64 -82 101q-88 96 -157 135q-35 22 -66 35q-33 12 -61 20v-295z
" />
    <glyph glyph-name="G" unicode="*" horiz-adv-x="901" 
d="M557 1546l-104 -188v0l-105 188v0l-115 -80l113 -170l-209 11l2 -138l209 11l-117 -170l125 -74v0l97 188v0l94 -188v0l125 74l-115 170l207 -11l2 138l-209 -11l115 170l-115 80v0z" />
    <glyph glyph-name="H" unicode="+" horiz-adv-x="1229" 
d="M491 641h-393v-246h393v-395h246v395h393v246h-393v395h-246v-395z" />
    <glyph glyph-name="I" unicode="," horiz-adv-x="573" 
d="M149 0h121v-35q-2 -65 -39 -88q-39 -22 -79 -29v-137q84 -4 174 54q45 30 69 86q27 51 27 133v288h-273v-272z" />
    <glyph glyph-name="J" unicode="-" horiz-adv-x="860" 
d="M145 471h570v242h-570v-242z" />
    <glyph glyph-name="uni00AD" unicode="&#xad;" horiz-adv-x="860" 
d="M145 471h570v242h-570v-242z" />
    <glyph glyph-name="K" unicode="." horiz-adv-x="573" 
d="M149 0h273v272h-273v-272z" />
    <glyph glyph-name="L" unicode="/" horiz-adv-x="942" 
d="M12 -205h275l643 1720h-277z" />
    <glyph glyph-name="M" unicode="0" 
d="M1083 1036q-4 258 -161 385q-154 125 -338 125q-193 0 -351 -119q-163 -123 -167 -391v-545q0 -124 32 -208q31 -88 92 -148q168 -168 385 -166q207 2 355 131q149 131 153 377v559zM811 502q0 -88 -25 -142q-24 -53 -63 -84q-37 -26 -76 -36q-41 -13 -72 -13
q-73 -2 -151 56q-37 30 -59 86q-27 55 -27 139v516q2 131 72 199q67 65 167 65q99 0 166 -70q66 -69 68 -184v-532z" />
    <glyph glyph-name="N" unicode="1" 
d="M471 0h272v1515h-462v-258h190v-1257z" />
    <glyph glyph-name="O" unicode="2" 
d="M90 0h981v258h-600l307 274q172 156 236 279q59 123 57 238q-2 194 -133 344q-131 149 -367 153q-237 -4 -364 -160q-133 -151 -133 -342q0 -20 2 -49h270q-4 92 29 170q24 45 73 84q50 37 129 39q82 0 150 -53q70 -55 72 -174q2 -51 -27 -123q-31 -72 -141 -176
l-541 -504v-258z" />
    <glyph glyph-name="P" unicode="3" 
d="M471 725h45q86 0 143 -21q60 -22 93 -59q36 -35 51 -78q14 -47 14 -94q-2 -113 -76 -178q-75 -68 -166 -68q-75 0 -151 56q-35 28 -59 71q-29 43 -35 103h-273q23 -230 170 -357q148 -129 342 -131q209 2 361 137q155 136 159 371q0 21 -2 68q-6 49 -26 108
q-21 62 -70 121q-51 57 -141 94q35 21 82 82q22 35 37 80q12 45 12 107q-2 165 -117 284q-112 121 -295 125q-84 4 -225 -65q-65 -39 -115 -119q-49 -82 -63 -213h272q2 39 33 88t102 51q56 0 95 -29q39 -32 41 -114q-2 -88 -58 -123q-57 -39 -133 -39h-47v-258z" />
    <glyph glyph-name="Q" unicode="4" 
d="M31 451v-224h653v-227h272v227h160v258h-160v1030h-229zM324 485l356 570h4v-570h-360z" />
    <glyph glyph-name="R" unicode="5" 
d="M119 723l243 -68v0q27 37 74 72t131 37q121 -2 191 -86q65 -82 65 -180q0 -99 -63 -181q-64 -88 -197 -90q-67 -2 -139 47q-35 27 -59 70q-29 43 -41 107h-273q17 -203 164 -338q147 -140 354 -144q238 4 381 162q144 154 146 367q-2 211 -136 364q-133 156 -348 160
q-106 -2 -194 -43l49 278h481v258h-686z" />
    <glyph glyph-name="S" unicode="6" 
d="M592 1513l-422 -643q-51 -77 -88 -170q-35 -102 -35 -188q4 -252 162 -395q156 -146 364 -148q215 2 367 154q154 147 158 391q-4 229 -142 360q-137 131 -307 134q-39 0 -74 -7l336 512h-319zM319 500q0 90 66 172q61 82 182 84q113 -2 187 -76q69 -76 71 -191
q0 -94 -63 -174q-66 -86 -189 -88q-110 0 -180 82q-71 78 -74 191v0z" />
    <glyph glyph-name="T" unicode="7" 
d="M170 0h303l547 1257v258h-893v-258h608z" />
    <glyph glyph-name="U" unicode="8" 
d="M293 842q-53 -23 -135 -109q-37 -43 -64 -110q-26 -68 -26 -162q4 -213 155 -350q146 -140 350 -142q207 2 355 142q147 137 151 350q-2 94 -24 162q-25 67 -64 110q-39 45 -74 72q-36 24 -63 37q41 37 88 106q47 68 49 180q0 160 -108 287q-109 127 -310 131
q-198 -4 -305 -131q-110 -127 -110 -287q2 -112 51 -180q22 -35 43 -59q22 -29 41 -47v0zM735 1124q0 -67 -45 -112q-47 -50 -117 -50q-65 0 -110 50q-49 45 -49 112q0 70 49 117q45 45 110 47q70 -2 117 -47q45 -47 45 -117v0zM807 461q-2 -96 -66 -164q-67 -70 -168 -70
q-96 0 -163 70q-70 68 -70 164q0 100 70 168q67 63 163 65q101 -2 168 -65q64 -68 66 -168v0z" />
    <glyph glyph-name="V" unicode="9" 
d="M555 0l422 643q51 78 88 170q35 104 35 188q-4 252 -160 398q-154 143 -367 145q-213 -2 -364 -149q-156 -148 -160 -396q4 -229 146 -358q135 -131 303 -135q41 -2 73 6l-335 -512h319zM827 1014q0 -88 -63 -168q-66 -86 -189 -88q-112 0 -182 78q-71 73 -71 188
q0 94 65 176q66 84 188 86q111 -2 181 -80q69 -76 71 -192v0z" />
    <glyph glyph-name="W" unicode=":" horiz-adv-x="573" 
d="M149 0h273v272h-273v-272zM149 864h273v273h-273v-273z" />
    <glyph glyph-name="X" unicode=";" horiz-adv-x="573" 
d="M149 0h121v-35q-2 -65 -39 -88q-39 -22 -79 -29v-137q84 -4 174 54q45 30 69 86q27 51 27 133v288h-273v-272zM149 864h273v273h-273v-273z" />
    <glyph glyph-name="Y" unicode="&#x3c;" horiz-adv-x="1229" 
d="M1135 -16v235l-721 299l721 299v236v0l-1041 -439v-192l1041 -438v0z" />
    <glyph glyph-name="Z" unicode="=" horiz-adv-x="1229" 
d="M1130 870h-1032v-245h1032v245zM1130 412h-1032v-246h1032v246z" />
    <glyph glyph-name="bracketleft" unicode="&#x3e;" horiz-adv-x="1229" 
d="M94 219v-235v0l1041 438v192l-1041 439v0v-236l721 -299z" />
    <glyph glyph-name="backslash" unicode="?" 
d="M668 383v70q0 53 12 92q10 37 29 65q36 56 90 97q135 126 174 215q20 47 28 86q4 36 4 71q-4 225 -139 346q-133 121 -317 121q-12 0 -76 -6q-68 -10 -154 -51t-153 -139q-70 -101 -88 -277h272q6 68 41 133q21 31 57 49q35 19 93 19q61 2 125 -37q30 -21 49 -57
q18 -39 18 -101q0 -65 -41 -117q-41 -51 -115 -110q-102 -86 -141 -193q-41 -108 -41 -217v-59h273zM395 0h273v272h-273v-272z" />
    <glyph glyph-name="bracketright" unicode="@" horiz-adv-x="1515" 
d="M741 448q-75 0 -116 54q-45 47 -45 129q0 114 73 215q37 47 86 76q47 28 107 28q73 -2 116 -49q41 -47 41 -125q0 -112 -69 -215q-35 -49 -82 -80q-49 -33 -111 -33v0zM1059 981h-4q-25 76 -82 108q-60 33 -131 33q-201 -4 -318 -160q-121 -155 -123 -356q2 -135 90 -229
q84 -98 213 -101q140 0 224 117h4q4 -57 39 -86q32 -31 80 -31q61 0 143 37q82 35 160 105q77 69 129 180q51 109 53 252q-4 276 -205 440q-199 166 -479 168q-315 -4 -526 -213q-220 -207 -224 -526q4 -324 224 -531q213 -208 536 -213q391 5 608 330h-155
q-172 -184 -445 -186q-262 2 -428 168q-170 161 -172 426q2 256 166 426q158 172 414 176q225 0 375 -127q149 -129 151 -371q-2 -149 -78 -256q-32 -51 -73 -80q-41 -33 -82 -33q-37 0 -35 39q0 37 14 82l137 525h-170z" />
    <glyph glyph-name="asciicircum" unicode="A" horiz-adv-x="1515" 
d="M14 0h310l161 391h543l162 -391h309l-635 1515h-219zM752 1120h4l172 -465h-348z" />
    <glyph glyph-name="underscore" unicode="B" horiz-adv-x="1188" 
d="M143 0h406q78 0 190 16q111 17 201 74q74 49 131 137q55 88 57 224q0 98 -24 163q-25 68 -66 109q-41 43 -84 67q-45 25 -86 37q21 13 49 33q29 19 56 51q28 35 47 86q18 49 18 119q-4 170 -129 283q-98 86 -219 102t-248 14h-299v-1515zM424 664h147q93 0 150 -21
q55 -23 82 -57q30 -31 39 -66q6 -35 6 -59q0 -74 -33 -113q-35 -41 -86 -59q-47 -17 -92 -23q-47 -4 -72 -4h-141v402zM424 1253h117q118 -2 170 -47q47 -47 47 -117q0 -61 -27 -94t-67 -49q-41 -14 -80 -16q-41 -4 -68 -4h-92v327z" />
    <glyph glyph-name="grave" unicode="C" horiz-adv-x="1597" 
d="M1235 422l-57 -57q-37 -31 -82 -64q-45 -29 -105 -47q-61 -23 -137 -23q-205 2 -350 160q-152 152 -154 369q4 231 156 377q145 145 338 147q248 -4 405 -201h320q-115 248 -316 357q-200 106 -399 106q-336 -4 -555 -233q-225 -226 -229 -549q4 -330 231 -557
q223 -232 559 -238q223 2 416 123q190 119 284 330h-325z" />
    <glyph glyph-name="a" unicode="D" horiz-adv-x="1433" 
d="M129 0h350q131 0 266 20q131 21 238 78q168 97 266 273q94 176 96 383q-8 378 -249 585q-31 31 -80 62q-49 32 -123 57q-143 55 -420 57h-344v-1515zM410 1253h53q133 0 244 -22q110 -27 196 -105q158 -139 162 -372q0 -123 -55 -238q-58 -115 -172 -180
q-160 -80 -369 -74h-59v991z" />
    <glyph glyph-name="b" unicode="E" horiz-adv-x="1065" 
d="M125 0h815v262h-535v358h512v263h-512v370h535v262h-815v-1515z" />
    <glyph glyph-name="c" unicode="F" horiz-adv-x="983" 
d="M125 0h280v620h469v263h-469v370h492v262h-772v-1515z" />
    <glyph glyph-name="d" unicode="G" horiz-adv-x="1720" 
d="M684 510h635q-150 -274 -449 -279q-270 7 -401 177q-133 165 -133 348q0 190 133 354q133 168 387 174q152 -2 254 -68q102 -65 151 -145h336q-61 172 -252 319q-194 152 -483 156q-330 -4 -561 -225q-242 -219 -246 -563q4 -348 246 -563q233 -222 569 -226
q330 4 561 226q236 215 242 544v33h-989v-262z" />
    <glyph glyph-name="e" unicode="H" horiz-adv-x="1393" 
d="M145 0h281v637h543v-637h280v1515h-280v-616h-543v616h-281v-1515z" />
    <glyph glyph-name="f" unicode="I" horiz-adv-x="573" 
d="M147 0h281v1515h-281v-1515z" />
    <glyph glyph-name="g" unicode="J" horiz-adv-x="983" 
d="M557 1515v-1103q0 -52 -23 -113q-24 -66 -114 -68q-105 0 -133 125h-283q8 -55 35 -125q24 -67 76 -131q41 -45 118 -86q78 -43 191 -45q45 0 115 17q69 16 137 63q69 49 114 139q46 93 48 242v1085h-281z" />
    <glyph glyph-name="h" unicode="K" horiz-adv-x="1270" 
d="M182 0h281v666h4l473 -666h330l-572 770l572 745h-330l-473 -655h-4v655h-281v-1515z" />
    <glyph glyph-name="i" unicode="L" horiz-adv-x="901" 
d="M147 0h744v262h-463v1253h-281v-1515z" />
    <glyph glyph-name="j" unicode="M" horiz-adv-x="1843" 
d="M129 0h281v1137h4l389 -1137h237l387 1137h4h2v-1137h281v1515h-389l-399 -1146h-4l-404 1146h-389v-1515z" />
    <glyph glyph-name="k" unicode="N" horiz-adv-x="1515" 
d="M143 0h281v1102h4l633 -1102h313v1515h-280v-1101h-5l-626 1101h-320v-1515z" />
    <glyph glyph-name="l" unicode="O" horiz-adv-x="1720" 
d="M68 754q4 -334 233 -553q225 -228 559 -232q338 4 561 232q228 219 232 553q-4 346 -234 565q-227 223 -559 227q-332 -4 -555 -227q-233 -219 -237 -565v0zM348 756q2 225 152 374q143 150 360 154q221 -4 365 -154q145 -149 147 -374q-2 -215 -145 -367
q-144 -156 -367 -158q-219 2 -362 158q-148 152 -150 367v0z" />
    <glyph glyph-name="m" unicode="P" 
d="M147 0h281v577h100q123 -2 232 17q106 18 213 104q143 135 143 348t-143 349q-107 88 -213 106q-109 16 -232 14h-381v-1515zM428 1253h100q95 2 199 -28q47 -17 80 -60q29 -43 29 -119q-3 -73 -31 -112q-31 -43 -82 -64q-47 -20 -100 -24q-58 -6 -105 -6h-90v413z" />
    <glyph glyph-name="n" unicode="Q" horiz-adv-x="1720" 
d="M1687 231h-45q-20 0 -65 11q-47 8 -92 39q22 30 53 71q29 41 53 99q27 57 43 137q17 78 17 176q-5 340 -236 559q-227 219 -557 223q-332 -4 -555 -227q-233 -219 -237 -565q4 -334 233 -553q225 -228 559 -232q238 2 430 125v0q53 -37 141 -78q88 -45 220 -47h38v262z
M1065 276q-29 -12 -78 -26q-51 -19 -129 -19q-88 -4 -211 50q-121 51 -213 184q41 16 121 18q109 0 231 -43q121 -47 279 -164v0zM1259 440q0 6 -51 51q-53 46 -149 103q-97 61 -223 106q-62 23 -132 35q-69 10 -147 10q-78 2 -127 -2q-25 -2 -43 -6t-37 -10q-4 6 -4 47
q10 193 143 348q131 158 369 162q215 -2 363 -149q145 -146 149 -379q0 -68 -10 -117q-10 -51 -27 -88q-16 -37 -35 -62q-18 -26 -34 -49h-5z" />
    <glyph glyph-name="o" unicode="R" horiz-adv-x="1188" 
d="M131 0h281v580h4l401 -580h340l-412 559q60 14 123 39q62 22 129 86q82 84 115 184q31 103 31 178q-2 132 -56 224q-55 92 -122 143q-119 102 -369 102h-465v-1515zM412 1253h180q82 0 137 -22q51 -23 82 -60q31 -34 41 -73t10 -74q2 -66 -47 -145q-27 -37 -80 -62
q-55 -27 -143 -27h-180v463z" />
    <glyph glyph-name="p" unicode="S" horiz-adv-x="1065" 
d="M25 434q8 -123 59 -211q47 -90 123 -145q37 -27 78 -45q41 -21 80 -37q81 -27 153 -27q186 0 336 119q151 119 156 365q-2 124 -43 208q-43 84 -107 136q-63 51 -129 82q-67 26 -119 40q-55 21 -102 39q-45 19 -80 39q-70 39 -70 133q0 70 48 113q43 41 108 41
q59 0 111 -33q49 -37 59 -137h287q-4 117 -49 201q-43 82 -113 133q-145 98 -287 98q-194 -2 -317 -125q-125 -121 -127 -307q0 -119 41 -195q39 -75 96 -124q59 -45 119 -72q59 -27 104 -45q72 -25 127 -45q53 -23 90 -49q37 -27 56 -64q16 -39 16 -98q-2 -86 -61 -137
q-62 -54 -148 -54q-67 0 -125 48q-61 45 -76 155h-294z" />
    <glyph glyph-name="q" unicode="T" horiz-adv-x="860" 
d="M293 0h280v1253h283v262h-844v-262h281v-1253z" />
    <glyph glyph-name="r" unicode="U" horiz-adv-x="1311" 
d="M113 1515v-962q0 -137 30 -227q27 -90 64 -140q49 -69 164 -139q114 -74 286 -78q158 2 273 68q114 63 180 158q55 77 72 172q16 94 16 186v962h-281v-962v-33q0 -22 -4 -47q-2 -25 -8 -51q-8 -29 -20 -57q-23 -54 -78 -93q-53 -41 -152 -41q-96 0 -151 41q-53 39 -78 93
q-12 28 -18 57q-7 26 -11 51q-2 25 -2 47q-2 21 -2 33l2 962h-282z" />
    <glyph glyph-name="s" unicode="V" horiz-adv-x="1433" 
d="M606 0h230l587 1515h-295l-407 -1153h-4l-406 1153h-295z" />
    <glyph glyph-name="t" unicode="W" horiz-adv-x="1843" 
d="M457 0h221l250 1001h4l246 -1001h223l440 1515h-287l-264 -1058h-4l-254 1058h-205l-260 -1058h-4l-262 1058h-287z" />
    <glyph glyph-name="u" unicode="X" horiz-adv-x="1393" 
d="M8 0h334l354 524v0l365 -524h323l-524 756l524 759h-323l-365 -528v0l-354 528h-334l522 -759z" />
    <glyph glyph-name="v" unicode="Y" horiz-adv-x="1270" 
d="M494 0h280v559l500 956h-309l-332 -696v0l-330 696h-307l498 -956v-559z" />
    <glyph glyph-name="w" unicode="Z" horiz-adv-x="1024" 
d="M39 229v-229h946v262h-614l575 1010v243h-876v-262h548z" />
    <glyph glyph-name="x" unicode="[" horiz-adv-x="655" 
d="M582 1544v0q-43 -10 -113 -41q-74 -33 -150 -98q-75 -66 -127 -182q-57 -119 -57 -304v-550q0 -95 17 -197q18 -106 63 -207q47 -98 135 -174q88 -78 232 -112v0v298q-23 13 -52 29q-28 19 -53 53q-24 35 -41 99q-20 61 -20 161v543q0 115 16 184q14 70 39 109t53 59
q29 21 58 31v299z" />
    <glyph glyph-name="y" unicode="\" horiz-adv-x="1311" 
d="M473 1515h-276l643 -1720h274z" />
    <glyph glyph-name="z" unicode="]" horiz-adv-x="655" 
d="M74 -321v0q45 12 118 45q72 30 148 96q76 65 127 184q51 117 53 299v551q0 96 -12 203q-19 102 -64 202q-45 101 -133 174q-90 76 -237 111v0v-299q24 -8 55 -24q29 -17 53 -54q25 -35 41 -98q17 -64 17 -166v-541q0 -112 -13 -182q-14 -69 -39 -108q-24 -39 -53 -58
q-31 -20 -61 -34v-301z" />
    <glyph glyph-name="braceleft" unicode="^" horiz-adv-x="1229" 
d="M393 768l221 508v0l219 -508h246l-356 747h-217l-357 -747h244z" />
    <glyph glyph-name="bar" unicode="_" horiz-adv-x="1024" 
d="M1024 -256v102h-1024v-102h1024z" />
    <glyph glyph-name="Uacute" unicode="&#x2018;" horiz-adv-x="573" 
d="M420 1227h-119q-2 12 -2 34q2 68 43 91q18 12 41 18q18 4 35 6v139q-82 7 -172 -51q-41 -28 -68 -84q-31 -55 -31 -137v-289h273v273z" />
    <glyph glyph-name="asciitilde" unicode="a" horiz-adv-x="1352" 
d="M1255 1137h-250v-144h-4q-2 8 -26 37q-27 29 -76 62q-49 34 -117 59q-67 22 -157 24q-242 -2 -402 -167q-166 -166 -168 -433q4 -286 168 -446q160 -164 385 -166q111 2 221 53q109 47 176 125v0v-141h250v1137zM997 571q-2 -159 -94 -258q-92 -100 -237 -100
q-148 2 -240 104q-96 99 -98 246q0 135 86 246q86 113 252 117q129 0 229 -88t102 -267v0z" />
    <glyph glyph-name="Adieresis" unicode="b" horiz-adv-x="1352" 
d="M96 0h250v137v0q27 -26 59 -55q33 -31 78 -59q86 -58 246 -60q156 2 266 66q107 61 174 155q68 99 97 201q28 104 28 188q-2 238 -153 416q-154 182 -418 186q-201 0 -354 -141v0v481h-273v-1515zM352 584q0 131 92 235q88 103 246 107q135 -2 232 -93q98 -94 100 -262
q-2 -166 -96 -260q-93 -98 -232 -98q-125 0 -229 92q-109 92 -113 279v0z" />
    <glyph glyph-name="Aring" unicode="c" horiz-adv-x="1311" 
d="M942 371q-113 -162 -252 -158q-156 2 -246 106q-96 103 -96 250q2 176 105 267q98 90 225 90q65 0 110 -17q43 -16 74 -43q31 -24 51 -53q19 -31 29 -53h307q-45 133 -117 215q-71 82 -157 125q-84 45 -162 61q-78 14 -135 14q-242 -2 -416 -170q-182 -165 -186 -432
q6 -284 194 -444q183 -164 410 -166q416 8 569 408h-307z" />
    <glyph glyph-name="Ccedilla" unicode="d" horiz-adv-x="1352" 
d="M1266 1515h-273v-479v0q-57 66 -139 103q-80 36 -205 36q-213 -2 -391 -159q-182 -158 -188 -449q4 -276 182 -438q172 -164 397 -166q144 2 236 60q90 53 127 116h4v-139h250v1515zM342 577q0 127 94 236q88 109 242 113q147 -2 241 -107q93 -102 95 -250
q-2 -135 -90 -241q-91 -113 -246 -115q-137 2 -234 104q-100 101 -102 260v0z" />
    <glyph glyph-name="Eacute" unicode="e" horiz-adv-x="1311" 
d="M1233 446q14 58 16 138q-2 225 -157 407q-156 184 -431 191q-266 -4 -428 -187q-167 -180 -170 -430q3 -254 175 -424q167 -174 426 -178q202 4 350 123q147 113 198 272h-286q-78 -145 -262 -145q-72 0 -127 27q-56 26 -97 63q-39 37 -61 78q-23 37 -29 65h883zM342 666
q23 79 59 133q37 51 84 82q47 30 95 41q47 10 84 10q104 0 194 -64q88 -63 113 -202h-629z" />
    <glyph glyph-name="Ntilde" unicode="f" horiz-adv-x="573" 
d="M127 0h272v895h160v242h-160q4 51 19 81q12 31 35 41q43 23 120 19v268h-75q-133 -2 -238 -92q-82 -80 -106 -168q-13 -43 -19 -80q-6 -39 -8 -69h-96v-242h96v-895z" />
    <glyph glyph-name="Odieresis" unicode="g" horiz-adv-x="1352" 
d="M1012 1137v-140h-4q-11 19 -35 49q-27 29 -70 58q-43 33 -104 51q-64 20 -154 20q-225 -2 -397 -163q-178 -160 -182 -432q6 -289 188 -451q176 -164 393 -166q90 0 154 23q63 20 106 51q47 31 74 61q27 29 39 47l4 -4q-16 -182 -121 -268q-104 -86 -227 -86
q-35 -2 -115 16q-39 13 -82 39q-43 27 -84 72h-311q80 -190 238 -283q155 -94 333 -94q84 0 191 31q104 31 203 102q98 74 161 205q64 131 66 334v928h-264zM1003 580q-2 -170 -100 -269q-96 -98 -225 -98t-230 98q-108 94 -110 266q2 166 106 256q99 91 226 93
q155 -4 243 -111q88 -106 90 -235v0z" />
    <glyph glyph-name="Udieresis" unicode="h" horiz-adv-x="1229" 
d="M111 0h272v577q-4 87 29 213q20 58 69 97q45 39 131 39t133 -35q50 -35 70 -90q21 -54 27 -113q4 -59 4 -106v-582h272v641q0 68 -10 170q-14 102 -80 190q-141 170 -350 174q-125 -2 -197 -45q-35 -18 -59 -38q-25 -23 -39 -35v0v458h-272v-1515z" />
    <glyph glyph-name="aacute" unicode="i" horiz-adv-x="491" 
d="M109 0h272v1137h-272v-1137zM109 1266h272v249h-272v-249z" />
    <glyph glyph-name="agrave" unicode="j" horiz-adv-x="532" 
d="M147 1137v-1082q0 -102 -24 -133q-27 -28 -90 -35v-266q180 6 284 123q101 115 103 305v1088h-273zM147 1266h273v249h-273v-249z" />
    <glyph glyph-name="acircumflex" unicode="k" horiz-adv-x="1188" 
d="M164 0h272v532h4l385 -532h344l-462 580l409 557h-313l-363 -535h-4v913h-272v-1515z" />
    <glyph glyph-name="adieresis" unicode="l" horiz-adv-x="491" 
d="M111 0h272v1515h-272v-1515z" />
    <glyph glyph-name="atilde" unicode="m" horiz-adv-x="1925" 
d="M111 0h272v567q0 49 4 109q4 59 25 117q20 57 65 96q43 35 123 37q125 -2 178 -88q49 -86 49 -207v-631h273v567q-2 60 6 129q6 72 35 123q67 105 188 107q82 -2 127 -37q43 -35 61 -86q21 -51 25 -99q2 -47 2 -73v-631h272v664q-2 124 -24 210q-27 82 -62 125
q-28 50 -116 111q-45 29 -109 47q-63 18 -149 18q-62 3 -168 -24q-49 -14 -101 -51q-51 -39 -98 -103v0q-39 62 -86 99q-47 36 -94 53q-47 18 -84 24q-37 2 -64 2q-73 0 -124 -14q-52 -16 -89 -39q-34 -20 -53 -43q-20 -22 -30 -39h-5v97h-249v-1137z" />
    <glyph glyph-name="aring" unicode="n" horiz-adv-x="1229" 
d="M111 0h272v541q-2 75 6 153q8 76 43 131q39 58 94 80q54 21 92 21q86 -2 134 -43q47 -41 67 -103q21 -59 27 -121q2 -59 2 -98v-561h272v614q2 72 -12 191q-14 117 -92 213q-74 86 -168 123q-96 34 -174 34q-127 -2 -203 -51q-37 -20 -63 -43q-27 -24 -46 -43v0v99h-251
v-1137z" />
    <glyph glyph-name="ccedilla" unicode="o" horiz-adv-x="1311" 
d="M657 -37q246 2 420 166q178 160 182 442q-4 267 -178 434q-174 168 -424 170q-249 -4 -424 -174q-178 -170 -182 -434q2 -250 178 -424q170 -176 428 -180v0zM657 213q-133 0 -229 98q-102 94 -104 256q4 178 114 271q107 88 219 88q133 -2 230 -101q98 -100 100 -260
q-2 -139 -90 -243q-88 -107 -240 -109v0z" />
    <glyph glyph-name="eacute" unicode="p" horiz-adv-x="1352" 
d="M96 -379h273v488v0q28 -25 61 -50q31 -24 70 -47q77 -47 219 -49q248 4 407 180q158 172 162 430q0 224 -143 408q-146 188 -426 194q-19 0 -60 -2q-39 -2 -92 -18q-53 -14 -108 -51q-56 -37 -109 -101h-4v134h-250v-1516zM352 569q2 168 107 262q98 95 229 95
q131 -2 227 -99q99 -98 101 -258q-4 -174 -109 -264q-104 -92 -223 -92q-102 -2 -213 86q-49 43 -82 111q-37 67 -37 159v0z" />
    <glyph glyph-name="egrave" unicode="q" horiz-adv-x="1352" 
d="M1005 1137v-144h-4q-12 23 -36 56q-27 30 -70 59t-105 49q-63 18 -151 18q-240 -4 -403 -174q-168 -170 -173 -421q3 -242 158 -424q154 -189 416 -193q31 -2 137 19q51 14 107 45q53 30 102 82v0v-488h272v1516h-250zM336 573q0 146 94 248q92 103 238 105
q153 -4 241 -111q88 -106 88 -248q-2 -139 -90 -243q-90 -109 -237 -111q-131 0 -230 94q-102 94 -104 266v0z" />
    <glyph glyph-name="ecircumflex" unicode="r" horiz-adv-x="655" 
d="M129 0h272v639q0 29 4 72q7 45 29 88q23 45 74 77q51 31 141 35v264h-22q-101 -2 -154 -40q-53 -41 -90 -99h-4v101h-250v-1137z" />
    <glyph glyph-name="edieresis" unicode="s" horiz-adv-x="901" 
d="M831 827q-12 170 -122 260q-113 88 -248 88q-142 -2 -256 -92q-121 -92 -125 -260q0 -67 22 -121q23 -55 58 -94q37 -39 84 -65q43 -27 90 -45q145 -45 203 -76q53 -33 53 -94q0 -37 -27 -74q-29 -39 -96 -41q-82 2 -111 55q-14 23 -24 47q-8 25 -15 43h-278
q4 -53 20 -114q9 -31 27 -64q14 -33 39 -67q70 -82 162 -115q92 -35 178 -35q153 2 274 105q119 102 123 292q0 86 -29 148q-28 57 -75 94q-47 39 -101 64q-55 20 -112 34q-105 35 -150 60q-45 22 -43 67q0 39 29 68q27 29 76 31q24 0 59 -15q16 -10 31 -28q12 -21 18 -56
h266z" />
    <glyph glyph-name="iacute" unicode="t" horiz-adv-x="614" 
d="M176 0h272v895h164v242h-164v378h-272v-378h-133v-242h133v-895z" />
    <glyph glyph-name="igrave" unicode="u" horiz-adv-x="1229" 
d="M842 1137v-582q0 -139 -49 -238q-54 -102 -181 -104q-88 0 -135 43q-51 39 -72 96q-20 58 -26 115q-4 55 -4 90v580h-273v-594q-2 -76 13 -189q12 -114 71 -211q43 -61 138 -118q92 -60 243 -62q68 0 115 17q49 16 82 36q33 25 57 52q25 24 39 47h4v-115h250v1137h-272z
" />
    <glyph glyph-name="icircumflex" unicode="v" 
d="M465 0h213l461 1137h-299l-258 -754h-7l-274 754h-295z" />
    <glyph glyph-name="idieresis" unicode="w" horiz-adv-x="1638" 
d="M432 0h168l215 737h4l213 -737h168l416 1137h-291l-209 -695h-4l-184 695h-217l-187 -695h-4l-207 695h-290z" />
    <glyph glyph-name="ntilde" unicode="x" 
d="M6 0h324l241 389v0l244 -389h324l-408 586l352 551h-305l-207 -342v0l-209 342h-305l353 -551z" />
    <glyph glyph-name="oacute" unicode="y" horiz-adv-x="1188" 
d="M223 -379h293l653 1516h-309l-274 -729v0l-258 729h-312l416 -1031z" />
    <glyph glyph-name="ograve" unicode="z" horiz-adv-x="942" 
d="M41 0h864v250h-538l503 637v250h-772v-250h447l-504 -637v-250z" />
    <glyph glyph-name="ocircumflex" unicode="{" horiz-adv-x="696" 
d="M-6 477q45 2 119 -20q75 -27 79 -123v-443q0 -73 33 -124q29 -56 72 -88q94 -70 168 -70h184v184h-92q-53 2 -70 47q-16 43 -14 86v434q0 74 -22 117q-25 43 -66 64q-37 20 -82 28q-45 6 -86 6v7q86 0 168 43q41 22 66 59q22 37 22 94v434q-2 45 14 88q17 43 70 45h92
v185h-184q-74 0 -168 -66q-43 -33 -72 -88q-33 -55 -33 -129v-442q0 -39 -22 -64q-23 -26 -57 -39q-74 -24 -119 -22v-203z" />
    <glyph glyph-name="odieresis" unicode="|" horiz-adv-x="1229" 
d="M477 1515v-1720h273v1720h-273z" />
    <glyph glyph-name="otilde" unicode="}" horiz-adv-x="696" 
d="M702 680q-45 -2 -116 22q-33 13 -56 39q-26 25 -26 64v442q0 74 -29 129t-74 88q-43 33 -88 51q-47 15 -82 15h-184v-185h92q56 -2 72 -45q12 -43 12 -88v-434q4 -57 29 -94q27 -37 63 -59q39 -21 82 -31q45 -8 82 -12v-7q-37 0 -82 -6q-43 -8 -82 -28q-36 -21 -63 -64
q-25 -43 -29 -117v-434q0 -43 -12 -86q-16 -45 -72 -47h-92v-184h184q74 0 170 70q45 32 74 88q29 51 29 124v443q0 49 26 80q23 28 56 43q71 22 116 20v203z" />
    <glyph glyph-name="uacute" unicode="~" horiz-adv-x="1229" 
d="M1018 711v0q-35 -54 -78 -97q-45 -47 -107 -47q-40 0 -94 25q-55 22 -114 49q-60 29 -115 47q-59 19 -113 19q-100 -3 -161 -56q-31 -24 -56 -57q-24 -35 -43 -70l74 -196v0q27 55 70 96q38 43 106 45q72 0 129 -21q57 -22 107 -51q51 -28 102 -47q51 -20 106 -20
q95 2 154 59q31 27 57 57q25 33 50 64z" />
    <glyph glyph-name="fl" unicode="&#xa1;" horiz-adv-x="573" 
d="M152 750v-1129h272v1129h-272zM152 1137v-261h272v261h-272z" />
    <glyph glyph-name="questiondown" unicode="&#xa2;" 
d="M715 80v223q69 16 168 80q47 37 94 96q45 62 82 156h-299q-31 -33 -70 -55q-41 -27 -104 -27q-97 0 -160 65q-66 62 -66 158q2 100 68 164q61 59 154 61q57 0 110 -22q51 -25 80 -72h287q-27 127 -123 221q-55 58 -107 84q-53 27 -114 43v209h-258v-209
q-162 -37 -265 -168q-102 -133 -104 -303q0 -149 96 -293q95 -143 273 -188v-223h258z" />
    <glyph glyph-name="exclamdown" unicode="&#xa3;" 
d="M78 0h581q142 0 238 49q94 47 149 119q58 72 82 149q23 78 23 142q0 8 -2 41q-2 32 -19 63h-272q21 -74 21 -102q0 -60 -41 -127q-25 -31 -64 -53q-39 -23 -100 -23h-23q10 25 17 57q6 31 6 78q0 82 -15 133q-14 49 -49 111h223v258h-425q-58 63 -58 149q0 88 55 164
q54 78 166 80q64 0 125 -41q58 -43 78 -135h277q0 119 -121 270q-58 70 -148 117q-92 45 -213 47q-219 -4 -352 -149q-137 -146 -139 -338q0 -62 12 -101q10 -39 21 -63h-115v-258h289q43 -35 77 -90q37 -58 39 -142q0 -18 -4 -55q-8 -39 -35 -92h-284v-258z" />
    <glyph glyph-name="macron" unicode="&#x2215;" horiz-adv-x="328" 
d="M-252 0h201l628 1515h-202z" />
    <glyph glyph-name="quotedblleft" unicode="&#xa5;" 
d="M711 387h335v215h-335v68l63 116h291v215h-180l282 514h-274l-318 -589v0l-315 589h-280l282 -514h-180v-215h291l65 -116v-68h-340v-215h340v-387h273v387z" />
    <glyph glyph-name="quotesinglbase" unicode="&#x192;" 
d="M782 1200q13 86 54 162q24 37 63 59q37 21 94 21h15l41 239q-15 6 -66 6q-176 -2 -295 -112q-80 -74 -111 -156q-30 -82 -45 -166l-8 -53h-194l-39 -235h192l-123 -703q-10 -70 -24 -129q-6 -31 -17 -55q-12 -27 -28 -49q-27 -43 -78 -66q-53 -24 -139 -24h-33l-41 -234
q31 -12 111 -14q168 0 303 90q98 72 137 174t63 262l127 748h191l39 235h-189z" />
    <glyph glyph-name="logicalnot" unicode="&#xa7;" 
d="M1016 1161q0 29 -15 92q-6 31 -20 64t-37 63q-41 70 -125 117q-86 47 -229 49q-154 0 -279 -80q-127 -82 -131 -262q0 -65 21 -110q16 -45 39 -82q-19 -13 -48 -33q-30 -23 -61 -60q-31 -36 -51 -86q-23 -51 -23 -122q0 -201 219 -322l340 -180q66 -29 107 -62
q41 -34 41 -88q-2 -59 -53 -94q-52 -37 -129 -39q-68 0 -131 39q-66 39 -76 131v15h-256q14 -207 141 -320q127 -112 320 -115q188 3 313 107q125 100 127 278q-2 97 -31 156q-33 57 -72 90q95 74 134 152q34 75 34 137q2 51 -30 135q-19 41 -56 82q-37 37 -98 68l-336 172
q-47 20 -86 53q-41 31 -43 76q-2 36 33 75q33 37 123 39q51 0 84 -12q31 -14 49 -37q31 -47 35 -86h256zM711 700q45 -20 82 -51q34 -29 36 -78q-2 -45 -24 -77q-25 -33 -58 -56l-317 162q-63 35 -90 66q-27 30 -27 61q0 45 33 82q29 39 49 51z" />
    <glyph glyph-name="breve" unicode="&#xa4;" 
d="M55 283l142 -142v0l141 144v0q96 -62 235 -64q144 2 236 66v0l143 -146v0l142 142l-144 145q62 90 64 233q-2 144 -64 236l144 141l-142 144v0l-143 -144v0q-92 62 -236 64q-139 -2 -235 -64v0l-141 144v0l-142 -144l142 -141q-62 -92 -64 -236q2 -139 64 -235zM385 661
q0 82 55 138q51 51 133 53q82 -2 136 -53q51 -56 53 -138q-2 -81 -53 -133q-54 -57 -136 -57t-133 57q-55 52 -55 133v0z" />
    <glyph glyph-name="D" unicode="'" horiz-adv-x="451" 
d="M309 909l53 606h-272l53 -606h166z" />
    <glyph glyph-name="apple" unicode="&#x201c;" horiz-adv-x="983" 
d="M416 1227h-119q-2 12 -2 34q2 68 43 91q18 12 41 18q18 4 35 6v139q-82 7 -172 -51q-41 -28 -68 -84q-31 -55 -31 -137v-289h273v273zM840 1227h-119q-2 12 -2 34q2 68 43 91q18 12 41 18q18 4 35 6v139q-82 7 -172 -51q-41 -28 -68 -84q-31 -55 -31 -137v-289h273v273z
" />
    <glyph glyph-name="Acircumflex" unicode="&#xab;" horiz-adv-x="942" 
d="M412 221v0v252l-140 119l140 117v251v0l-287 -264v-207zM819 221v0v252l-139 119l139 117v251v0l-287 -264v-207z" />
    <glyph glyph-name="dotaccent" unicode="&#x2039;" horiz-adv-x="491" 
d="M389 221v0v252l-139 119l139 117v251v0l-287 -264v-207z" />
    <glyph glyph-name="ring" unicode="&#x203a;" horiz-adv-x="491" 
d="M102 221v0l287 268v207l-287 264v0v-251l140 -117l-140 -119v-252z" />
    <glyph glyph-name="cedilla" unicode="&#xf001;" horiz-adv-x="1065" 
d="M147 895v-895h273v895h252v-895h272v1137h-524q4 51 18 81q13 31 35 41q43 23 121 19v268h-76q-133 -2 -237 -92q-82 -80 -107 -168q-12 -43 -18 -80q-7 -39 -9 -69h-96v-242h96zM672 1266h272v249h-272v-249z" />
    <glyph glyph-name="hungarumlaut" unicode="&#xf002;" horiz-adv-x="1065" 
d="M147 895v-895h273v895h252v-895h272v1515h-272v-378h-252q4 51 18 81q13 31 35 41q43 23 121 19v268h-76q-133 -2 -237 -92q-82 -80 -107 -168q-12 -43 -18 -80q-7 -39 -9 -69h-96v-242h96z" />
    <glyph glyph-name="Oacute" unicode="&#x2013;" horiz-adv-x="1024" 
d="M72 471h880v242h-880v-242z" />
    <glyph glyph-name="ae" unicode="&#x2020;" 
d="M711 1515h-273v-378h-334v-232h334v-1196h273v1196h331v232h-331v378z" />
    <glyph glyph-name="ogonek" unicode="&#x2021;" 
d="M709 1515h-273v-313h-332v-229h332v-606h-332v-230h332v-428h273v428h333v230h-333v606h333v229h-333v313z" />
    <glyph glyph-name="caron" unicode="&#x2219;" horiz-adv-x="573" 
d="M149 383h273v272h-273v-272z" />
    <glyph glyph-name="florin" unicode="&#xb6;" horiz-adv-x="1229" 
d="M420 -211h231v1515h199v-1515h231v1515h162v211h-737q-58 0 -141 -6q-86 -8 -173 -47q-86 -37 -143 -119q-61 -84 -63 -229q2 -106 41 -180q39 -76 98 -121q61 -45 133 -66q68 -20 133 -20h29v-938z" />
    <glyph glyph-name="radical" unicode="&#x2022;" horiz-adv-x="1229" 
d="M618 1089q-137 -2 -223 -94q-90 -92 -92 -223q2 -131 92 -221q90 -94 221 -96q134 2 222 94q88 88 90 223q-2 135 -90 225q-86 90 -220 92v0z" />
    <glyph glyph-name="Lslash" unicode="&#x201a;" horiz-adv-x="573" 
d="M147 0h121v-35q-2 -65 -39 -88q-39 -22 -80 -26v-140q84 0 175 56q45 30 69 86q27 51 27 133v286h-273v-272z" />
    <glyph glyph-name="lslash" unicode="&#x201e;" horiz-adv-x="983" 
d="M143 0h121v-35q-2 -65 -39 -88q-39 -22 -80 -26v-140q84 0 174 56q46 30 70 86q27 51 27 133v286h-273v-272zM567 0h121v-35q-2 -65 -39 -88q-39 -22 -80 -26v-140q84 0 174 56q45 30 70 86q27 51 27 133v286h-273v-272z" />
    <glyph glyph-name="Ograve" unicode="&#x201d;" horiz-adv-x="983" 
d="M143 1243h121v-35q-2 -65 -39 -88q-39 -22 -80 -28v-138q84 -4 174 54q46 30 70 86q27 51 27 133v288h-273v-272zM567 1243h121v-35q-2 -65 -39 -88q-39 -22 -80 -28v-138q84 -4 174 54q45 30 70 86q27 51 27 133v288h-273v-272z" />
    <glyph glyph-name="Ecircumflex" unicode="&#xbb;" horiz-adv-x="942" 
d="M125 221v0l287 268v207l-287 264v0v-251l139 -117l-139 -119v-252zM532 221v0l287 268v207l-287 264v0v-251l140 -117l-140 -119v-252z" />
    <glyph glyph-name="Aacute" unicode="&#x2026;" horiz-adv-x="2048" 
d="M205 0h272v272h-272v-272zM887 0h272v272h-272v-272zM1569 0h272v272h-272v-272z" />
    <glyph glyph-name="Scaron" unicode="&#x2030;" horiz-adv-x="2621" 
d="M74 1175q2 -157 110 -260q103 -106 258 -108q158 2 262 108q105 103 107 260q-2 158 -107 265q-104 104 -262 106q-155 -2 -258 -106q-108 -107 -110 -265v0zM301 1175q0 64 43 105q39 39 98 39q62 0 103 -39q39 -41 39 -102q-2 -62 -41 -101q-43 -43 -101 -43
q-59 0 -98 43q-43 41 -43 98v0zM944 340q2 -160 111 -262q106 -107 260 -109q155 2 260 109q106 104 108 262q-2 158 -106 264q-105 105 -262 107q-158 -2 -260 -107q-109 -106 -111 -264v0zM1171 340q0 61 43 102q39 39 101 41q59 0 100 -39q39 -41 41 -104
q-2 -59 -41 -100q-41 -43 -100 -43q-60 0 -101 43q-43 41 -43 100v0zM1763 340q2 -160 111 -262q106 -107 260 -109q155 2 260 109q106 104 108 262q-2 158 -106 264q-104 105 -262 107q-158 -2 -260 -107q-109 -106 -111 -264v0zM1991 340q0 61 43 102q38 39 100 41
q59 0 100 -39q39 -41 41 -104q-2 -59 -41 -100q-41 -43 -100 -43q-60 0 -100 43q-43 41 -43 100v0zM459 0h207l628 1515h-209z" />
    <glyph glyph-name="fi" unicode="&#xbf;" 
d="M477 754q-2 -31 0 -70q0 -100 -39 -156q-39 -55 -92 -98q-133 -125 -172 -213q-20 -43 -27 -82q-8 -41 -8 -78q2 -223 142 -344q133 -121 315 -123q12 0 80 9q67 10 151 51q86 45 156 143q68 96 84 270h-272q-2 -30 -11 -63q-8 -35 -28 -66q-35 -67 -152 -71
q-59 0 -123 39q-28 22 -47 61q-22 37 -22 94q0 68 43 121q41 51 112 107q105 90 146 196q37 105 37 213v60h-273zM750 1137h-273v-273h273v273z" />
    <glyph glyph-name="braceright" unicode="`" horiz-adv-x="860" 
d="M219 1743l-117 -209l463 -256v0l109 188l-455 277v0z" />
    <glyph glyph-name="ellipsis" unicode="&#xb4;" horiz-adv-x="860" 
d="M291 1278v0l467 246l-111 215v0l-461 -273z" />
    <glyph glyph-name="threequarters" unicode="&#x2c6;" horiz-adv-x="1106" 
d="M145 1302h297l115 131v0l109 -131h296l-298 283h-216z" />
    <glyph glyph-name="glyph130" unicode="&#x2dc;" horiz-adv-x="983" 
d="M201 1317q18 10 59 26q41 15 105 15q67 -2 104 -17q43 -10 74 -16l49 -14q37 -9 69 -9q76 0 134 31q55 29 100 66l-111 159q-67 -47 -155 -47q-23 -2 -133 27q-48 16 -84 25q-39 8 -84 8q-66 8 -238 -88z" />
    <glyph glyph-name="Gbreve" unicode="&#xaf;" horiz-adv-x="860" 
d="M147 1327h568v227h-568v-227z" />
    <glyph glyph-name="gbreve" unicode="&#x2d8;" horiz-adv-x="983" 
d="M86 1577q47 -277 405 -281q361 4 408 281h-221q-29 -45 -78 -64q-49 -18 -109 -18q-43 0 -94 16q-53 15 -90 66h-221z" />
    <glyph glyph-name="Idotaccent" unicode="&#x2d9;" horiz-adv-x="573" 
d="M152 1302h272v273h-272v-273z" />
    <glyph glyph-name="nonbreakingspace" unicode="&#xa8;" horiz-adv-x="1024" 
d="M160 1302h274v273h-274v-273zM592 1302h272v273h-272v-273z" />
    <glyph glyph-name="Scedilla" unicode="&#x2da;" horiz-adv-x="737" 
d="M149 1487q3 -92 68 -154q62 -65 152 -65q94 0 157 65q62 62 64 154q-2 94 -64 157q-63 62 -157 64q-93 -2 -154 -64q-66 -63 -66 -157v0zM287 1487q0 37 24 61q23 23 58 23q79 -4 84 -84q0 -35 -23 -58q-27 -24 -61 -24q-35 0 -58 24q-24 23 -24 58v0z" />
    <glyph glyph-name="scedilla" unicode="&#xb8;" horiz-adv-x="696" 
d="M315 12l-100 -229l100 -39v0q17 29 41 37q25 8 47 8q45 0 70 -29q27 -28 27 -73q-4 -95 -95 -99q-77 2 -96 76h-108q0 -49 51 -110q24 -29 65 -48q37 -18 88 -20q86 0 146 53q57 49 59 148q-2 102 -57 153t-133 51q-31 0 -51 -4l49 111z" />
    <glyph glyph-name="cacute" unicode="&#x2db;" horiz-adv-x="696" 
d="M338 18q-180 -96 -176 -219q-2 -57 47 -125q29 -30 74 -51q45 -22 114 -22q51 0 84 10q33 6 56 16v160q-43 -22 -82 -22t-70 24q-35 23 -35 68q2 84 131 161h-143z" />
    <glyph glyph-name="Ccaron" unicode="&#x2c7;" horiz-adv-x="1106" 
d="M145 1585l303 -283h216l298 283h-296l-109 -131v0l-115 131h-297z" />
    <glyph glyph-name="Ocircumflex" unicode="&#x2014;" horiz-adv-x="2048" 
d="M72 471h1904v242h-1904v-242z" />
    <glyph glyph-name="Atilde" unicode="&#xc6;" horiz-adv-x="1843" 
d="M-10 0h329l236 391h401v-391h731v262h-450v358h428v263h-428v370h450v262h-696zM952 1053h4v-400h-235z" />
    <glyph glyph-name="Ydieresis" unicode="&#xaa;" horiz-adv-x="737" 
d="M684 1526h-180v-54h-4q-19 31 -58 54q-39 20 -98 20q-123 -2 -211 -90q-92 -88 -94 -231q2 -152 94 -238q90 -90 211 -90q59 0 98 22q39 19 58 50h4v-52h180v609zM508 1223q0 -66 -39 -107q-41 -45 -104 -45q-62 0 -101 45q-41 43 -41 102q0 60 37 105q35 47 105 49
q55 0 98 -37t45 -112v0z" />
    <glyph glyph-name="glyph142" unicode="&#x141;" horiz-adv-x="983" 
d="M53 461l146 98v0v-559h743v262h-463v485l262 177v282v0l-262 -176v0v485h-280v-673l-146 -99v-282v0z" />
    <glyph glyph-name="Otilde" unicode="&#xd8;" horiz-adv-x="1720" 
d="M471 420v0q-121 143 -123 336q2 225 152 374q143 150 360 154q92 0 178 -33zM1257 1089v0q113 -141 115 -333q-2 -215 -145 -367q-144 -156 -367 -158q-90 0 -168 29zM1321 1667l-129 -193v-2q-156 74 -332 74q-332 -4 -555 -227q-233 -219 -237 -565q4 -344 245 -566
l-123 -180l226 -153v0l125 182v0q145 -66 319 -68q338 4 561 232q228 219 232 553q-4 346 -240 567l131 192l-223 154v0z" />
    <glyph glyph-name="Idieresis" unicode="&#x152;" horiz-adv-x="2171" 
d="M2062 0v262h-450v358h426v263h-426v370h450v262h-731v-163v0q-108 114 -252 155q-145 39 -243 39q-287 -2 -514 -205q-109 -100 -177 -247q-69 -148 -69 -338q6 -371 246 -578q229 -207 514 -209q129 0 268 49q137 50 227 144v0v-162h731zM356 729q2 260 148 408
q141 145 342 147q235 -4 366 -172q127 -164 129 -365q-2 -200 -133 -354q-131 -157 -356 -162q-119 0 -211 50q-92 47 -156 120q-129 158 -129 328v0z" />
    <glyph glyph-name="fraction" unicode="&#xba;" horiz-adv-x="737" 
d="M371 897q131 0 225 90q94 86 96 236q-2 145 -94 233q-94 88 -227 90q-133 -2 -226 -92q-96 -92 -98 -233q2 -134 96 -226q90 -96 228 -98v0zM371 1071q-56 0 -95 43q-45 41 -45 107q2 77 48 114q43 37 92 37q55 0 96 -41q39 -43 41 -113q0 -57 -37 -100q-37 -47 -100 -47
v0z" />
    <glyph glyph-name="guilsinglleft" unicode="&#xe6;" horiz-adv-x="2212" 
d="M1829 358q-17 -45 -80 -92q-66 -51 -191 -53q-84 0 -176 59q-94 58 -129 174h885q12 62 8 138q-4 249 -174 419q-166 168 -381 172q-119 0 -201 -34q-81 -37 -147 -107v0v103h-250v-103v0q-39 47 -117 94q-38 23 -94 35q-57 12 -137 12q-237 -4 -407 -174
q-175 -168 -179 -434q2 -250 172 -422q164 -178 410 -182q86 2 149 21q62 16 101 41q43 26 65 51q25 22 33 39h4v-115h250v115h4q100 -148 332 -152q108 2 201 43q90 41 159 100q142 132 176 252h-286zM332 565q2 180 108 273q103 88 219 88q129 -2 226 -97q96 -94 100 -260
q-2 -153 -96 -252q-96 -102 -232 -104q-147 2 -235 113q-90 104 -90 239v0zM1245 666q68 253 322 260q92 -4 151 -35q57 -31 90 -76q35 -43 49 -84q15 -41 17 -65h-629z" />
    <glyph glyph-name="onequarter" unicode="&#x131;" horiz-adv-x="491" 
d="M109 0h272v1137h-272v-1137z" />
    <glyph glyph-name="glyph148" unicode="&#x142;" horiz-adv-x="655" 
d="M70 733v-291v0l133 86v0v-528h272v704l150 101v293v0l-150 -99v0v516h-272v-694z" />
    <glyph glyph-name="guilsinglright" unicode="&#xf8;" horiz-adv-x="1352" 
d="M399 371v0q-55 84 -55 196q4 178 115 271q106 88 219 88q47 0 90 -15zM956 752v0q52 -78 52 -187q-3 -139 -91 -243q-88 -107 -239 -109q-43 0 -82 10zM995 1245l-78 -117l-2 -2q-114 49 -237 49q-250 -4 -424 -174q-178 -170 -182 -434q2 -250 174 -420l-76 -110
l203 -139v0l78 110q53 -20 110 -33q59 -12 117 -12q246 2 420 166q178 160 182 442q-4 254 -164 414l82 119l-203 141v0z" />
    <glyph glyph-name="Igrave" unicode="&#x153;" horiz-adv-x="2212" 
d="M1829 358q-23 -53 -90 -96q-68 -47 -179 -49q-43 -2 -147 39q-49 24 -94 72q-43 47 -70 122h889q12 70 12 144q-4 258 -178 420q-170 163 -414 165q-92 0 -163 -22q-74 -23 -125 -57q-54 -35 -90 -76q-39 -41 -68 -78v0q-14 25 -49 66q-35 38 -90 75q-56 39 -131 66
q-78 26 -183 26q-233 -2 -409 -165q-184 -164 -189 -443q2 -258 177 -426q165 -174 417 -178q111 2 189 31q80 26 133 63q55 39 88 80q31 39 47 64v0q55 -78 121 -127q65 -47 131 -72q65 -22 119 -31q49 -8 77 -8q158 0 320 98q160 99 231 297h-282zM334 577q2 150 100 248
q94 99 230 101q139 -2 235 -103q94 -102 96 -256q-2 -151 -96 -250q-94 -102 -233 -104q-123 0 -224 98q-106 94 -108 266v0zM1245 666q72 256 315 260q248 -7 314 -260h-629z" />
    <glyph glyph-name="approxequal" unicode="&#xdf;" horiz-adv-x="1229" 
d="M104 0h250v149h4q43 -67 97 -104q53 -39 108 -57q55 -19 103 -21q47 -4 75 -4q228 4 342 139q115 136 115 336q0 39 -6 94q-10 56 -43 115q-33 60 -98 113q-68 49 -181 78q72 45 105 120q30 74 30 158q-4 197 -131 313q-129 115 -309 117q-43 0 -117 -14
q-75 -21 -153 -74t-133 -164q-58 -112 -58 -295v-999zM377 1030q-2 74 28 166q19 43 54 72q37 28 100 28q72 0 123 -45q49 -49 51 -147q0 -88 -47 -150q-51 -63 -158 -65v-242q70 0 138 -4q69 -8 124 -31q60 -20 97 -67q35 -47 39 -129q-2 -97 -56 -150q-55 -53 -129 -53
q-69 0 -121 49q-53 47 -67 125h-176v643z" />
    <glyph glyph-name="Ugrave" unicode="&#xf7;" horiz-adv-x="1229" 
d="M1130 395v246h-1032v-246h1032zM491 831h246v246h-246v-246zM491 -41h246v246h-246v-246z" />
    <glyph glyph-name="glyph153" unicode="&#xbe;" horiz-adv-x="1720" 
d="M500 0h200l629 1515h-203zM954 276v-143h406v-133h184v133h100v168h-100v608h-156zM1157 301l199 326h4v-326h-203zM293 1030h43q94 -2 129 -41q31 -41 31 -96q0 -62 -39 -94q-39 -35 -90 -35q-39 0 -80 29q-43 28 -54 98h-196q14 -152 110 -225q95 -78 213 -78
q136 0 232 84q98 82 100 223q2 41 -20 117q-27 71 -117 116q51 47 61 93q7 22 9 40v23q-2 102 -74 176q-72 72 -189 74q-43 2 -137 -37q-45 -23 -78 -74q-34 -51 -43 -139h197q0 16 10 43q8 29 47 31q68 0 70 -72q0 -41 -27 -59q-24 -21 -63 -21h-45v-176z" />
    <glyph glyph-name="glyph154" unicode="&#xbc;" horiz-adv-x="1720" 
d="M383 0h201l628 1515h-202zM838 276v-143h405v-133h184v133h101v168h-101v608h-155zM1040 301l199 326h4v-326h-203zM301 606h197v909h-310v-176h113v-733z" />
    <glyph glyph-name="uni00B9" unicode="&#xb9;" horiz-adv-x="688" 
d="M260 606h197v909h-310v-176h113v-733z" />
    <glyph glyph-name="multiply" unicode="&#xd7;" horiz-adv-x="1229" 
d="M446 518l-325 -326l168 -167v0l325 327v0l326 -327v0l168 167l-328 326l328 326l-168 168v0l-326 -326v0l-325 326v0l-168 -168z" />
    <glyph glyph-name="Delta" unicode="&#xae;" horiz-adv-x="1515" 
d="M424 1198v-895h178v358h158q92 -6 127 -47q32 -41 32 -145q5 -80 11 -113q6 -34 16 -53h182q-14 23 -18 62q-4 36 -10 145q0 86 -29 143q-31 56 -121 80v4q47 13 80 35q31 23 49 49q37 58 37 133q0 92 -39 144q-39 51 -96 71q-25 13 -51 19q-29 6 -54 8q-51 2 -75 2h-377
zM602 1053h180q60 0 103 -17q41 -18 49 -88q0 -51 -17 -80q-16 -30 -45 -45q-24 -12 -53 -14q-31 -4 -57 -4h-160v248zM760 1540q-336 -4 -557 -229q-223 -224 -228 -553q5 -328 230 -549q219 -227 555 -234q329 5 551 230q225 219 229 553q-4 331 -225 553
q-221 225 -555 229v0zM758 1364q260 -4 428 -178q168 -172 170 -428q-4 -258 -174 -428q-168 -176 -424 -178q-256 4 -422 180q-174 170 -176 426q2 256 172 428q166 174 426 178v0z" />
    <glyph glyph-name="glyph158" unicode="&#xde;" 
d="M147 0h281v291h100q123 -2 232 16q106 19 213 105q143 135 143 348t-143 348q-107 88 -213 106q-109 17 -232 15h-100v286h-281v-1515zM428 967h100q95 2 199 -29q47 -16 80 -59q29 -43 29 -119q-3 -74 -31 -113q-31 -43 -82 -63q-47 -21 -100 -25q-58 -6 -105 -6h-90
v414z" />
    <glyph glyph-name="glyph159" unicode="&#xa6;" horiz-adv-x="1229" 
d="M477 1515v-688h273v688h-273zM477 483v-688h273v688h-273z" />
    <glyph glyph-name="glyph160" unicode="&#xd0;" horiz-adv-x="1520" 
d="M199 637v-637h350q131 0 266 20q131 21 238 78q168 97 266 273q94 176 96 383q-8 378 -250 585q-30 31 -80 62q-49 32 -123 57q-143 55 -419 57h-344v-616h-148v-262h148zM760 637v262h-281v354h53q134 0 244 -22q111 -27 197 -105q157 -139 162 -372q0 -123 -56 -238
q-57 -115 -172 -180q-160 -80 -368 -74h-60v375h281z" />
    <glyph glyph-name="glyph161" unicode="&#xbd;" horiz-adv-x="1720" 
d="M322 0h200l629 1515h-203zM240 606h196v909h-309v-176h113v-733zM956 0h623v176h-342l164 143q102 89 141 164q37 74 37 144q0 118 -84 209q-84 90 -234 92q-151 -2 -231 -97q-84 -94 -84 -206q0 -15 2 -37h195q-2 45 18 102q12 27 37 45q25 17 63 17q50 0 84 -29
q35 -31 37 -92q0 -33 -18 -72q-21 -39 -82 -92l-326 -301v-166z" />
    <glyph glyph-name="glyph162" unicode="&#x2212;" horiz-adv-x="1229" 
d="M1130 395v246h-1032v-246h1032z" />
    <glyph glyph-name="acute" unicode="&#xe7;" horiz-adv-x="1311" 
d="M471 -336q0 -49 51 -110q25 -29 66 -48q37 -18 88 -20q86 0 145 53q58 49 60 148q-2 102 -58 153q-55 51 -133 51q-31 0 -51 -4l35 76h6q416 8 569 408h-307q-113 -162 -252 -158q-156 2 -246 106q-96 103 -96 250q2 176 105 267q98 90 225 90q65 0 110 -17
q43 -16 74 -43q31 -24 51 -53q19 -31 29 -53h307q-45 133 -117 215q-71 82 -157 125q-84 45 -162 61q-78 14 -135 14q-242 -2 -416 -170q-182 -165 -186 -432q4 -247 153 -403q144 -156 340 -195l-84 -192l101 -39v0q16 29 41 37q24 8 47 8q45 0 69 -29q27 -28 27 -73
q-4 -95 -94 -99q-78 2 -96 76h-109z" />
    <glyph glyph-name="glyph164" unicode="&#xf0;" horiz-adv-x="1311" 
d="M664 926q131 -2 227 -101q98 -100 100 -260q-2 -139 -90 -243q-88 -107 -240 -109q-133 0 -229 98q-102 94 -104 256q4 178 114 271q107 88 222 88v0zM328 1171l309 93v0q78 -54 135 -109l-4 -4q-39 20 -107 22q-249 -2 -423 -172q-179 -170 -183 -434q2 -250 178 -424
q170 -176 428 -180q240 2 418 166t182 475q-2 250 -108 434q-107 185 -256 303l270 80l-176 123v0l-268 -82v0q-109 62 -186 82l-308 -84q62 -18 117 -39q53 -20 100 -45l-294 -90l176 -115v0z" />
    <glyph glyph-name="oe" unicode="&#xb1;" horiz-adv-x="1229" 
d="M491 819h-393v-246h393v-307h246v307h393v246h-393v320h-246v-320zM98 -127h1032v246h-1032v-246z" />
    <glyph glyph-name="dagger" unicode="&#xc7;" horiz-adv-x="1597" 
d="M631 -336q0 -49 51 -110q25 -29 65 -48q37 -18 89 -20q86 0 145 53q57 49 59 148q-2 102 -57 153t-133 51q-31 0 -51 -4l37 84q12 -2 24 -2q223 2 416 123q190 119 284 330h-325l-57 -57q-37 -31 -82 -64q-45 -29 -105 -47q-61 -23 -137 -23q-205 2 -350 160
q-152 152 -154 369q4 231 156 377q145 145 338 147q248 -4 405 -201h320q-115 248 -316 357q-200 106 -399 106q-336 -4 -555 -233q-225 -226 -229 -549q2 -295 190 -510q184 -215 471 -272l-86 -199l100 -39v0q17 29 41 37q25 8 47 8q46 0 70 -29q27 -28 27 -73
q-4 -95 -94 -99q-78 2 -97 76h-108z" />
    <glyph glyph-name="glyph167" unicode="&#xfe;" horiz-adv-x="1352" 
d="M96 -379h273v488v0q28 -25 61 -50q35 -24 74 -47q82 -47 215 -49q248 4 407 180q158 172 162 430q0 224 -143 408q-146 188 -426 194q-55 3 -152 -24q-47 -14 -96 -49q-51 -33 -98 -90h-4v503h-273v-1894zM352 569q2 168 107 262q98 95 229 95q131 -2 227 -99
q99 -98 101 -258q-4 -174 -109 -264q-104 -92 -223 -92q-102 -2 -213 86q-49 43 -82 111q-37 67 -37 159v0z" />
    <glyph glyph-name="guillemotleft" unicode="&#xa9;" horiz-adv-x="1515" 
d="M1163 915q-14 127 -119 217q-106 93 -274 95q-203 -2 -319 -133q-121 -129 -121 -334t121 -332q116 -133 319 -135q168 2 274 94q105 90 119 217h-184q-29 -92 -82 -125q-53 -35 -127 -33q-250 0 -256 314q0 143 72 227q65 84 184 86q70 0 125 -29q53 -34 84 -129h184z
M760 1540q-336 -4 -557 -229q-223 -224 -228 -553q5 -328 230 -549q219 -227 555 -234q329 5 551 230q225 219 229 553q-4 331 -225 553q-221 225 -555 229v0zM758 1364q260 -4 428 -178q168 -172 170 -428q-4 -258 -174 -428q-168 -176 -424 -178q-256 4 -422 180
q-174 170 -176 426q2 256 172 428q166 174 426 178v0z" />
    <glyph glyph-name="daggerdbl" unicode="&#xac;" horiz-adv-x="1229" 
d="M885 221h245v649h-1032v-245h787v-404z" />
    <glyph glyph-name="uni00B2" unicode="&#xb2;" horiz-adv-x="688" 
d="M37 606h622v176h-342l164 144q103 88 142 163q36 74 36 144q0 119 -84 209t-233 92q-152 -2 -231 -96q-84 -95 -84 -207q0 -15 2 -37h194q-2 45 19 102q12 27 37 45q24 17 63 17q49 0 84 -29q35 -31 37 -92q0 -33 -19 -72q-20 -39 -82 -92l-325 -301v-166z" />
    <glyph glyph-name="uni00B3" unicode="&#xb3;" horiz-adv-x="688" 
d="M272 1030h43q95 -2 129 -41q31 -41 31 -96q0 -62 -39 -94q-39 -35 -90 -35q-39 0 -80 29q-43 28 -53 98h-197q15 -152 111 -225q94 -78 213 -78q135 0 231 84q99 82 101 223q2 41 -21 117q-26 71 -117 116q52 47 62 93q6 22 8 40v23q-2 102 -74 176q-71 72 -188 74
q-43 2 -137 -37q-45 -23 -78 -74q-35 -51 -43 -139h197q0 16 10 43q8 29 47 31q67 0 70 -72q0 -41 -27 -59q-25 -21 -64 -21h-45v-176z" />
    <glyph glyph-name="guillemotright" unicode="&#x2122;" horiz-adv-x="2048" 
d="M192 606h193v739h176v170h-543v-170h174v-739zM682 606h192v627h5l223 -627h159l224 627h4v-627h192v909h-256l-241 -659v0l-244 659h-258v-909z" />
    <glyph glyph-name="oslash" unicode="&#xb0;" horiz-adv-x="819" 
d="M410 1014q-60 0 -103 47q-43 45 -43 104q0 62 43 107q43 43 103 45q63 -2 104 -45q39 -45 41 -107q-2 -59 -41 -104q-41 -47 -104 -47v0zM410 872q127 2 208 86q82 82 84 207q-2 127 -84 209q-81 82 -208 84q-125 -2 -207 -84q-84 -82 -86 -209q2 -125 86 -207
q82 -84 207 -86v0z" />
    <glyph glyph-name="quotedblright" unicode="&#xb5;" horiz-adv-x="1180" 
d="M78 -383h272v442h4q25 -32 82 -63q55 -31 146 -33q61 2 106 21q43 16 72 43q30 24 47 53q14 29 20 47h4v-127h273v1137h-273v-584q0 -135 -51 -236q-55 -102 -192 -104q-74 0 -121 35q-49 28 -74 67q-47 95 -43 281v541h-272v-1520z" />
    <glyph glyph-name="circumflex" unicode="&#xff;" horiz-adv-x="1188" 
d="M223 -379h293l653 1516h-309l-274 -729v0l-258 729h-312l416 -1031zM248 1302h274v273h-274v-273zM680 1302h272v273h-272v-273z" />
    <glyph glyph-name="glyph176" unicode="&#xfd;" horiz-adv-x="1188" 
d="M223 -379h293l653 1516h-309l-274 -729v0l-258 729h-312l416 -1031zM538 1278v0l467 246l-111 215v0l-461 -273z" />
    <glyph glyph-name="ordfeminine" unicode="&#xf9;" horiz-adv-x="1229" 
d="M842 1137v-582q0 -139 -49 -238q-54 -102 -181 -104q-88 0 -135 43q-51 39 -72 96q-20 58 -26 115q-4 55 -4 90v580h-273v-594q-2 -76 13 -189q12 -114 71 -211q43 -61 138 -118q92 -60 243 -62q68 0 115 17q49 16 82 36q33 25 57 52q25 24 39 47h4v-115h250v1137h-272z
M334 1743l-117 -209l463 -256v0l109 188l-455 277v0z" />
    <glyph glyph-name="Omega" unicode="&#xfc;" horiz-adv-x="1229" 
d="M842 1137v-582q0 -139 -49 -238q-54 -102 -181 -104q-88 0 -135 43q-51 39 -72 96q-20 58 -26 115q-4 55 -4 90v580h-273v-594q-2 -76 13 -189q12 -114 71 -211q43 -61 138 -118q92 -60 243 -62q68 0 115 17q49 16 82 36q33 25 57 52q25 24 39 47h4v-115h250v1137h-272z
M265 1302h274v273h-274v-273zM697 1302h272v273h-272v-273z" />
    <glyph glyph-name="ordmasculine" unicode="&#xfb;" horiz-adv-x="1229" 
d="M842 1137v-582q0 -139 -49 -238q-54 -102 -181 -104q-88 0 -135 43q-51 39 -72 96q-20 58 -26 115q-4 55 -4 90v580h-273v-594q-2 -76 13 -189q12 -114 71 -211q43 -61 138 -118q92 -60 243 -62q68 0 115 17q49 16 82 36q33 25 57 52q25 24 39 47h4v-115h250v1137h-272z
M207 1302h297l115 131v0l109 -131h296l-298 283h-216z" />
    <glyph glyph-name="integral" unicode="&#xfa;" horiz-adv-x="1229" 
d="M842 1137v-582q0 -139 -49 -238q-54 -102 -181 -104q-88 0 -135 43q-51 39 -72 96q-20 58 -26 115q-4 55 -4 90v580h-273v-594q-2 -76 13 -189q12 -114 71 -211q43 -61 138 -118q92 -60 243 -62q68 0 115 17q49 16 82 36q33 25 57 52q25 24 39 47h4v-115h250v1137h-272z
M556 1278v0l467 246l-111 215v0l-461 -273z" />
    <glyph glyph-name="glyph181" unicode="&#x161;" horiz-adv-x="901" 
d="M831 827q-12 170 -122 260q-113 88 -248 88q-142 -2 -256 -92q-121 -92 -125 -260q0 -67 22 -121q23 -55 58 -94q37 -39 84 -65q43 -27 90 -45q145 -45 203 -76q53 -33 53 -94q0 -37 -27 -74q-29 -39 -96 -41q-82 2 -111 55q-14 23 -24 47q-8 25 -15 43h-278
q4 -53 20 -114q9 -31 27 -64q14 -33 39 -67q70 -82 162 -115q92 -35 178 -35q153 2 274 105q119 102 123 292q0 86 -29 148q-28 57 -75 94q-47 39 -101 64q-55 20 -112 34q-105 35 -150 60q-45 22 -43 67q0 39 29 68q27 29 76 31q24 0 59 -15q16 -10 31 -28q12 -21 18 -56
h266zM43 1585l303 -283h216l298 283h-296l-109 -131v0l-115 131h-297z" />
    <glyph glyph-name="pi" unicode="&#xf5;" horiz-adv-x="1311" 
d="M657 -37q246 2 420 166q178 160 182 442q-4 267 -178 434q-174 168 -424 170q-249 -4 -424 -174q-178 -170 -182 -434q2 -250 178 -424q170 -176 428 -180v0zM657 213q-133 0 -229 98q-102 94 -104 256q4 178 114 271q107 88 219 88q133 -2 230 -101q98 -100 100 -260
q-2 -139 -90 -243q-88 -107 -240 -109v0zM372 1317q18 10 59 26q41 15 105 15q67 -2 104 -17q43 -10 74 -16l49 -14q37 -9 69 -9q76 0 134 31q55 29 100 66l-111 159q-67 -47 -155 -47q-23 -2 -133 27q-48 16 -84 25q-39 8 -84 8q-66 8 -238 -88z" />
    <glyph glyph-name="partialdiff" unicode="&#xf2;" horiz-adv-x="1311" 
d="M657 -37q246 2 420 166q178 160 182 442q-4 267 -178 434q-174 168 -424 170q-249 -4 -424 -174q-178 -170 -182 -434q2 -250 178 -424q170 -176 428 -180v0zM657 213q-133 0 -229 98q-102 94 -104 256q4 178 114 271q107 88 219 88q133 -2 230 -101q98 -100 100 -260
q-2 -139 -90 -243q-88 -107 -240 -109v0zM452 1743l-117 -209l463 -256v0l109 188l-455 277v0z" />
    <glyph glyph-name="product" unicode="&#xf6;" horiz-adv-x="1311" 
d="M657 -37q246 2 420 166q178 160 182 442q-4 267 -178 434q-174 168 -424 170q-249 -4 -424 -174q-178 -170 -182 -434q2 -250 178 -424q170 -176 428 -180v0zM657 213q-133 0 -229 98q-102 94 -104 256q4 178 114 271q107 88 219 88q133 -2 230 -101q98 -100 100 -260
q-2 -139 -90 -243q-88 -107 -240 -109v0zM311 1302h274v273h-274v-273zM743 1302h272v273h-272v-273z" />
    <glyph glyph-name="summation" unicode="&#xf4;" horiz-adv-x="1311" 
d="M657 -37q246 2 420 166q178 160 182 442q-4 267 -178 434q-174 168 -424 170q-249 -4 -424 -174q-178 -170 -182 -434q2 -250 178 -424q170 -176 428 -180v0zM657 213q-133 0 -229 98q-102 94 -104 256q4 178 114 271q107 88 219 88q133 -2 230 -101q98 -100 100 -260
q-2 -139 -90 -243q-88 -107 -240 -109v0zM255 1302h297l115 131v0l109 -131h296l-298 283h-216z" />
    <glyph glyph-name="mu" unicode="&#xf3;" horiz-adv-x="1311" 
d="M657 -37q246 2 420 166q178 160 182 442q-4 267 -178 434q-174 168 -424 170q-249 -4 -424 -174q-178 -170 -182 -434q2 -250 178 -424q170 -176 428 -180v0zM657 213q-133 0 -229 98q-102 94 -104 256q4 178 114 271q107 88 219 88q133 -2 230 -101q98 -100 100 -260
q-2 -139 -90 -243q-88 -107 -240 -109v0zM527 1278v0l467 246l-111 215v0l-461 -273z" />
    <glyph glyph-name="yen" unicode="&#xf1;" horiz-adv-x="1229" 
d="M111 0h272v541q-2 75 6 153q8 76 43 131q39 58 94 80q54 21 92 21q86 -2 134 -43q47 -41 67 -103q21 -59 27 -121q2 -59 2 -98v-561h272v614q2 72 -12 191q-14 117 -92 213q-74 86 -168 123q-96 34 -174 34q-127 -2 -203 -51q-37 -20 -63 -43q-27 -24 -46 -43v0v99h-251
v-1137zM327 1317q18 10 59 26q41 15 105 15q67 -2 104 -17q43 -10 74 -16l49 -14q37 -9 69 -9q76 0 134 31q55 29 100 66l-111 159q-67 -47 -155 -47q-23 -2 -133 27q-48 16 -84 25q-39 8 -84 8q-66 8 -238 -88z" />
    <glyph glyph-name="plusminus" unicode="&#xec;" horiz-adv-x="491" 
d="M109 0h272v1137h-272v-1137zM-24 1743l-117 -209l463 -256v0l109 188l-455 277v0z" />
    <glyph glyph-name="greaterequal" unicode="&#xef;" horiz-adv-x="491" 
d="M109 0h272v1137h-272v-1137zM-113 1302h274v273h-274v-273zM319 1302h272v273h-272v-273z" />
    <glyph glyph-name="lessequal" unicode="&#xee;" horiz-adv-x="491" 
d="M109 0h272v1137h-272v-1137zM-169 1302h297l115 131v0l109 -131h296l-298 283h-216z" />
    <glyph glyph-name="infinity" unicode="&#xed;" horiz-adv-x="491" 
d="M109 0h272v1137h-272v-1137zM158 1278v0l467 246l-111 215v0l-461 -273z" />
    <glyph glyph-name="notequal" unicode="&#xe8;" horiz-adv-x="1311" 
d="M1233 446q14 58 16 138q-2 225 -157 407q-156 184 -431 191q-266 -4 -428 -187q-167 -180 -170 -430q3 -254 175 -424q167 -174 426 -178q202 4 350 123q147 113 198 272h-286q-78 -145 -262 -145q-72 0 -127 27q-56 26 -97 63q-39 37 -61 78q-23 37 -29 65h883zM342 666
q23 79 59 133q37 51 84 82q47 30 95 41q47 10 84 10q104 0 194 -64q88 -63 113 -202h-629zM452 1743l-117 -209l463 -256v0l109 188l-455 277v0z" />
    <glyph glyph-name="Oslash" unicode="&#xeb;" horiz-adv-x="1311" 
d="M1233 446q14 58 16 138q-2 225 -157 407q-156 184 -431 191q-266 -4 -428 -187q-167 -180 -170 -430q3 -254 175 -424q167 -174 426 -178q202 4 350 123q147 113 198 272h-286q-78 -145 -262 -145q-72 0 -127 27q-56 26 -97 63q-39 37 -61 78q-23 37 -29 65h883zM342 666
q23 79 59 133q37 51 84 82q47 30 95 41q47 10 84 10q104 0 194 -64q88 -63 113 -202h-629zM311 1302h274v273h-274v-273zM743 1302h272v273h-272v-273z" />
    <glyph glyph-name="AE" unicode="&#xea;" horiz-adv-x="1311" 
d="M1233 446q14 58 16 138q-2 225 -157 407q-156 184 -431 191q-266 -4 -428 -187q-167 -180 -170 -430q3 -254 175 -424q167 -174 426 -178q202 4 350 123q147 113 198 272h-286q-78 -145 -262 -145q-72 0 -127 27q-56 26 -97 63q-39 37 -61 78q-23 37 -29 65h883zM342 666
q23 79 59 133q37 51 84 82q47 30 95 41q47 10 84 10q104 0 194 -64q88 -63 113 -202h-629zM252 1302h297l115 131v0l109 -131h296l-298 283h-216z" />
    <glyph glyph-name="dieresis" unicode="&#xe9;" horiz-adv-x="1311" 
d="M1233 446q14 58 16 138q-2 225 -157 407q-156 184 -431 191q-266 -4 -428 -187q-167 -180 -170 -430q3 -254 175 -424q167 -174 426 -178q202 4 350 123q147 113 198 272h-286q-78 -145 -262 -145q-72 0 -127 27q-56 26 -97 63q-39 37 -61 78q-23 37 -29 65h883zM342 666
q23 79 59 133q37 51 84 82q47 30 95 41q47 10 84 10q104 0 194 -64q88 -63 113 -202h-629zM527 1278v0l467 246l-111 215v0l-461 -273z" />
    <glyph glyph-name="copyright" unicode="&#xe3;" horiz-adv-x="1352" 
d="M1255 1137h-250v-144h-4q-2 8 -26 37q-27 29 -76 62q-49 34 -117 59q-67 22 -157 24q-242 -2 -402 -167q-166 -166 -168 -433q4 -286 168 -446q160 -164 385 -166q111 2 221 53q109 47 176 125v0v-141h250v1137zM997 571q-2 -159 -94 -258q-92 -100 -237 -100
q-148 2 -240 104q-96 99 -98 246q0 135 86 246q86 113 252 117q129 0 229 -88t102 -267v0zM392 1317q18 10 59 26q41 15 105 15q67 -2 104 -17q43 -10 74 -16l49 -14q37 -9 69 -9q76 0 134 31q55 29 100 66l-111 159q-67 -47 -155 -47q-23 -2 -133 27q-48 16 -84 25
q-39 8 -84 8q-66 8 -238 -88z" />
    <glyph glyph-name="trademark" unicode="&#xe5;" horiz-adv-x="1352" 
d="M1255 1137h-250v-144h-4q-2 8 -26 37q-27 29 -76 62q-49 34 -117 59q-67 22 -157 24q-242 -2 -402 -167q-166 -166 -168 -433q4 -286 168 -446q160 -164 385 -166q111 2 221 53q109 47 176 125v0v-141h250v1137zM997 571q-2 -159 -94 -258q-92 -100 -237 -100
q-148 2 -240 104q-96 99 -98 246q0 135 86 246q86 113 252 117q129 0 229 -88t102 -267v0zM468 1487q3 -92 68 -154q62 -65 152 -65q94 0 157 65q62 62 64 154q-2 94 -64 157q-63 62 -157 64q-93 -2 -154 -64q-66 -63 -66 -157v0zM606 1487q0 37 24 61q23 23 58 23
q79 -4 84 -84q0 -35 -23 -58q-27 -24 -61 -24q-35 0 -58 24q-24 23 -24 58v0z" />
    <glyph glyph-name="paragraph" unicode="&#xe0;" horiz-adv-x="1352" 
d="M1255 1137h-250v-144h-4q-2 8 -26 37q-27 29 -76 62q-49 34 -117 59q-67 22 -157 24q-242 -2 -402 -167q-166 -166 -168 -433q4 -286 168 -446q160 -164 385 -166q111 2 221 53q109 47 176 125v0v-141h250v1137zM997 571q-2 -159 -94 -258q-92 -100 -237 -100
q-148 2 -240 104q-96 99 -98 246q0 135 86 246q86 113 252 117q129 0 229 -88t102 -267v0zM474 1743l-117 -209l463 -256v0l109 188l-455 277v0z" />
    <glyph glyph-name="registered" unicode="&#xe4;" horiz-adv-x="1352" 
d="M1255 1137h-250v-144h-4q-2 8 -26 37q-27 29 -76 62q-49 34 -117 59q-67 22 -157 24q-242 -2 -402 -167q-166 -166 -168 -433q4 -286 168 -446q160 -164 385 -166q111 2 221 53q109 47 176 125v0v-141h250v1137zM997 571q-2 -159 -94 -258q-92 -100 -237 -100
q-148 2 -240 104q-96 99 -98 246q0 135 86 246q86 113 252 117q129 0 229 -88t102 -267v0zM331 1302h274v273h-274v-273zM763 1302h272v273h-272v-273z" />
    <glyph glyph-name="germandbls" unicode="&#xe2;" horiz-adv-x="1352" 
d="M1255 1137h-250v-144h-4q-2 8 -26 37q-27 29 -76 62q-49 34 -117 59q-67 22 -157 24q-242 -2 -402 -167q-166 -166 -168 -433q4 -286 168 -446q160 -164 385 -166q111 2 221 53q109 47 176 125v0v-141h250v1137zM997 571q-2 -159 -94 -258q-92 -100 -237 -100
q-148 2 -240 104q-96 99 -98 246q0 135 86 246q86 113 252 117q129 0 229 -88t102 -267v0zM275 1302h297l115 131v0l109 -131h296l-298 283h-216z" />
    <glyph glyph-name="bullet" unicode="&#xe1;" horiz-adv-x="1352" 
d="M1255 1137h-250v-144h-4q-2 8 -26 37q-27 29 -76 62q-49 34 -117 59q-67 22 -157 24q-242 -2 -402 -167q-166 -166 -168 -433q4 -286 168 -446q160 -164 385 -166q111 2 221 53q109 47 176 125v0v-141h250v1137zM997 571q-2 -159 -94 -258q-92 -100 -237 -100
q-148 2 -240 104q-96 99 -98 246q0 135 86 246q86 113 252 117q129 0 229 -88t102 -267v0zM549 1278v0l467 246l-111 215v0l-461 -273z" />
    <glyph glyph-name="tilde" unicode="&#x178;" horiz-adv-x="1270" 
d="M494 0h280v559l500 956h-309l-332 -696v0l-330 696h-307l498 -956v-559zM292 1650h274v273h-274v-273zM724 1650h272v273h-272v-273z" />
    <glyph glyph-name="glyph203" unicode="&#xdd;" horiz-adv-x="1270" 
d="M494 0h280v559l500 956h-309l-332 -696v0l-330 696h-307l498 -956v-559zM583 1626v0l467 246l-111 215v0l-461 -273z" />
    <glyph glyph-name="onehalf" unicode="&#xd9;" horiz-adv-x="1311" 
d="M113 1515v-962q0 -137 30 -227q27 -90 64 -140q49 -69 164 -139q114 -74 286 -78q158 2 273 68q114 63 180 158q55 77 72 172q16 94 16 186v962h-281v-962v-33q0 -22 -4 -47q-2 -25 -8 -51q-8 -29 -20 -57q-23 -54 -78 -93q-53 -41 -152 -41q-96 0 -151 41q-53 39 -78 93
q-12 28 -18 57q-7 26 -11 51q-2 25 -2 47q-2 21 -2 33l2 962h-282zM377 2091l-117 -209l463 -256v0l109 188l-455 277v0z" />
    <glyph glyph-name="section" unicode="&#xdc;" horiz-adv-x="1311" 
d="M113 1515v-962q0 -137 30 -227q27 -90 64 -140q49 -69 164 -139q114 -74 286 -78q158 2 273 68q114 63 180 158q55 77 72 172q16 94 16 186v962h-281v-962v-33q0 -22 -4 -47q-2 -25 -8 -51q-8 -29 -20 -57q-23 -54 -78 -93q-53 -41 -152 -41q-96 0 -151 41q-53 39 -78 93
q-12 28 -18 57q-7 26 -11 51q-2 25 -2 47q-2 21 -2 33l2 962h-282zM308 1650h274v273h-274v-273zM740 1650h272v273h-272v-273z" />
    <glyph glyph-name="threesuperior" unicode="&#xdb;" horiz-adv-x="1311" 
d="M113 1515v-962q0 -137 30 -227q27 -90 64 -140q49 -69 164 -139q114 -74 286 -78q158 2 273 68q114 63 180 158q55 77 72 172q16 94 16 186v962h-281v-962v-33q0 -22 -4 -47q-2 -25 -8 -51q-8 -29 -20 -57q-23 -54 -78 -93q-53 -41 -152 -41q-96 0 -151 41q-53 39 -78 93
q-12 28 -18 57q-7 26 -11 51q-2 25 -2 47q-2 21 -2 33l2 962h-282zM252 1650h297l115 131v0l109 -131h296l-298 283h-216z" />
    <glyph glyph-name="twosuperior" unicode="&#xda;" horiz-adv-x="1311" 
d="M113 1515v-962q0 -137 30 -227q27 -90 64 -140q49 -69 164 -139q114 -74 286 -78q158 2 273 68q114 63 180 158q55 77 72 172q16 94 16 186v962h-281v-962v-33q0 -22 -4 -47q-2 -25 -8 -51q-8 -29 -20 -57q-23 -54 -78 -93q-53 -41 -152 -41q-96 0 -151 41q-53 39 -78 93
q-12 28 -18 57q-7 26 -11 51q-2 25 -2 47q-2 21 -2 33l2 962h-282zM601 1626v0l467 246l-111 215v0l-461 -273z" />
    <glyph glyph-name="glyph208" unicode="&#x160;" horiz-adv-x="1065" 
d="M25 434q8 -123 59 -211q47 -90 123 -145q37 -27 78 -45q41 -21 80 -37q81 -27 153 -27q186 0 336 119q151 119 156 365q-2 124 -43 208q-43 84 -107 136q-63 51 -129 82q-67 26 -119 40q-55 21 -102 39q-45 19 -80 39q-70 39 -70 133q0 70 48 113q43 41 108 41
q59 0 111 -33q49 -37 59 -137h287q-4 117 -49 201q-43 82 -113 133q-145 98 -287 98q-194 -2 -317 -125q-125 -121 -127 -307q0 -119 41 -195q39 -75 96 -124q59 -45 119 -72q59 -27 104 -45q72 -25 127 -45q53 -23 90 -49q37 -27 56 -64q16 -39 16 -98q-2 -86 -61 -137
q-62 -54 -148 -54q-67 0 -125 48q-61 45 -76 155h-294zM128 1933l303 -283h216l298 283h-296l-109 -131v0l-115 131h-297z" />
    <glyph glyph-name="Icircumflex" unicode="&#xd5;" horiz-adv-x="1720" 
d="M68 754q4 -334 233 -553q225 -228 559 -232q338 4 561 232q228 219 232 553q-4 346 -234 565q-227 223 -559 227q-332 -4 -555 -227q-233 -219 -237 -565v0zM348 756q2 225 152 374q143 150 360 154q221 -4 365 -154q145 -149 147 -374q-2 -215 -145 -367
q-144 -156 -367 -158q-219 2 -362 158q-148 152 -150 367v0zM582 1665q18 10 59 26q41 15 105 15q67 -2 104 -17q43 -10 74 -16l49 -14q37 -9 69 -9q76 0 134 31q55 29 100 66l-111 159q-67 -47 -155 -47q-23 -2 -133 27q-48 16 -84 25q-39 8 -84 8q-66 8 -238 -88z" />
    <glyph glyph-name="onesuperior" unicode="&#xd2;" horiz-adv-x="1720" 
d="M68 754q4 -334 233 -553q225 -228 559 -232q338 4 561 232q228 219 232 553q-4 346 -234 565q-227 223 -559 227q-332 -4 -555 -227q-233 -219 -237 -565v0zM348 756q2 225 152 374q143 150 360 154q221 -4 365 -154q145 -149 147 -374q-2 -215 -145 -367
q-144 -156 -367 -158q-219 2 -362 158q-148 152 -150 367v0zM665 2091l-117 -209l463 -256v0l109 188l-455 277v0z" />
    <glyph glyph-name="sterling" unicode="&#xd6;" horiz-adv-x="1720" 
d="M68 754q4 -334 233 -553q225 -228 559 -232q338 4 561 232q228 219 232 553q-4 346 -234 565q-227 223 -559 227q-332 -4 -555 -227q-233 -219 -237 -565v0zM348 756q2 225 152 374q143 150 360 154q221 -4 365 -154q145 -149 147 -374q-2 -215 -145 -367
q-144 -156 -367 -158q-219 2 -362 158q-148 152 -150 367v0zM521 1650h274v273h-274v-273zM953 1650h272v273h-272v-273z" />
    <glyph glyph-name="minus" unicode="&#xd4;" horiz-adv-x="1720" 
d="M68 754q4 -334 233 -553q225 -228 559 -232q338 4 561 232q228 219 232 553q-4 346 -234 565q-227 223 -559 227q-332 -4 -555 -227q-233 -219 -237 -565v0zM348 756q2 225 152 374q143 150 360 154q221 -4 365 -154q145 -149 147 -374q-2 -215 -145 -367
q-144 -156 -367 -158q-219 2 -362 158q-148 152 -150 367v0zM465 1650h297l115 131v0l109 -131h296l-298 283h-216z" />
    <glyph glyph-name="thorn" unicode="&#xd3;" horiz-adv-x="1720" 
d="M68 754q4 -334 233 -553q225 -228 559 -232q338 4 561 232q228 219 232 553q-4 346 -234 565q-227 223 -559 227q-332 -4 -555 -227q-233 -219 -237 -565v0zM348 756q2 225 152 374q143 150 360 154q221 -4 365 -154q145 -149 147 -374q-2 -215 -145 -367
q-144 -156 -367 -158q-219 2 -362 158q-148 152 -150 367v0zM739 1626v0l467 246l-111 215v0l-461 -273z" />
    <glyph glyph-name="cent" unicode="&#xd1;" horiz-adv-x="1515" 
d="M143 0h281v1102h4l633 -1102h313v1515h-280v-1101h-5l-626 1101h-320v-1515zM474 1665q18 10 59 26q41 15 105 15q67 -2 104 -17q43 -10 74 -16l49 -14q37 -9 69 -9q76 0 134 31q55 29 100 66l-111 159q-67 -47 -155 -47q-23 -2 -133 27q-48 16 -84 25q-39 8 -84 8
q-66 8 -238 -88z" />
    <glyph glyph-name="Thorn" unicode="&#xcc;" horiz-adv-x="573" 
d="M147 0h281v1515h-281v-1515zM16 2091l-117 -209l463 -256v0l109 188l-455 277v0z" />
    <glyph glyph-name="yacute" unicode="&#xcf;" horiz-adv-x="573" 
d="M147 0h281v1515h-281v-1515zM-73 1650h274v273h-274v-273zM359 1650h272v273h-272v-273z" />
    <glyph glyph-name="Yacute" unicode="&#xce;" horiz-adv-x="573" 
d="M147 0h281v1515h-281v-1515zM-129 1650h297l115 131v0l109 -131h296l-298 283h-216z" />
    <glyph glyph-name="eth" unicode="&#xcd;" horiz-adv-x="573" 
d="M147 0h281v1515h-281v-1515zM198 1626v0l467 246l-111 215v0l-461 -273z" />
    <glyph glyph-name="Eth" unicode="&#xc8;" horiz-adv-x="1065" 
d="M125 0h815v262h-535v358h512v263h-512v370h535v262h-815v-1515zM325 2091l-117 -209l463 -256v0l109 188l-455 277v0z" />
    <glyph glyph-name="brokenbar" unicode="&#xcb;" horiz-adv-x="1065" 
d="M125 0h815v262h-535v358h512v263h-512v370h535v262h-815v-1515zM181 1650h274v273h-274v-273zM613 1650h272v273h-272v-273z" />
    <glyph glyph-name="Zcaron" unicode="&#xca;" horiz-adv-x="1065" 
d="M125 0h815v262h-535v358h512v263h-512v370h535v262h-815v-1515zM125 1650h297l115 131v0l109 -131h296l-298 283h-216z" />
    <glyph glyph-name="degree" unicode="&#xc9;" horiz-adv-x="1065" 
d="M125 0h815v262h-535v358h512v263h-512v370h535v262h-815v-1515zM399 1626v0l467 246l-111 215v0l-461 -273z" />
    <glyph glyph-name="Iacute" unicode="&#xc3;" horiz-adv-x="1515" 
d="M14 0h310l161 391h543l162 -391h309l-635 1515h-219zM752 1120h4l172 -465h-348zM478 1665q18 10 59 26q41 15 105 15q67 -2 104 -17q43 -10 74 -16l49 -14q37 -9 69 -9q76 0 134 31q55 29 100 66l-111 159q-67 -47 -155 -47q-23 -2 -133 27q-48 16 -84 25q-39 8 -84 8
q-66 8 -238 -88z" />
    <glyph glyph-name="udieresis" unicode="&#xc5;" horiz-adv-x="1515" 
d="M14 0h310l161 391h543l162 -391h309l-635 1515h-219zM752 1120h4l172 -465h-348zM554 1763q3 -92 68 -154q62 -65 152 -65q94 0 157 65q62 62 64 154q-2 94 -64 157q-63 62 -157 64q-93 -2 -154 -64q-66 -63 -66 -157v0zM692 1763q0 37 24 61q23 23 58 23q79 -4 84 -84
q0 -35 -23 -58q-27 -24 -61 -24q-35 0 -58 24q-24 23 -24 58v0z" />
    <glyph glyph-name="Egrave" unicode="&#xc0;" horiz-adv-x="1515" 
d="M14 0h310l161 391h543l162 -391h309l-635 1515h-219zM752 1120h4l172 -465h-348zM560 2091l-117 -209l463 -256v0l109 188l-455 277v0z" />
    <glyph glyph-name="ucircumflex" unicode="&#xc4;" horiz-adv-x="1515" 
d="M14 0h310l161 391h543l162 -391h309l-635 1515h-219zM752 1120h4l172 -465h-348zM417 1650h274v273h-274v-273zM849 1650h272v273h-272v-273z" />
    <glyph glyph-name="scaron" unicode="&#xc2;" horiz-adv-x="1515" 
d="M14 0h310l161 391h543l162 -391h309l-635 1515h-219zM752 1120h4l172 -465h-348zM361 1650h297l115 131v0l109 -131h296l-298 283h-216z" />
    <glyph glyph-name="zcaron" unicode="&#xc1;" horiz-adv-x="1515" 
d="M14 0h310l161 391h543l162 -391h309l-635 1515h-219zM752 1120h4l172 -465h-348zM635 1626v0l467 246l-111 215v0l-461 -273z" />
    </font>
</defs>
</svg>
